{
.appVersion = "1057";
DisplayStrings = (
"ABCDEFGHIJKLMNOPQRSTUVWXYZabcdefghijklmnopqrstuvwXxyz\012CGJSsaceg\012OBJEV\012Hnnopka no\012nnznozoon/idotless/jdotless \012HHZHOZOOH\012FIGHTC\012OHVINA\012MUZEUM\012WHOM\012H\U00C6H/AEacute H\U00D0H/Dcroat \012H/Hbar H\U00DEHPH/Tbar H/Eng HgJO/OE H\U00D8HOH/Oslashacute H/Schwa HOH/Germandbls H3J\012STRA/Germandbls E/Eng \012HLH/Lslash HH/Uogonek H\012nn/schwa nen/oe n/tbar ontn/eogonek nen\U00F8non/oslashacute n/eng n/jdotless l/lslash ld\U00DFibnnfn\U00F0ndo./apostrophemodifier \012rock /napostrophe \012no/ldot lno/periodcentered.CAT   /periodcentered.CAT.case \012HO/Ldot LHO\012zd/lslash noty\012stra\U00DFero\012straer\012/f_i nko\012flanka\012/f_l anka\012offern\012o/f_f ern\012/f_f_l akn\012/f_f_i nkof/idotless i",

glyphs = (
{
color = 4;
glyphname = .notdef;
lastChange = "2017-09-01 11:27:10 +0000";
layers = (
{
background = {
paths = (
{
closed = 1;
nodes = (
"166 710 LINE",
"166 0 LINE",
"638 0 LINE",
"638 710 LINE"
);
},
{
closed = 1;
nodes = (
"563 48 LINE",
"241 48 LINE",
"402 313 LINE"
);
},
{
closed = 1;
nodes = (
"373 355 LINE",
"213 89 LINE",
"213 619 LINE"
);
},
{
closed = 1;
nodes = (
"591 89 LINE",
"430 355 LINE",
"591 619 LINE"
);
},
{
closed = 1;
nodes = (
"402 398 LINE",
"241 662 LINE",
"563 662 LINE"
);
}
);
};
layerId = "0A1AFE58-107D-4787-BDA0-D82FB635C3A6";
paths = (
{
closed = 1;
nodes = (
"120 710 LINE",
"120 0 LINE",
"684 0 LINE",
"684 710 LINE"
);
},
{
closed = 1;
nodes = (
"603 48 LINE",
"201 48 LINE",
"403 314 LINE"
);
},
{
closed = 1;
nodes = (
"371 353 LINE",
"173 89 LINE",
"173 619 LINE"
);
},
{
closed = 1;
nodes = (
"631 89 LINE",
"431 356 LINE",
"631 619 LINE"
);
},
{
closed = 1;
nodes = (
"400 396 LINE",
"201 662 LINE",
"603 662 LINE"
);
}
);
width = 804;
},
{
background = {
paths = (
{
closed = 1;
nodes = (
"90 710 LINE",
"90 0 LINE",
"562 0 LINE",
"562 710 LINE"
);
},
{
closed = 1;
nodes = (
"487 48 LINE",
"165 48 LINE",
"326 313 LINE"
);
},
{
closed = 1;
nodes = (
"297 355 LINE",
"137 89 LINE",
"137 619 LINE"
);
},
{
closed = 1;
nodes = (
"515 89 LINE",
"354 355 LINE",
"515 619 LINE"
);
},
{
closed = 1;
nodes = (
"326 398 LINE",
"165 662 LINE",
"487 662 LINE"
);
}
);
};
layerId = "C76CAC8E-7AD6-478C-8F7E-02FEF6F1EA84";
paths = (
{
closed = 1;
nodes = (
"90 710 LINE",
"90 0 LINE",
"654 0 LINE",
"654 710 LINE"
);
},
{
closed = 1;
nodes = (
"573 48 LINE",
"171 48 LINE",
"373 314 LINE"
);
},
{
closed = 1;
nodes = (
"341 353 LINE",
"143 89 LINE",
"143 619 LINE"
);
},
{
closed = 1;
nodes = (
"601 89 LINE",
"401 356 LINE",
"601 619 LINE"
);
},
{
closed = 1;
nodes = (
"370 396 LINE",
"171 662 LINE",
"573 662 LINE"
);
}
);
width = 744;
},
{
background = {
paths = (
{
closed = 1;
nodes = (
"70 710 LINE",
"70 0 LINE",
"542 0 LINE",
"542 710 LINE"
);
},
{
closed = 1;
nodes = (
"467 48 LINE",
"145 48 LINE",
"306 313 LINE"
);
},
{
closed = 1;
nodes = (
"277 355 LINE",
"117 89 LINE",
"117 619 LINE"
);
},
{
closed = 1;
nodes = (
"495 89 LINE",
"334 355 LINE",
"495 619 LINE"
);
},
{
closed = 1;
nodes = (
"306 398 LINE",
"145 662 LINE",
"467 662 LINE"
);
}
);
};
layerId = "84435905-EDCB-4949-A8A3-0E53308A2F50";
paths = (
{
closed = 1;
nodes = (
"70 710 LINE",
"70 0 LINE",
"634 0 LINE",
"634 710 LINE"
);
},
{
closed = 1;
nodes = (
"553 48 LINE",
"151 48 LINE",
"353 314 LINE"
);
},
{
closed = 1;
nodes = (
"321 353 LINE",
"123 89 LINE",
"123 619 LINE"
);
},
{
closed = 1;
nodes = (
"581 89 LINE",
"381 356 LINE",
"581 619 LINE"
);
},
{
closed = 1;
nodes = (
"350 396 LINE",
"151 662 LINE",
"553 662 LINE"
);
}
);
width = 704;
}
);
},
{
glyphname = A;
lastChange = "2017-09-19 12:32:12 +0000";
layers = (
{
anchors = (
{
name = ogonek;
position = "{705, 0}";
},
{
name = top;
position = "{365, 710}";
}
);
background = {
paths = (
{
closed = 1;
nodes = (
"553 122 LINE",
"553 237 LINE",
"145 237 LINE",
"145 122 LINE"
);
},
{
closed = 1;
nodes = (
"454 670 LINE",
"247 670 LINE",
"10 0 LINE",
"165 0 LINE",
"347 559 LINE",
"354 559 LINE",
"536 0 LINE",
"691 0 LINE"
);
}
);
};
layerId = "C76CAC8E-7AD6-478C-8F7E-02FEF6F1EA84";
paths = (
{
closed = 1;
nodes = (
"579 136 LINE",
"579 251 LINE",
"150 251 LINE",
"150 136 LINE"
);
},
{
closed = 1;
nodes = (
"470 710 LINE",
"263 710 LINE",
"10 0 LINE",
"165 0 LINE",
"363 599 LINE",
"369 599 LINE",
"568 0 LINE",
"723 0 LINE"
);
}
);
width = 733;
},
{
anchors = (
{
name = ogonek;
position = "{627, 0}";
},
{
name = top;
position = "{329, 710}";
}
);
background = {
paths = (
{
closed = 1;
nodes = (
"533 172 LINE",
"533 223 LINE",
"125 223 LINE",
"125 172 LINE"
);
},
{
closed = 1;
nodes = (
"366 710 LINE",
"295 710 LINE",
"15 0 LINE",
"79 0 LINE",
"325 650 LINE",
"329 650 LINE",
"581 0 LINE",
"645 0 LINE"
);
}
);
};
layerId = "0A1AFE58-107D-4787-BDA0-D82FB635C3A6";
paths = (
{
closed = 1;
nodes = (
"533 172 LINE",
"533 223 LINE",
"125 223 LINE",
"125 172 LINE"
);
},
{
closed = 1;
nodes = (
"366 710 LINE",
"295 710 LINE",
"15 0 LINE",
"79 0 LINE",
"328 650 LINE",
"332 650 LINE",
"581 0 LINE",
"645 0 LINE"
);
}
);
userData = {
RMXScaler = {
height = 97.30000;
width = 97.30000;
};
};
width = 660;
},
{
anchors = (
{
name = ogonek;
position = "{714, 0}";
},
{
name = top;
position = "{379, 710}";
}
);
background = {
paths = (
{
closed = 1;
nodes = (
"558 100 LINE",
"558 250 LINE",
"164 250 LINE",
"164 100 LINE"
);
},
{
closed = 1;
nodes = (
"517 670 LINE",
"206 670 LINE",
"5 0 LINE",
"229 0 LINE",
"358 529 LINE",
"365 529 LINE",
"494 0 LINE",
"718 0 LINE"
);
}
);
};
layerId = "84435905-EDCB-4949-A8A3-0E53308A2F50";
paths = (
{
closed = 1;
nodes = (
"589 111 LINE",
"589 263 LINE",
"170 263 LINE",
"170 111 LINE"
);
},
{
closed = 1;
nodes = (
"537 710 LINE",
"222 710 LINE",
"5 0 LINE",
"228 0 LINE",
"375 566 LINE",
"383 566 LINE",
"531 0 LINE",
"754 0 LINE"
);
}
);
width = 759;
}
);
unicode = 0041;
userData = {
RMXScaler = {
source = A;
};
};
},
{
glyphname = B;
lastChange = "2017-09-19 12:32:12 +0000";
layers = (
{
background = {
paths = (
{
closed = 1;
nodes = (
"240 0 LINE",
"240 710 LINE",
"95 710 LINE",
"95 0 LINE"
);
},
{
closed = 1;
nodes = (
"562 361 LINE",
"643 382 OFFCURVE",
"680 433 OFFCURVE",
"680 529 CURVE SMOOTH",
"680 640 OFFCURVE",
"623 710 OFFCURVE",
"450 710 CURVE SMOOTH",
"222 710 LINE",
"222 593 LINE",
"422 593 LINE SMOOTH",
"496 593 OFFCURVE",
"532 574 OFFCURVE",
"532 499 CURVE SMOOTH",
"532 433 OFFCURVE",
"496 407 OFFCURVE",
"422 407 CURVE SMOOTH",
"222 407 LINE",
"222 304 LINE",
"436 304 LINE SMOOTH",
"513 304 OFFCURVE",
"551 279 OFFCURVE",
"551 211 CURVE SMOOTH",
"551 138 OFFCURVE",
"513 117 OFFCURVE",
"436 117 CURVE SMOOTH",
"222 117 LINE",
"222 0 LINE",
"456 0 LINE SMOOTH",
"630 0 OFFCURVE",
"698 72 OFFCURVE",
"698 186 CURVE SMOOTH",
"698 288 OFFCURVE",
"656 336 OFFCURVE",
"562 355 CURVE"
);
}
);
};
layerId = "C76CAC8E-7AD6-478C-8F7E-02FEF6F1EA84";
paths = (
{
closed = 1;
nodes = (
"240 0 LINE",
"240 710 LINE",
"95 710 LINE",
"95 0 LINE"
);
},
{
closed = 1;
nodes = (
"562 361 LINE",
"643 382 OFFCURVE",
"680 433 OFFCURVE",
"680 529 CURVE SMOOTH",
"680 640 OFFCURVE",
"623 710 OFFCURVE",
"450 710 CURVE SMOOTH",
"222 710 LINE",
"222 593 LINE",
"422 593 LINE SMOOTH",
"496 593 OFFCURVE",
"532 574 OFFCURVE",
"532 499 CURVE SMOOTH",
"532 435 OFFCURVE",
"496 409 OFFCURVE",
"422 409 CURVE SMOOTH",
"222 409 LINE",
"222 302 LINE",
"436 302 LINE SMOOTH",
"513 302 OFFCURVE",
"551 277 OFFCURVE",
"551 211 CURVE SMOOTH",
"551 138 OFFCURVE",
"513 117 OFFCURVE",
"436 117 CURVE SMOOTH",
"222 117 LINE",
"222 0 LINE",
"456 0 LINE SMOOTH",
"630 0 OFFCURVE",
"698 72 OFFCURVE",
"698 186 CURVE SMOOTH",
"698 288 OFFCURVE",
"656 336 OFFCURVE",
"562 355 CURVE"
);
}
);
width = 751;
},
{
background = {
paths = (
{
closed = 1;
nodes = (
"180 0 LINE",
"180 710 LINE",
"120 710 LINE",
"120 0 LINE"
);
},
{
closed = 1;
nodes = (
"516 358 LINE",
"598 375 OFFCURVE",
"643 428 OFFCURVE",
"643 528 CURVE SMOOTH",
"643 639 OFFCURVE",
"579 710 OFFCURVE",
"415 710 CURVE SMOOTH",
"168 710 LINE",
"168 657 LINE",
"423 657 LINE SMOOTH",
"535 657 OFFCURVE",
"584 607 OFFCURVE",
"584 521 CURVE SMOOTH",
"584 433 OFFCURVE",
"535 379 OFFCURVE",
"423 379 CURVE SMOOTH",
"168 379 LINE",
"168 330 LINE",
"420 330 LINE SMOOTH",
"540 330 OFFCURVE",
"601 289 OFFCURVE",
"601 190 CURVE SMOOTH",
"601 93 OFFCURVE",
"540 53 OFFCURVE",
"420 53 CURVE SMOOTH",
"168 53 LINE",
"168 0 LINE",
"412 0 LINE SMOOTH",
"577 0 OFFCURVE",
"660 67 OFFCURVE",
"660 185 CURVE SMOOTH",
"660 299 OFFCURVE",
"597 339 OFFCURVE",
"516 353 CURVE"
);
}
);
};
layerId = "0A1AFE58-107D-4787-BDA0-D82FB635C3A6";
paths = (
{
closed = 1;
nodes = (
"180 0 LINE",
"180 710 LINE",
"120 710 LINE",
"120 0 LINE"
);
},
{
closed = 1;
nodes = (
"516 358 LINE",
"598 375 OFFCURVE",
"643 428 OFFCURVE",
"643 528 CURVE SMOOTH",
"643 639 OFFCURVE",
"579 710 OFFCURVE",
"415 710 CURVE SMOOTH",
"168 710 LINE",
"168 657 LINE",
"423 657 LINE SMOOTH",
"535 657 OFFCURVE",
"584 607 OFFCURVE",
"584 521 CURVE SMOOTH",
"584 433 OFFCURVE",
"535 380 OFFCURVE",
"423 380 CURVE SMOOTH",
"168 380 LINE",
"168 329 LINE",
"420 329 LINE SMOOTH",
"540 329 OFFCURVE",
"601 289 OFFCURVE",
"601 190 CURVE SMOOTH",
"601 93 OFFCURVE",
"540 53 OFFCURVE",
"420 53 CURVE SMOOTH",
"168 53 LINE",
"168 0 LINE",
"412 0 LINE SMOOTH",
"577 0 OFFCURVE",
"660 67 OFFCURVE",
"660 185 CURVE SMOOTH",
"660 299 OFFCURVE",
"597 339 OFFCURVE",
"516 353 CURVE"
);
}
);
userData = {
RMXScaler = {
height = 97.30000;
width = 97.30000;
};
};
width = 735;
},
{
background = {
paths = (
{
closed = 1;
nodes = (
"283 0 LINE",
"283 710 LINE",
"73 710 LINE",
"73 0 LINE"
);
},
{
closed = 1;
nodes = (
"585 360 LINE",
"663 383 OFFCURVE",
"698 434 OFFCURVE",
"698 529 CURVE SMOOTH",
"698 639 OFFCURVE",
"620 710 OFFCURVE",
"447 710 CURVE SMOOTH",
"264 710 LINE",
"264 552 LINE",
"406 552 LINE SMOOTH",
"460 552 OFFCURVE",
"484 539 OFFCURVE",
"484 482 CURVE SMOOTH",
"484 433 OFFCURVE",
"460 413 OFFCURVE",
"406 413 CURVE SMOOTH",
"264 413 LINE",
"264 297 LINE",
"423 297 LINE SMOOTH",
"477 297 OFFCURVE",
"503 278 OFFCURVE",
"503 228 CURVE SMOOTH",
"503 171 OFFCURVE",
"477 158 OFFCURVE",
"423 158 CURVE SMOOTH",
"264 158 LINE",
"264 0 LINE",
"463 0 LINE SMOOTH",
"637 0 OFFCURVE",
"716 71 OFFCURVE",
"716 186 CURVE SMOOTH",
"716 287 OFFCURVE",
"675 336 OFFCURVE",
"585 354 CURVE"
);
}
);
};
layerId = "84435905-EDCB-4949-A8A3-0E53308A2F50";
paths = (
{
closed = 1;
nodes = (
"283 0 LINE",
"283 710 LINE",
"73 710 LINE",
"73 0 LINE"
);
},
{
closed = 1;
nodes = (
"585 360 LINE",
"663 383 OFFCURVE",
"698 434 OFFCURVE",
"698 529 CURVE SMOOTH",
"698 639 OFFCURVE",
"620 710 OFFCURVE",
"447 710 CURVE SMOOTH",
"264 710 LINE",
"264 552 LINE",
"406 552 LINE SMOOTH",
"460 552 OFFCURVE",
"484 539 OFFCURVE",
"484 484 CURVE SMOOTH",
"484 437 OFFCURVE",
"460 417 OFFCURVE",
"406 417 CURVE SMOOTH",
"264 417 LINE",
"264 293 LINE",
"423 293 LINE SMOOTH",
"477 293 OFFCURVE",
"503 274 OFFCURVE",
"503 226 CURVE SMOOTH",
"503 171 OFFCURVE",
"477 158 OFFCURVE",
"423 158 CURVE SMOOTH",
"264 158 LINE",
"264 0 LINE",
"463 0 LINE SMOOTH",
"637 0 OFFCURVE",
"716 71 OFFCURVE",
"716 186 CURVE SMOOTH",
"716 287 OFFCURVE",
"675 336 OFFCURVE",
"585 354 CURVE"
);
}
);
width = 751;
}
);
leftMetricsKey = H;
unicode = 0042;
userData = {
RMXScaler = {
source = B;
};
};
},
{
color = 4;
glyphname = C;
lastChange = "2017-09-19 14:52:14 +0000";
layers = (
{
anchors = (
{
name = bottom;
position = "{408, 0}";
},
{
name = top;
position = "{403, 710}";
}
);
background = {
paths = (
{
closed = 1;
nodes = (
"597 -15 OFFCURVE",
"711 74 OFFCURVE",
"737 244 CURVE",
"585 244 LINE",
"561 150 OFFCURVE",
"508 110 OFFCURVE",
"408 110 CURVE SMOOTH",
"278 110 OFFCURVE",
"208 195 OFFCURVE",
"208 355 CURVE SMOOTH",
"208 514 OFFCURVE",
"278 600 OFFCURVE",
"406 600 CURVE SMOOTH",
"506 600 OFFCURVE",
"563 557 OFFCURVE",
"583 466 CURVE",
"735 466 LINE",
"712 637 OFFCURVE",
"601 725 OFFCURVE",
"406 725 CURVE SMOOTH",
"185 725 OFFCURVE",
"55 588 OFFCURVE",
"55 355 CURVE SMOOTH",
"55 121 OFFCURVE",
"184 -15 OFFCURVE",
"408 -15 CURVE SMOOTH"
);
}
);
};
layerId = "C76CAC8E-7AD6-478C-8F7E-02FEF6F1EA84";
paths = (
{
closed = 1;
nodes = (
"607 -15 OFFCURVE",
"711 74 OFFCURVE",
"737 244 CURVE",
"585 244 LINE",
"566 150 OFFCURVE",
"518 110 OFFCURVE",
"408 110 CURVE SMOOTH",
"278 110 OFFCURVE",
"208 195 OFFCURVE",
"208 355 CURVE SMOOTH",
"208 514 OFFCURVE",
"278 600 OFFCURVE",
"406 600 CURVE SMOOTH",
"506 600 OFFCURVE",
"563 557 OFFCURVE",
"583 466 CURVE",
"735 466 LINE",
"712 637 OFFCURVE",
"601 725 OFFCURVE",
"406 725 CURVE SMOOTH",
"185 725 OFFCURVE",
"55 588 OFFCURVE",
"55 355 CURVE SMOOTH",
"55 121 OFFCURVE",
"184 -15 OFFCURVE",
"408 -15 CURVE SMOOTH"
);
}
);
width = 792;
},
{
anchors = (
{
name = bottom;
position = "{394, 0}";
},
{
name = top;
position = "{391, 710}";
}
);
background = {
paths = (
{
closed = 1;
nodes = (
"569 -15 OFFCURVE",
"666 73 OFFCURVE",
"692 219 CURVE",
"632 219 LINE",
"602 98 OFFCURVE",
"531 39 OFFCURVE",
"392 39 CURVE SMOOTH",
"228 39 OFFCURVE",
"132 158 OFFCURVE",
"132 355 CURVE SMOOTH",
"132 552 OFFCURVE",
"228 671 OFFCURVE",
"391 671 CURVE SMOOTH",
"529 671 OFFCURVE",
"599 613 OFFCURVE",
"629 492 CURVE",
"689 492 LINE",
"663 628 OFFCURVE",
"567 725 OFFCURVE",
"392 725 CURVE SMOOTH",
"195 725 OFFCURVE",
"70 581 OFFCURVE",
"70 355 CURVE SMOOTH",
"70 129 OFFCURVE",
"193 -15 OFFCURVE",
"393 -15 CURVE SMOOTH"
);
}
);
};
layerId = "0A1AFE58-107D-4787-BDA0-D82FB635C3A6";
paths = (
{
closed = 1;
nodes = (
"558 -15 OFFCURVE",
"665 69 OFFCURVE",
"688 219 CURVE",
"628 219 LINE",
"599 93 OFFCURVE",
"527 39 OFFCURVE",
"393 39 CURVE SMOOTH",
"222 39 OFFCURVE",
"132 156 OFFCURVE",
"132 355 CURVE SMOOTH",
"132 554 OFFCURVE",
"222 671 OFFCURVE",
"393 671 CURVE SMOOTH",
"526 671 OFFCURVE",
"597 617 OFFCURVE",
"626 492 CURVE",
"686 492 LINE",
"663 641 OFFCURVE",
"557 725 OFFCURVE",
"393 725 CURVE SMOOTH",
"191 725 OFFCURVE",
"70 585 OFFCURVE",
"70 355 CURVE SMOOTH",
"70 125 OFFCURVE",
"191 -15 OFFCURVE",
"393 -15 CURVE SMOOTH"
);
}
);
userData = {
RMXScaler = {
height = 97.30000;
width = 97.30000;
};
};
width = 752;
},
{
anchors = (
{
name = bottom;
position = "{399, 0}";
},
{
name = top;
position = "{394, 710}";
}
);
background = {
paths = (
{
closed = 1;
nodes = (
"602 -15 OFFCURVE",
"717 76 OFFCURVE",
"723 265 CURVE",
"517 265 LINE",
"501 191 OFFCURVE",
"467 158 OFFCURVE",
"395 158 CURVE SMOOTH",
"303 158 OFFCURVE",
"263 215 OFFCURVE",
"263 353 CURVE SMOOTH",
"263 489 OFFCURVE",
"304 553 OFFCURVE",
"395 553 CURVE SMOOTH",
"463 553 OFFCURVE",
"497 527 OFFCURVE",
"516 445 CURVE",
"722 445 LINE",
"715 631 OFFCURVE",
"596 725 OFFCURVE",
"394 725 CURVE SMOOTH",
"167 725 OFFCURVE",
"40 592 OFFCURVE",
"40 353 CURVE SMOOTH",
"40 120 OFFCURVE",
"167 -15 OFFCURVE",
"394 -15 CURVE SMOOTH"
);
}
);
};
layerId = "84435905-EDCB-4949-A8A3-0E53308A2F50";
paths = (
{
closed = 1;
nodes = (
"602 -15 OFFCURVE",
"717 76 OFFCURVE",
"723 265 CURVE",
"517 265 LINE",
"511 191 OFFCURVE",
"470 158 OFFCURVE",
"398 158 CURVE SMOOTH",
"306 158 OFFCURVE",
"263 215 OFFCURVE",
"263 353 CURVE SMOOTH",
"263 489 OFFCURVE",
"304 553 OFFCURVE",
"395 553 CURVE SMOOTH",
"473 553 OFFCURVE",
"507 517 OFFCURVE",
"516 445 CURVE",
"722 445 LINE",
"715 631 OFFCURVE",
"596 725 OFFCURVE",
"394 725 CURVE SMOOTH",
"167 725 OFFCURVE",
"40 592 OFFCURVE",
"40 353 CURVE SMOOTH",
"40 120 OFFCURVE",
"167 -15 OFFCURVE",
"394 -15 CURVE SMOOTH"
);
}
);
width = 763;
}
);
leftMetricsKey = O;
unicode = 0043;
userData = {
RMXScaler = {
source = C;
};
};
},
{
glyphname = D;
lastChange = "2017-09-19 12:32:12 +0000";
layers = (
{
anchors = (
{
name = top;
position = "{352, 710}";
}
);
background = {
paths = (
{
closed = 1;
nodes = (
"236 0 LINE",
"236 670 LINE",
"88 670 LINE",
"88 0 LINE"
);
},
{
closed = 1;
nodes = (
"203 125 LINE",
"203 0 LINE",
"350 0 LINE SMOOTH",
"567 0 OFFCURVE",
"687 111 OFFCURVE",
"687 335 CURVE SMOOTH",
"687 561 OFFCURVE",
"566 670 OFFCURVE",
"360 670 CURVE SMOOTH",
"203 670 LINE",
"203 545 LINE",
"347 545 LINE SMOOTH",
"461 545 OFFCURVE",
"534 497 OFFCURVE",
"534 335 CURVE SMOOTH",
"534 173 OFFCURVE",
"461 125 OFFCURVE",
"347 125 CURVE SMOOTH"
);
}
);
};
layerId = "C76CAC8E-7AD6-478C-8F7E-02FEF6F1EA84";
paths = (
{
closed = 1;
nodes = (
"243 0 LINE",
"243 710 LINE",
"95 710 LINE",
"95 0 LINE"
);
},
{
closed = 1;
nodes = (
"208 124 LINE",
"208 0 LINE",
"378 0 LINE SMOOTH",
"609 0 OFFCURVE",
"717 116 OFFCURVE",
"717 356 CURVE SMOOTH",
"717 597 OFFCURVE",
"608 710 OFFCURVE",
"388 710 CURVE SMOOTH",
"208 710 LINE",
"208 586 LINE",
"377 586 LINE SMOOTH",
"503 586 OFFCURVE",
"564 533 OFFCURVE",
"564 356 CURVE SMOOTH",
"564 177 OFFCURVE",
"503 124 OFFCURVE",
"377 124 CURVE SMOOTH"
);
}
);
width = 772;
},
{
anchors = (
{
name = top;
position = "{327, 710}";
}
);
background = {
paths = (
{
closed = 1;
nodes = (
"172 0 LINE",
"172 670 LINE",
"112 670 LINE",
"112 0 LINE"
);
},
{
closed = 1;
nodes = (
"139 51 LINE",
"139 0 LINE",
"298 0 LINE SMOOTH",
"526 0 OFFCURVE",
"653 100 OFFCURVE",
"653 335 CURVE SMOOTH",
"653 572 OFFCURVE",
"525 670 OFFCURVE",
"308 670 CURVE SMOOTH",
"139 670 LINE",
"139 619 LINE",
"315 619 LINE SMOOTH",
"479 619 OFFCURVE",
"591 554 OFFCURVE",
"591 335 CURVE SMOOTH",
"591 116 OFFCURVE",
"479 51 OFFCURVE",
"315 51 CURVE SMOOTH"
);
}
);
};
layerId = "0A1AFE58-107D-4787-BDA0-D82FB635C3A6";
paths = (
{
closed = 1;
nodes = (
"180 0 LINE",
"180 710 LINE",
"120 710 LINE",
"120 0 LINE"
);
},
{
closed = 1;
nodes = (
"145 51 LINE",
"145 0 LINE",
"328 0 LINE SMOOTH",
"568 0 OFFCURVE",
"672 105 OFFCURVE",
"672 353 CURVE SMOOTH",
"672 607 OFFCURVE",
"567 710 OFFCURVE",
"337 710 CURVE SMOOTH",
"145 710 LINE",
"145 659 LINE",
"346 659 LINE SMOOTH",
"521 659 OFFCURVE",
"610 589 OFFCURVE",
"610 353 CURVE SMOOTH",
"610 121 OFFCURVE",
"521 51 OFFCURVE",
"346 51 CURVE SMOOTH"
);
}
);
userData = {
RMXScaler = {
height = 97.30000;
width = 97.30000;
};
};
width = 742;
},
{
anchors = (
{
name = top;
position = "{357, 710}";
}
);
background = {
paths = (
{
closed = 1;
nodes = (
"282 0 LINE",
"282 670 LINE",
"68 670 LINE",
"68 0 LINE"
);
},
{
closed = 1;
nodes = (
"250 168 LINE",
"250 0 LINE",
"378 0 LINE SMOOTH",
"590 0 OFFCURVE",
"714 111 OFFCURVE",
"714 335 CURVE SMOOTH",
"714 561 OFFCURVE",
"589 670 OFFCURVE",
"388 670 CURVE SMOOTH",
"250 670 LINE",
"250 502 LINE",
"360 502 LINE SMOOTH",
"453 502 OFFCURVE",
"496 454 OFFCURVE",
"496 335 CURVE SMOOTH",
"496 216 OFFCURVE",
"453 168 OFFCURVE",
"360 168 CURVE SMOOTH"
);
}
);
};
layerId = "84435905-EDCB-4949-A8A3-0E53308A2F50";
paths = (
{
closed = 1;
nodes = (
"291 0 LINE",
"291 710 LINE",
"73 710 LINE",
"73 0 LINE"
);
},
{
closed = 1;
nodes = (
"252 167 LINE",
"252 0 LINE",
"389 0 LINE SMOOTH",
"615 0 OFFCURVE",
"746 118 OFFCURVE",
"746 355 CURVE SMOOTH",
"746 595 OFFCURVE",
"614 710 OFFCURVE",
"400 710 CURVE SMOOTH",
"252 710 LINE",
"252 543 LINE",
"372 543 LINE SMOOTH",
"476 543 OFFCURVE",
"523 491 OFFCURVE",
"523 355 CURVE SMOOTH",
"523 219 OFFCURVE",
"476 167 OFFCURVE",
"372 167 CURVE SMOOTH"
);
}
);
width = 786;
}
);
leftMetricsKey = H;
rightMetricsKey = O;
unicode = 0044;
userData = {
RMXScaler = {
source = D;
};
};
},
{
glyphname = E;
lastChange = "2017-09-19 12:32:12 +0000";
layers = (
{
anchors = (
{
name = ogonek;
position = "{615, 0}";
},
{
name = top;
position = "{372, 710}";
}
);
background = {
paths = (
{
closed = 1;
nodes = (
"633 710 LINE",
"95 710 LINE",
"95 0 LINE",
"633 0 LINE",
"633 125 LINE",
"240 125 LINE",
"240 297 LINE",
"570 297 LINE",
"570 412 LINE",
"240 412 LINE",
"240 585 LINE",
"633 585 LINE"
);
}
);
};
layerId = "C76CAC8E-7AD6-478C-8F7E-02FEF6F1EA84";
paths = (
{
closed = 1;
nodes = (
"240 0 LINE",
"240 710 LINE",
"95 710 LINE",
"95 0 LINE"
);
},
{
closed = 1;
nodes = (
"633 585 LINE",
"633 710 LINE",
"192 710 LINE",
"192 585 LINE"
);
},
{
closed = 1;
nodes = (
"570 297 LINE",
"570 412 LINE",
"216 412 LINE",
"216 297 LINE"
);
},
{
closed = 1;
nodes = (
"633 0 LINE",
"633 125 LINE",
"192 125 LINE",
"192 0 LINE"
);
}
);
width = 693;
},
{
anchors = (
{
name = ogonek;
position = "{572, 0}";
},
{
name = top;
position = "{360, 710}";
}
);
background = {
paths = (
{
closed = 1;
nodes = (
"590 710 LINE",
"120 710 LINE",
"120 0 LINE",
"590 0 LINE",
"590 53 LINE",
"180 53 LINE",
"180 336 LINE",
"524 336 LINE",
"524 387 LINE",
"180 387 LINE",
"180 657 LINE",
"590 657 LINE"
);
}
);
};
layerId = "0A1AFE58-107D-4787-BDA0-D82FB635C3A6";
paths = (
{
closed = 1;
nodes = (
"180 0 LINE",
"180 710 LINE",
"120 710 LINE",
"120 0 LINE"
);
},
{
closed = 1;
nodes = (
"590 657 LINE",
"590 710 LINE",
"167 710 LINE",
"167 657 LINE"
);
},
{
closed = 1;
nodes = (
"524 336 LINE",
"524 387 LINE",
"167 387 LINE",
"167 336 LINE"
);
},
{
closed = 1;
nodes = (
"590 0 LINE",
"590 53 LINE",
"167 53 LINE",
"167 0 LINE"
);
}
);
userData = {
RMXScaler = {
height = 97.30000;
width = 97.30000;
};
};
width = 670;
},
{
anchors = (
{
name = ogonek;
position = "{606, 0}";
},
{
name = top;
position = "{367, 710}";
}
);
background = {
paths = (
{
closed = 1;
nodes = (
"646 710 LINE",
"73 710 LINE",
"73 0 LINE",
"646 0 LINE",
"646 169 LINE",
"287 169 LINE",
"287 281 LINE",
"584 281 LINE",
"584 428 LINE",
"287 428 LINE",
"287 541 LINE",
"646 541 LINE"
);
}
);
};
layerId = "84435905-EDCB-4949-A8A3-0E53308A2F50";
paths = (
{
closed = 1;
nodes = (
"287 0 LINE",
"287 710 LINE",
"73 710 LINE",
"73 0 LINE"
);
},
{
closed = 1;
nodes = (
"646 541 LINE",
"646 710 LINE",
"191 710 LINE",
"191 541 LINE"
);
},
{
closed = 1;
nodes = (
"584 281 LINE",
"584 428 LINE",
"209 428 LINE",
"209 281 LINE"
);
},
{
closed = 1;
nodes = (
"646 0 LINE",
"646 169 LINE",
"191 169 LINE",
"191 0 LINE"
);
}
);
width = 695;
}
);
leftMetricsKey = "=H";
unicode = 0045;
userData = {
RMXScaler = {
source = E;
};
};
},
{
glyphname = F;
lastChange = "2017-09-19 12:32:12 +0000";
layers = (
{
background = {
paths = (
{
closed = 1;
nodes = (
"231 0 LINE",
"231 670 LINE",
"88 670 LINE",
"88 0 LINE"
);
},
{
closed = 1;
nodes = (
"578 545 LINE",
"578 670 LINE",
"183 670 LINE",
"183 545 LINE"
);
},
{
closed = 1;
nodes = (
"518 253 LINE",
"518 370 LINE",
"183 370 LINE",
"183 253 LINE"
);
}
);
};
layerId = "C76CAC8E-7AD6-478C-8F7E-02FEF6F1EA84";
paths = (
{
closed = 1;
nodes = (
"243 0 LINE",
"243 710 LINE",
"95 710 LINE",
"95 0 LINE"
);
},
{
closed = 1;
nodes = (
"609 585 LINE",
"609 710 LINE",
"195 710 LINE",
"195 585 LINE"
);
},
{
closed = 1;
nodes = (
"546 275 LINE",
"546 392 LINE",
"195 392 LINE",
"195 275 LINE"
);
}
);
width = 634;
},
{
background = {
paths = (
{
closed = 1;
nodes = (
"171 0 LINE",
"171 670 LINE",
"112 670 LINE",
"112 0 LINE"
);
},
{
closed = 1;
nodes = (
"557 616 LINE",
"557 670 LINE",
"157 670 LINE",
"157 616 LINE"
);
},
{
closed = 1;
nodes = (
"494 309 LINE",
"494 359 LINE",
"157 359 LINE",
"157 309 LINE"
);
}
);
};
layerId = "0A1AFE58-107D-4787-BDA0-D82FB635C3A6";
paths = (
{
closed = 1;
nodes = (
"180 0 LINE",
"180 710 LINE",
"120 710 LINE",
"120 0 LINE"
);
},
{
closed = 1;
nodes = (
"577 657 LINE",
"577 710 LINE",
"167 710 LINE",
"167 657 LINE"
);
},
{
closed = 1;
nodes = (
"510 331 LINE",
"510 382 LINE",
"167 382 LINE",
"167 331 LINE"
);
}
);
userData = {
RMXScaler = {
height = 97.30000;
width = 97.30000;
};
};
width = 607;
},
{
background = {
paths = (
{
closed = 1;
nodes = (
"277 0 LINE",
"277 670 LINE",
"68 670 LINE",
"68 0 LINE"
);
},
{
closed = 1;
nodes = (
"600 497 LINE",
"600 670 LINE",
"183 670 LINE",
"183 497 LINE"
);
},
{
closed = 1;
nodes = (
"541 229 LINE",
"541 379 LINE",
"183 379 LINE",
"183 229 LINE"
);
}
);
};
layerId = "84435905-EDCB-4949-A8A3-0E53308A2F50";
paths = (
{
closed = 1;
nodes = (
"291 0 LINE",
"291 710 LINE",
"73 710 LINE",
"73 0 LINE"
);
},
{
closed = 1;
nodes = (
"629 538 LINE",
"629 710 LINE",
"191 710 LINE",
"191 538 LINE"
);
},
{
closed = 1;
nodes = (
"566 248 LINE",
"566 401 LINE",
"191 401 LINE",
"191 248 LINE"
);
}
);
width = 649;
}
);
leftMetricsKey = H;
unicode = 0046;
userData = {
RMXScaler = {
source = F;
};
};
},
{
color = 4;
glyphname = G;
lastChange = "2017-09-19 14:59:24 +0000";
layers = (
{
anchors = (
{
name = bottom;
position = "{407, 0}";
},
{
name = top;
position = "{415, 710}";
}
);
background = {
paths = (
{
closed = 1;
nodes = (
"496 -16 OFFCURVE",
"568 45 OFFCURVE",
"602 111 CURVE",
"608 111 LINE",
"624 0 LINE",
"742 0 LINE",
"742 371 LINE",
"435 371 LINE",
"435 260 LINE",
"665 260 LINE",
"610 301 LINE",
"596 197 OFFCURVE",
"533 106 OFFCURVE",
"407 106 CURVE SMOOTH",
"286 106 OFFCURVE",
"208 185 OFFCURVE",
"208 355 CURVE SMOOTH",
"208 513 OFFCURVE",
"278 600 OFFCURVE",
"408 600 CURVE SMOOTH",
"501 600 OFFCURVE",
"556 564 OFFCURVE",
"581 487 CURVE",
"734 487 LINE",
"702 643 OFFCURVE",
"593 725 OFFCURVE",
"407 725 CURVE SMOOTH",
"185 725 OFFCURVE",
"55 590 OFFCURVE",
"55 355 CURVE SMOOTH",
"55 105 OFFCURVE",
"202 -16 OFFCURVE",
"374 -16 CURVE SMOOTH"
);
}
);
};
layerId = "C76CAC8E-7AD6-478C-8F7E-02FEF6F1EA84";
paths = (
{
closed = 1;
nodes = (
"496 -16 OFFCURVE",
"558 25 OFFCURVE",
"602 111 CURVE",
"608 111 LINE",
"624 0 LINE",
"740 0 LINE",
"740 371 LINE",
"435 371 LINE",
"435 260 LINE",
"665 260 LINE",
"610 301 LINE",
"596 197 OFFCURVE",
"533 106 OFFCURVE",
"407 106 CURVE SMOOTH",
"286 106 OFFCURVE",
"208 185 OFFCURVE",
"208 355 CURVE SMOOTH",
"208 513 OFFCURVE",
"278 600 OFFCURVE",
"411 600 CURVE SMOOTH",
"524 600 OFFCURVE",
"573 554 OFFCURVE",
"588 487 CURVE",
"735 487 LINE",
"723 630 OFFCURVE",
"613 725 OFFCURVE",
"407 725 CURVE SMOOTH",
"185 725 OFFCURVE",
"55 590 OFFCURVE",
"55 355 CURVE SMOOTH",
"55 105 OFFCURVE",
"192 -16 OFFCURVE",
"374 -16 CURVE SMOOTH"
);
}
);
width = 815;
},
{
anchors = (
{
name = bottom;
position = "{387, 0}";
},
{
name = top;
position = "{394, 710}";
}
);
background = {
paths = (
{
closed = 1;
nodes = (
"544 -15 OFFCURVE",
"617 82 OFFCURVE",
"641 140 CURVE",
"646 140 LINE",
"654 0 LINE",
"699 0 LINE",
"699 346 LINE",
"445 346 LINE",
"445 299 LINE",
"668 299 LINE",
"651 309 LINE",
"631 140 OFFCURVE",
"538 39 OFFCURVE",
"387 39 CURVE SMOOTH",
"226 39 OFFCURVE",
"132 157 OFFCURVE",
"132 355 CURVE SMOOTH",
"132 554 OFFCURVE",
"222 671 OFFCURVE",
"395 671 CURVE SMOOTH",
"550 671 OFFCURVE",
"608 609 OFFCURVE",
"634 502 CURVE",
"694 502 LINE",
"672 630 OFFCURVE",
"584 725 OFFCURVE",
"397 725 CURVE SMOOTH",
"190 725 OFFCURVE",
"70 585 OFFCURVE",
"70 355 CURVE SMOOTH",
"70 125 OFFCURVE",
"194 -15 OFFCURVE",
"387 -15 CURVE SMOOTH"
);
}
);
};
layerId = "0A1AFE58-107D-4787-BDA0-D82FB635C3A6";
paths = (
{
closed = 1;
nodes = (
"544 -15 OFFCURVE",
"617 82 OFFCURVE",
"641 140 CURVE",
"646 140 LINE",
"654 0 LINE",
"699 0 LINE",
"699 346 LINE",
"445 346 LINE",
"445 299 LINE",
"668 299 LINE",
"651 309 LINE",
"633 137 OFFCURVE",
"536 39 OFFCURVE",
"387 39 CURVE SMOOTH",
"226 39 OFFCURVE",
"132 157 OFFCURVE",
"132 355 CURVE SMOOTH",
"132 558 OFFCURVE",
"224 670 OFFCURVE",
"396 671 CURVE SMOOTH",
"533 672 OFFCURVE",
"607 620 OFFCURVE",
"634 502 CURVE",
"694 502 LINE",
"672 630 OFFCURVE",
"584 725 OFFCURVE",
"398 725 CURVE SMOOTH",
"190 725 OFFCURVE",
"70 585 OFFCURVE",
"70 355 CURVE SMOOTH",
"70 125 OFFCURVE",
"194 -15 OFFCURVE",
"387 -15 CURVE SMOOTH"
);
}
);
userData = {
RMXScaler = {
height = 97.30000;
width = 97.30000;
};
};
width = 793;
},
{
anchors = (
{
name = bottom;
position = "{397, 0}";
},
{
name = top;
position = "{410, 710}";
}
);
background = {
paths = (
{
closed = 1;
nodes = (
"472 -16 OFFCURVE",
"532 40 OFFCURVE",
"559 101 CURVE",
"567 101 LINE",
"592 0 LINE",
"748 0 LINE",
"748 390 LINE",
"417 390 LINE",
"417 253 LINE",
"596 253 LINE",
"560 288 LINE",
"553 200 OFFCURVE",
"499 149 OFFCURVE",
"410 149 CURVE SMOOTH",
"302 149 OFFCURVE",
"263 218 OFFCURVE",
"263 353 CURVE SMOOTH",
"263 489 OFFCURVE",
"304 553 OFFCURVE",
"408 553 CURVE SMOOTH",
"475 553 OFFCURVE",
"502 524 OFFCURVE",
"528 475 CURVE",
"738 475 LINE",
"698 636 OFFCURVE",
"602 725 OFFCURVE",
"403 725 CURVE SMOOTH",
"167 725 OFFCURVE",
"40 592 OFFCURVE",
"40 353 CURVE SMOOTH",
"40 120 OFFCURVE",
"158 -16 OFFCURVE",
"362 -16 CURVE SMOOTH"
);
}
);
};
layerId = "84435905-EDCB-4949-A8A3-0E53308A2F50";
paths = (
{
closed = 1;
nodes = (
"472 -16 OFFCURVE",
"532 40 OFFCURVE",
"559 101 CURVE",
"567 101 LINE",
"592 0 LINE",
"748 0 LINE",
"748 390 LINE",
"417 390 LINE",
"417 253 LINE",
"596 253 LINE",
"560 288 LINE",
"553 200 OFFCURVE",
"499 149 OFFCURVE",
"410 149 CURVE SMOOTH",
"302 149 OFFCURVE",
"263 218 OFFCURVE",
"263 353 CURVE SMOOTH",
"263 489 OFFCURVE",
"304 556 OFFCURVE",
"408 556 CURVE SMOOTH",
"475 556 OFFCURVE",
"512 529 OFFCURVE",
"528 475 CURVE",
"738 475 LINE",
"728 636 OFFCURVE",
"612 725 OFFCURVE",
"403 725 CURVE SMOOTH",
"167 725 OFFCURVE",
"40 592 OFFCURVE",
"40 353 CURVE SMOOTH",
"40 120 OFFCURVE",
"158 -16 OFFCURVE",
"362 -16 CURVE SMOOTH"
);
}
);
width = 811;
}
);
leftMetricsKey = O;
unicode = 0047;
userData = {
RMXScaler = {
source = G;
};
};
},
{
glyphname = H;
lastChange = "2017-09-19 12:32:12 +0000";
layers = (
{
anchors = (
{
name = top;
position = "{406, 710}";
}
);
background = {
paths = (
{
closed = 1;
nodes = (
"734 0 LINE",
"734 730 LINE",
"586 730 LINE",
"586 0 LINE"
);
},
{
closed = 1;
nodes = (
"247 0 LINE",
"247 730 LINE",
"99 730 LINE",
"99 0 LINE"
);
},
{
closed = 1;
nodes = (
"669 304 LINE",
"669 429 LINE",
"159 429 LINE",
"159 304 LINE"
);
}
);
};
layerId = "C76CAC8E-7AD6-478C-8F7E-02FEF6F1EA84";
paths = (
{
closed = 1;
nodes = (
"568 419 LINE",
"243 419 LINE",
"243 710 LINE",
"95 710 LINE",
"95 0 LINE",
"243 0 LINE",
"243 295 LINE",
"568 295 LINE",
"568 0 LINE",
"716 0 LINE",
"716 710 LINE",
"568 710 LINE"
);
}
);
width = 811;
},
{
anchors = (
{
name = top;
position = "{391, 710}";
}
);
background = {
paths = (
{
closed = 1;
nodes = (
"607 389 LINE",
"180 389 LINE",
"180 710 LINE",
"120 710 LINE",
"120 0 LINE",
"180 0 LINE",
"180 336 LINE",
"607 336 LINE",
"607 0 LINE",
"667 0 LINE",
"667 710 LINE",
"607 710 LINE"
);
}
);
};
layerId = "0A1AFE58-107D-4787-BDA0-D82FB635C3A6";
paths = (
{
closed = 1;
nodes = (
"607 389 LINE",
"180 389 LINE",
"180 710 LINE",
"120 710 LINE",
"120 0 LINE",
"180 0 LINE",
"180 336 LINE",
"607 336 LINE",
"607 0 LINE",
"667 0 LINE",
"667 710 LINE",
"607 710 LINE"
);
}
);
userData = {
RMXScaler = {
height = 97.30000;
width = 97.30000;
};
};
width = 787;
},
{
anchors = (
{
name = top;
position = "{404, 710}";
}
);
background = {
paths = (
{
closed = 1;
nodes = (
"707 0 LINE",
"707 670 LINE",
"487 670 LINE",
"487 0 LINE"
);
},
{
closed = 1;
nodes = (
"287 0 LINE",
"287 670 LINE",
"68 670 LINE",
"68 0 LINE"
);
},
{
closed = 1;
nodes = (
"592 250 LINE",
"592 419 LINE",
"206 419 LINE",
"206 250 LINE"
);
}
);
};
layerId = "84435905-EDCB-4949-A8A3-0E53308A2F50";
paths = (
{
closed = 1;
nodes = (
"521 440 LINE",
"293 440 LINE",
"293 710 LINE",
"73 710 LINE",
"73 0 LINE",
"293 0 LINE",
"293 270 LINE",
"521 270 LINE",
"521 0 LINE",
"741 0 LINE",
"741 710 LINE",
"521 710 LINE"
);
}
);
width = 814;
}
);
unicode = 0048;
userData = {
RMXScaler = {
source = H;
};
};
},
{
glyphname = I;
lastChange = "2017-09-19 12:32:12 +0000";
layers = (
{
anchors = (
{
name = ogonek;
position = "{225, 0}";
},
{
name = top;
position = "{168, 710}";
}
);
layerId = "C76CAC8E-7AD6-478C-8F7E-02FEF6F1EA84";
paths = (
{
closed = 1;
nodes = (
"243 0 LINE",
"243 710 LINE",
"95 710 LINE",
"95 0 LINE"
);
}
);
width = 338;
},
{
anchors = (
{
name = ogonek;
position = "{162, 0}";
},
{
name = top;
position = "{150, 710}";
}
);
background = {
paths = (
{
closed = 1;
nodes = (
"180 0 LINE",
"180 670 LINE",
"120 670 LINE",
"120 0 LINE"
);
}
);
};
layerId = "0A1AFE58-107D-4787-BDA0-D82FB635C3A6";
paths = (
{
closed = 1;
nodes = (
"180 0 LINE",
"180 710 LINE",
"120 710 LINE",
"120 0 LINE"
);
}
);
width = 300;
},
{
anchors = (
{
name = ogonek;
position = "{252, 0}";
},
{
name = top;
position = "{179, 710}";
}
);
background = {
paths = (
{
closed = 1;
nodes = (
"292 0 LINE",
"292 670 LINE",
"73 670 LINE",
"73 0 LINE"
);
}
);
};
layerId = "84435905-EDCB-4949-A8A3-0E53308A2F50";
paths = (
{
closed = 1;
nodes = (
"292 0 LINE",
"292 710 LINE",
"73 710 LINE",
"73 0 LINE"
);
}
);
width = 365;
}
);
leftMetricsKey = "=H";
rightMetricsKey = "=H";
unicode = 0049;
userData = {
RMXScaler = {
source = I;
};
};
},
{
glyphname = J;
lastChange = "2017-09-19 12:32:12 +0000";
layers = (
{
anchors = (
{
name = top;
position = "{494, 710}";
}
);
background = {
paths = (
{
closed = 1;
nodes = (
"477 -15 OFFCURVE",
"566 77 OFFCURVE",
"566 279 CURVE SMOOTH",
"566 710 LINE",
"418 710 LINE",
"418 254 LINE SMOOTH",
"418 157 OFFCURVE",
"382 110 OFFCURVE",
"295 110 CURVE SMOOTH",
"210 110 OFFCURVE",
"174 147 OFFCURVE",
"164 242 CURVE",
"15 242 LINE",
"22 72 OFFCURVE",
"118 -15 OFFCURVE",
"289 -15 CURVE SMOOTH"
);
}
);
};
layerId = "C76CAC8E-7AD6-478C-8F7E-02FEF6F1EA84";
paths = (
{
closed = 1;
nodes = (
"472 -15 OFFCURVE",
"561 67 OFFCURVE",
"561 269 CURVE SMOOTH",
"561 710 LINE",
"413 710 LINE",
"413 254 LINE SMOOTH",
"413 157 OFFCURVE",
"377 110 OFFCURVE",
"295 110 CURVE SMOOTH",
"210 110 OFFCURVE",
"174 147 OFFCURVE",
"164 242 CURVE",
"15 242 LINE",
"22 72 OFFCURVE",
"118 -15 OFFCURVE",
"289 -15 CURVE SMOOTH"
);
}
);
width = 646;
},
{
anchors = (
{
name = top;
position = "{455, 710}";
}
);
background = {
paths = (
{
closed = 1;
nodes = (
"391 -15 OFFCURVE",
"485 74 OFFCURVE",
"485 285 CURVE SMOOTH",
"485 710 LINE",
"425 710 LINE",
"425 283 LINE SMOOTH",
"425 93 OFFCURVE",
"354 36 OFFCURVE",
"245 36 CURVE SMOOTH",
"140 36 OFFCURVE",
"80 89 OFFCURVE",
"64 206 CURVE",
"3 206 LINE",
"22 60 OFFCURVE",
"104 -15 OFFCURVE",
"246 -15 CURVE SMOOTH"
);
}
);
};
layerId = "0A1AFE58-107D-4787-BDA0-D82FB635C3A6";
paths = (
{
closed = 1;
nodes = (
"391 -15 OFFCURVE",
"485 54 OFFCURVE",
"485 265 CURVE SMOOTH",
"485 710 LINE",
"425 710 LINE",
"425 263 LINE SMOOTH",
"425 73 OFFCURVE",
"354 36 OFFCURVE",
"245 36 CURVE SMOOTH",
"140 36 OFFCURVE",
"80 89 OFFCURVE",
"74 206 CURVE",
"15 206 LINE",
"24 60 OFFCURVE",
"104 -15 OFFCURVE",
"246 -15 CURVE SMOOTH"
);
}
);
userData = {
RMXScaler = {
height = 97.30000;
width = 97.30000;
};
};
width = 595;
},
{
anchors = (
{
name = top;
position = "{493, 710}";
}
);
background = {
paths = (
{
closed = 1;
nodes = (
"499 -15 OFFCURVE",
"601 84 OFFCURVE",
"601 284 CURVE SMOOTH",
"601 710 LINE",
"381 710 LINE",
"381 273 LINE SMOOTH",
"381 192 OFFCURVE",
"357 158 OFFCURVE",
"299 158 CURVE SMOOTH",
"238 158 OFFCURVE",
"216 187 OFFCURVE",
"211 274 CURVE",
"0 274 LINE",
"5 69 OFFCURVE",
"98 -15 OFFCURVE",
"302 -15 CURVE SMOOTH"
);
}
);
};
layerId = "84435905-EDCB-4949-A8A3-0E53308A2F50";
paths = (
{
closed = 1;
nodes = (
"499 -15 OFFCURVE",
"601 74 OFFCURVE",
"601 274 CURVE SMOOTH",
"601 710 LINE",
"381 710 LINE",
"381 273 LINE SMOOTH",
"381 192 OFFCURVE",
"357 158 OFFCURVE",
"299 158 CURVE SMOOTH",
"243 158 OFFCURVE",
"221 187 OFFCURVE",
"216 274 CURVE",
"5 274 LINE",
"10 69 OFFCURVE",
"103 -15 OFFCURVE",
"302 -15 CURVE SMOOTH"
);
}
);
width = 664;
}
);
rightMetricsKey = U;
unicode = 004A;
userData = {
RMXScaler = {
source = J;
};
};
},
{
glyphname = K;
lastChange = "2017-09-26 09:08:10 +0000";
layers = (
{
anchors = (
{
name = bottom;
position = "{379, 0}";
},
{
name = top;
position = "{375, 710}";
}
);
background = {
paths = (
{
closed = 1;
nodes = (
"301 294 LINE",
"702 710 LINE",
"528 710 LINE",
"249 412 LINE",
"224 412 LINE",
"224 294 LINE"
);
},
{
closed = 1;
nodes = (
"243 0 LINE",
"243 710 LINE",
"95 710 LINE",
"95 0 LINE"
);
},
{
closed = 1;
nodes = (
"708 0 LINE",
"370 412 LINE",
"256 336 LINE",
"538 0 LINE"
);
}
);
};
layerId = "C76CAC8E-7AD6-478C-8F7E-02FEF6F1EA84";
paths = (
{
closed = 1;
nodes = (
"309 304 LINE",
"702 710 LINE",
"523 710 LINE",
"249 422 LINE",
"224 422 LINE",
"224 304 LINE"
);
},
{
closed = 1;
nodes = (
"243 0 LINE",
"243 710 LINE",
"95 710 LINE",
"95 0 LINE"
);
},
{
closed = 1;
nodes = (
"708 0 LINE",
"322 422 LINE",
"208 346 LINE",
"532 0 LINE"
);
}
);
width = 713;
},
{
anchors = (
{
name = bottom;
position = "{354, 0}";
},
{
name = top;
position = "{355, 710}";
}
);
background = {
paths = (
{
closed = 1;
nodes = (
"202 336 LINE",
"622 710 LINE",
"544 710 LINE",
"183 386 LINE",
"158 386 LINE",
"158 336 LINE"
);
},
{
closed = 1;
nodes = (
"180 0 LINE",
"180 710 LINE",
"120 710 LINE",
"120 0 LINE"
);
},
{
closed = 1;
nodes = (
"632 0 LINE",
"224 391 LINE",
"186 350 LINE",
"554 0 LINE"
);
}
);
};
layerId = "0A1AFE58-107D-4787-BDA0-D82FB635C3A6";
paths = (
{
closed = 1;
nodes = (
"202 336 LINE",
"622 710 LINE",
"544 710 LINE",
"183 386 LINE",
"158 386 LINE",
"158 336 LINE"
);
},
{
closed = 1;
nodes = (
"180 0 LINE",
"180 710 LINE",
"120 710 LINE",
"120 0 LINE"
);
},
{
closed = 1;
nodes = (
"632 0 LINE",
"206 391 LINE",
"168 350 LINE",
"554 0 LINE"
);
}
);
userData = {
RMXScaler = {
height = 97.30000;
width = 97.30000;
};
};
width = 642;
},
{
anchors = (
{
name = bottom;
position = "{394, 0}";
},
{
name = top;
position = "{395, 710}";
}
);
background = {
paths = (
{
closed = 1;
nodes = (
"413 269 LINE",
"745 710 LINE",
"513 710 LINE",
"301 422 LINE",
"259 422 LINE",
"259 269 LINE"
);
},
{
closed = 1;
nodes = (
"292 0 LINE",
"292 710 LINE",
"73 710 LINE",
"73 0 LINE"
);
},
{
closed = 1;
nodes = (
"751 0 LINE",
"491 425 LINE",
"316 322 LINE",
"517 0 LINE"
);
}
);
};
layerId = "84435905-EDCB-4949-A8A3-0E53308A2F50";
paths = (
{
closed = 1;
nodes = (
"410 279 LINE",
"745 710 LINE",
"505 710 LINE",
"301 432 LINE",
"259 432 LINE",
"259 279 LINE"
);
},
{
closed = 1;
nodes = (
"292 0 LINE",
"292 710 LINE",
"73 710 LINE",
"73 0 LINE"
);
},
{
closed = 1;
nodes = (
"751 0 LINE",
"429 435 LINE",
"256 332 LINE",
"503 0 LINE"
);
}
);
width = 756;
}
);
leftMetricsKey = H;
unicode = 004B;
userData = {
RMXScaler = {
source = K;
};
};
},
{
glyphname = L;
lastChange = "2017-09-19 12:32:12 +0000";
layers = (
{
anchors = (
{
name = bottom;
position = "{339, 0}";
},
{
name = periodcentered;
position = "{430, 370}";
},
{
name = top;
position = "{170, 710}";
},
{
name = topright;
position = "{394, 475}";
}
);
background = {
paths = (
{
closed = 1;
nodes = (
"236 0 LINE",
"236 670 LINE",
"88 670 LINE",
"88 0 LINE"
);
},
{
closed = 1;
nodes = (
"541 0 LINE",
"541 125 LINE",
"183 125 LINE",
"183 0 LINE"
);
}
);
};
layerId = "C76CAC8E-7AD6-478C-8F7E-02FEF6F1EA84";
paths = (
{
closed = 1;
nodes = (
"243 0 LINE",
"243 710 LINE",
"95 710 LINE",
"95 0 LINE"
);
},
{
closed = 1;
nodes = (
"568 0 LINE",
"568 125 LINE",
"192 125 LINE",
"192 0 LINE"
);
}
);
width = 593;
},
{
anchors = (
{
name = bottom;
position = "{334, 0}";
},
{
name = periodcentered;
position = "{380, 370}";
},
{
name = top;
position = "{151, 710}";
},
{
name = topright;
position = "{329, 464}";
}
);
background = {
paths = (
{
closed = 1;
nodes = (
"172 0 LINE",
"172 670 LINE",
"112 670 LINE",
"112 0 LINE"
);
},
{
closed = 1;
nodes = (
"512 0 LINE",
"512 54 LINE",
"167 54 LINE",
"167 0 LINE"
);
}
);
};
layerId = "0A1AFE58-107D-4787-BDA0-D82FB635C3A6";
paths = (
{
closed = 1;
nodes = (
"180 0 LINE",
"180 710 LINE",
"120 710 LINE",
"120 0 LINE"
);
},
{
closed = 1;
nodes = (
"524 0 LINE",
"524 53 LINE",
"167 53 LINE",
"167 0 LINE"
);
}
);
userData = {
RMXScaler = {
height = 97.30000;
width = 97.30000;
};
};
width = 534;
},
{
anchors = (
{
name = bottom;
position = "{334, 0}";
},
{
name = periodcentered;
position = "{418, 370}";
},
{
name = top;
position = "{179, 710}";
},
{
name = topright;
position = "{419, 484}";
}
);
background = {
paths = (
{
closed = 1;
nodes = (
"282 0 LINE",
"282 670 LINE",
"68 670 LINE",
"68 0 LINE"
);
},
{
closed = 1;
nodes = (
"556 0 LINE",
"556 173 LINE",
"183 173 LINE",
"183 0 LINE"
);
}
);
};
layerId = "84435905-EDCB-4949-A8A3-0E53308A2F50";
paths = (
{
closed = 1;
nodes = (
"293 0 LINE",
"293 710 LINE",
"73 710 LINE",
"73 0 LINE"
);
},
{
closed = 1;
nodes = (
"583 0 LINE",
"583 174 LINE",
"191 174 LINE",
"191 0 LINE"
);
}
);
width = 597;
}
);
leftMetricsKey = "=H";
unicode = 004C;
userData = {
RMXScaler = {
source = L;
};
};
},
{
glyphname = M;
lastChange = "2017-09-19 12:32:12 +0000";
layers = (
{
background = {
paths = (
{
closed = 1;
nodes = (
"684 710 LINE",
"502 175 LINE",
"494 175 LINE",
"312 710 LINE",
"95 710 LINE",
"95 0 LINE",
"231 0 LINE",
"231 580 LINE",
"216 557 LINE",
"239 557 LINE",
"431 0 LINE",
"565 0 LINE",
"758 557 LINE",
"781 557 LINE",
"765 580 LINE",
"765 0 LINE",
"901 0 LINE",
"901 710 LINE"
);
}
);
};
layerId = "C76CAC8E-7AD6-478C-8F7E-02FEF6F1EA84";
paths = (
{
closed = 1;
nodes = (
"684 710 LINE",
"502 175 LINE",
"494 175 LINE",
"312 710 LINE",
"95 710 LINE",
"95 0 LINE",
"231 0 LINE",
"231 557 LINE",
"239 557 LINE",
"431 0 LINE",
"565 0 LINE",
"757 557 LINE",
"765 557 LINE",
"765 0 LINE",
"901 0 LINE",
"901 710 LINE"
);
}
);
width = 996;
},
{
background = {
paths = (
{
closed = 1;
nodes = (
"722 710 LINE",
"473 68 LINE",
"466 68 LINE",
"216 710 LINE",
"120 710 LINE",
"120 0 LINE",
"176 0 LINE",
"176 653 LINE",
"166 645 LINE",
"184 645 LINE",
"437 0 LINE",
"500 0 LINE",
"755 645 LINE",
"774 645 LINE",
"761 666 LINE",
"761 0 LINE",
"817 0 LINE",
"817 710 LINE"
);
}
);
};
layerId = "0A1AFE58-107D-4787-BDA0-D82FB635C3A6";
paths = (
{
closed = 1;
nodes = (
"722 710 LINE",
"473 68 LINE",
"466 68 LINE",
"215 710 LINE",
"120 710 LINE",
"120 0 LINE",
"176 0 LINE",
"176 645 LINE",
"182 645 LINE",
"437 0 LINE",
"500 0 LINE",
"755 645 LINE",
"761 645 LINE",
"761 0 LINE",
"817 0 LINE",
"817 710 LINE"
);
}
);
userData = {
RMXScaler = {
height = 97.30000;
width = 97.30000;
};
};
width = 937;
},
{
background = {
paths = (
{
closed = 1;
nodes = (
"656 710 LINE",
"518 246 LINE",
"509 246 LINE",
"370 710 LINE",
"73 710 LINE",
"73 0 LINE",
"265 0 LINE",
"265 526 LINE",
"247 500 LINE",
"272 500 LINE",
"428 0 LINE",
"598 0 LINE",
"754 500 LINE",
"780 500 LINE",
"761 518 LINE",
"761 0 LINE",
"953 0 LINE",
"953 710 LINE"
);
}
);
};
layerId = "84435905-EDCB-4949-A8A3-0E53308A2F50";
paths = (
{
closed = 1;
nodes = (
"656 710 LINE",
"518 246 LINE",
"509 246 LINE",
"370 710 LINE",
"73 710 LINE",
"73 0 LINE",
"265 0 LINE",
"265 500 LINE",
"272 500 LINE",
"428 0 LINE",
"598 0 LINE",
"754 500 LINE",
"761 500 LINE",
"761 0 LINE",
"953 0 LINE",
"953 710 LINE"
);
}
);
width = 1026;
}
);
leftMetricsKey = H;
rightMetricsKey = H;
unicode = 004D;
userData = {
RMXScaler = {
source = M;
};
};
},
{
glyphname = N;
lastChange = "2017-09-19 12:32:12 +0000";
layers = (
{
anchors = (
{
name = bottom;
position = "{410, 0}";
},
{
name = top;
position = "{417, 710}";
}
);
background = {
paths = (
{
closed = 1;
nodes = (
"590 218 LINE",
"250 710 LINE",
"95 710 LINE",
"95 0 LINE",
"225 0 LINE",
"225 512 LINE",
"212 492 LINE",
"231 492 LINE",
"570 0 LINE",
"726 0 LINE",
"726 710 LINE",
"596 710 LINE",
"596 189 LINE",
"618 218 LINE"
);
}
);
};
layerId = "C76CAC8E-7AD6-478C-8F7E-02FEF6F1EA84";
paths = (
{
closed = 1;
nodes = (
"590 218 LINE",
"250 710 LINE",
"95 710 LINE",
"95 0 LINE",
"225 0 LINE",
"225 492 LINE",
"231 492 LINE",
"570 0 LINE",
"726 0 LINE",
"726 710 LINE",
"596 710 LINE",
"596 218 LINE"
);
}
);
width = 821;
},
{
anchors = (
{
name = bottom;
position = "{395, 0}";
},
{
name = top;
position = "{401, 710}";
}
);
background = {
paths = (
{
closed = 1;
nodes = (
"613 106 LINE",
"172 710 LINE",
"120 710 LINE",
"120 0 LINE",
"175 0 LINE",
"175 623 LINE",
"167 604 LINE",
"179 604 LINE",
"620 0 LINE",
"672 0 LINE",
"672 710 LINE",
"617 710 LINE",
"617 78 LINE",
"638 106 LINE"
);
}
);
};
layerId = "0A1AFE58-107D-4787-BDA0-D82FB635C3A6";
paths = (
{
closed = 1;
nodes = (
"613 106 LINE",
"172 710 LINE",
"120 710 LINE",
"120 0 LINE",
"175 0 LINE",
"175 604 LINE",
"179 604 LINE",
"620 0 LINE",
"672 0 LINE",
"672 710 LINE",
"617 710 LINE",
"617 106 LINE"
);
}
);
userData = {
RMXScaler = {
height = 97.30000;
width = 97.30000;
};
};
width = 792;
},
{
anchors = (
{
name = bottom;
position = "{420, 0}";
},
{
name = top;
position = "{422, 710}";
}
);
background = {
paths = (
{
closed = 1;
nodes = (
"559 289 LINE",
"312 710 LINE",
"73 710 LINE",
"73 0 LINE",
"258 0 LINE",
"258 449 LINE",
"236 423 LINE",
"265 423 LINE",
"513 0 LINE",
"751 0 LINE",
"751 710 LINE",
"566 710 LINE",
"566 264 LINE",
"588 289 LINE"
);
}
);
};
layerId = "84435905-EDCB-4949-A8A3-0E53308A2F50";
paths = (
{
closed = 1;
nodes = (
"559 289 LINE",
"312 710 LINE",
"73 710 LINE",
"73 0 LINE",
"258 0 LINE",
"258 423 LINE",
"265 423 LINE",
"513 0 LINE",
"751 0 LINE",
"751 710 LINE",
"566 710 LINE",
"566 289 LINE"
);
}
);
width = 824;
}
);
leftMetricsKey = "=H";
rightMetricsKey = "=H";
unicode = 004E;
userData = {
RMXScaler = {
source = N;
};
};
},
{
color = 4;
glyphname = O;
lastChange = "2017-09-25 13:52:46 +0000";
layers = (
{
anchors = (
{
name = bottom;
position = "{411, 0}";
},
{
name = top;
position = "{412, 710}";
}
);
background = {
paths = (
{
closed = 1;
nodes = (
"637 -15 OFFCURVE",
"769 116 OFFCURVE",
"769 355 CURVE SMOOTH",
"769 594 OFFCURVE",
"637 725 OFFCURVE",
"412 725 CURVE SMOOTH",
"187 725 OFFCURVE",
"55 594 OFFCURVE",
"55 355 CURVE SMOOTH",
"55 116 OFFCURVE",
"187 -15 OFFCURVE",
"412 -15 CURVE SMOOTH"
);
},
{
closed = 1;
nodes = (
"271 110 OFFCURVE",
"208 202 OFFCURVE",
"208 355 CURVE SMOOTH",
"208 508 OFFCURVE",
"271 600 OFFCURVE",
"412 600 CURVE SMOOTH",
"553 600 OFFCURVE",
"616 508 OFFCURVE",
"616 355 CURVE SMOOTH",
"616 202 OFFCURVE",
"553 110 OFFCURVE",
"412 110 CURVE SMOOTH"
);
}
);
};
layerId = "C76CAC8E-7AD6-478C-8F7E-02FEF6F1EA84";
paths = (
{
closed = 1;
nodes = (
"640 -15 OFFCURVE",
"769 119 OFFCURVE",
"769 355 CURVE SMOOTH",
"769 591 OFFCURVE",
"640 725 OFFCURVE",
"412 725 CURVE SMOOTH",
"184 725 OFFCURVE",
"55 591 OFFCURVE",
"55 355 CURVE SMOOTH",
"55 119 OFFCURVE",
"184 -15 OFFCURVE",
"412 -15 CURVE SMOOTH"
);
},
{
closed = 1;
nodes = (
"278 110 OFFCURVE",
"208 194 OFFCURVE",
"208 355 CURVE SMOOTH",
"208 516 OFFCURVE",
"278 600 OFFCURVE",
"412 600 CURVE SMOOTH",
"546 600 OFFCURVE",
"616 516 OFFCURVE",
"616 355 CURVE SMOOTH",
"616 194 OFFCURVE",
"546 110 OFFCURVE",
"412 110 CURVE SMOOTH"
);
}
);
width = 824;
},
{
anchors = (
{
name = bottom;
position = "{396, 0}";
},
{
name = top;
position = "{397, 710}";
}
);
background = {
paths = (
{
closed = 1;
nodes = (
"600 -16 OFFCURVE",
"722 122 OFFCURVE",
"722 355 CURVE SMOOTH",
"722 587 OFFCURVE",
"600 725 OFFCURVE",
"396 725 CURVE SMOOTH",
"192 725 OFFCURVE",
"70 587 OFFCURVE",
"70 355 CURVE SMOOTH",
"70 122 OFFCURVE",
"192 -16 OFFCURVE",
"396 -16 CURVE SMOOTH"
);
},
{
closed = 1;
nodes = (
"226 38 OFFCURVE",
"132 149 OFFCURVE",
"132 355 CURVE SMOOTH",
"132 560 OFFCURVE",
"226 671 OFFCURVE",
"396 671 CURVE SMOOTH",
"566 671 OFFCURVE",
"660 560 OFFCURVE",
"660 355 CURVE SMOOTH",
"660 149 OFFCURVE",
"566 38 OFFCURVE",
"396 38 CURVE SMOOTH"
);
}
);
};
layerId = "0A1AFE58-107D-4787-BDA0-D82FB635C3A6";
paths = (
{
closed = 1;
nodes = (
"600 -15 OFFCURVE",
"722 123 OFFCURVE",
"722 355 CURVE SMOOTH",
"722 587 OFFCURVE",
"600 725 OFFCURVE",
"396 725 CURVE SMOOTH",
"192 725 OFFCURVE",
"70 587 OFFCURVE",
"70 355 CURVE SMOOTH",
"70 123 OFFCURVE",
"192 -15 OFFCURVE",
"396 -15 CURVE SMOOTH"
);
},
{
closed = 1;
nodes = (
"226 39 OFFCURVE",
"132 150 OFFCURVE",
"132 355 CURVE SMOOTH",
"132 560 OFFCURVE",
"226 671 OFFCURVE",
"396 671 CURVE SMOOTH",
"566 671 OFFCURVE",
"660 560 OFFCURVE",
"660 355 CURVE SMOOTH",
"660 150 OFFCURVE",
"566 39 OFFCURVE",
"396 39 CURVE SMOOTH"
);
}
);
userData = {
RMXScaler = {
height = 97.30000;
width = 97.30000;
};
};
width = 792;
},
{
anchors = (
{
name = bottom;
position = "{406, 0}";
},
{
name = top;
position = "{406, 710}";
}
);
background = {
paths = (
{
closed = 1;
nodes = (
"648 -15 OFFCURVE",
"774 117 OFFCURVE",
"774 355 CURVE SMOOTH",
"774 593 OFFCURVE",
"648 725 OFFCURVE",
"406 725 CURVE SMOOTH",
"166 725 OFFCURVE",
"41 593 OFFCURVE",
"41 355 CURVE SMOOTH",
"41 117 OFFCURVE",
"166 -15 OFFCURVE",
"406 -15 CURVE SMOOTH"
);
},
{
closed = 1;
nodes = (
"302 158 OFFCURVE",
"264 231 OFFCURVE",
"264 355 CURVE SMOOTH",
"264 479 OFFCURVE",
"302 552 OFFCURVE",
"406 552 CURVE SMOOTH",
"514 552 OFFCURVE",
"551 479 OFFCURVE",
"551 355 CURVE SMOOTH",
"551 231 OFFCURVE",
"514 158 OFFCURVE",
"406 158 CURVE SMOOTH"
);
}
);
};
layerId = "84435905-EDCB-4949-A8A3-0E53308A2F50";
paths = (
{
closed = 1;
nodes = (
"647 -15 OFFCURVE",
"774 117 OFFCURVE",
"774 355 CURVE SMOOTH",
"774 593 OFFCURVE",
"647 725 OFFCURVE",
"407 725 CURVE SMOOTH",
"167 725 OFFCURVE",
"40 593 OFFCURVE",
"40 355 CURVE SMOOTH",
"40 117 OFFCURVE",
"167 -15 OFFCURVE",
"407 -15 CURVE SMOOTH"
);
},
{
closed = 1;
nodes = (
"301 158 OFFCURVE",
"263 231 OFFCURVE",
"263 355 CURVE SMOOTH",
"263 479 OFFCURVE",
"301 552 OFFCURVE",
"407 552 CURVE SMOOTH",
"513 552 OFFCURVE",
"551 479 OFFCURVE",
"551 355 CURVE SMOOTH",
"551 231 OFFCURVE",
"513 158 OFFCURVE",
"407 158 CURVE SMOOTH"
);
}
);
width = 814;
}
);
unicode = 004F;
userData = {
RMXScaler = {
source = O;
};
};
},
{
glyphname = P;
lastChange = "2017-09-25 14:54:40 +0000";
layers = (
{
background = {
paths = (
{
closed = 1;
nodes = (
"236 0 LINE",
"236 670 LINE",
"88 670 LINE",
"88 0 LINE"
);
},
{
closed = 1;
nodes = (
"218 354 LINE",
"218 234 LINE",
"401 234 LINE SMOOTH",
"579 234 OFFCURVE",
"648 318 OFFCURVE",
"648 452 CURVE SMOOTH",
"648 587 OFFCURVE",
"579 670 OFFCURVE",
"401 670 CURVE SMOOTH",
"218 670 LINE",
"218 545 LINE",
"366 545 LINE SMOOTH",
"463 545 OFFCURVE",
"505 527 OFFCURVE",
"505 452 CURVE SMOOTH",
"505 377 OFFCURVE",
"463 354 OFFCURVE",
"366 354 CURVE SMOOTH"
);
}
);
};
layerId = "C76CAC8E-7AD6-478C-8F7E-02FEF6F1EA84";
paths = (
{
closed = 1;
nodes = (
"243 0 LINE",
"243 710 LINE",
"95 710 LINE",
"95 0 LINE"
);
},
{
closed = 1;
nodes = (
"224 374 LINE",
"224 254 LINE",
"418 254 LINE SMOOTH",
"608 254 OFFCURVE",
"681 341 OFFCURVE",
"681 482 CURVE SMOOTH",
"681 626 OFFCURVE",
"607 710 OFFCURVE",
"422 710 CURVE SMOOTH",
"224 710 LINE",
"224 588 LINE",
"388 588 LINE SMOOTH",
"494 588 OFFCURVE",
"538 566 OFFCURVE",
"538 483 CURVE SMOOTH",
"538 400 OFFCURVE",
"494 374 OFFCURVE",
"386 374 CURVE SMOOTH"
);
}
);
width = 719;
},
{
background = {
paths = (
{
closed = 1;
nodes = (
"180 0 LINE",
"180 710 LINE",
"120 710 LINE",
"120 0 LINE"
);
},
{
closed = 1;
nodes = (
"160 351 LINE",
"160 300 LINE",
"365 300 LINE SMOOTH",
"564 300 OFFCURVE",
"629 374 OFFCURVE",
"629 505 CURVE SMOOTH",
"629 647 OFFCURVE",
"547 710 OFFCURVE",
"390 710 CURVE SMOOTH",
"160 710 LINE",
"160 658 LINE",
"376 658 LINE SMOOTH",
"524 658 OFFCURVE",
"572 613 OFFCURVE",
"572 503 CURVE SMOOTH",
"572 393 OFFCURVE",
"524 351 OFFCURVE",
"363 351 CURVE SMOOTH"
);
}
);
};
layerId = "0A1AFE58-107D-4787-BDA0-D82FB635C3A6";
paths = (
{
closed = 1;
nodes = (
"180 0 LINE",
"180 710 LINE",
"120 710 LINE",
"120 0 LINE"
);
},
{
closed = 1;
nodes = (
"160 350 LINE",
"160 299 LINE",
"390 299 LINE SMOOTH",
"547 299 OFFCURVE",
"629 365 OFFCURVE",
"629 505 CURVE SMOOTH",
"629 645 OFFCURVE",
"547 710 OFFCURVE",
"390 710 CURVE SMOOTH",
"160 710 LINE",
"160 657 LINE",
"375 657 LINE SMOOTH",
"523 657 OFFCURVE",
"572 614 OFFCURVE",
"572 504 CURVE SMOOTH",
"572 394 OFFCURVE",
"523 350 OFFCURVE",
"375 350 CURVE SMOOTH"
);
}
);
userData = {
RMXScaler = {
height = 97.30000;
width = 97.30000;
};
};
width = 674;
},
{
background = {
paths = (
{
closed = 1;
nodes = (
"282 0 LINE",
"282 670 LINE",
"68 670 LINE",
"68 0 LINE"
);
},
{
closed = 1;
nodes = (
"264 358 LINE",
"264 204 LINE",
"418 204 LINE SMOOTH",
"599 204 OFFCURVE",
"678 292 OFFCURVE",
"678 435 CURVE SMOOTH",
"678 587 OFFCURVE",
"599 670 OFFCURVE",
"427 670 CURVE SMOOTH",
"264 670 LINE",
"264 510 LINE",
"392 510 LINE SMOOTH",
"450 510 OFFCURVE",
"473 488 OFFCURVE",
"473 435 CURVE SMOOTH",
"473 381 OFFCURVE",
"450 358 OFFCURVE",
"392 358 CURVE SMOOTH"
);
}
);
};
layerId = "84435905-EDCB-4949-A8A3-0E53308A2F50";
paths = (
{
closed = 1;
nodes = (
"293 0 LINE",
"293 710 LINE",
"73 710 LINE",
"73 0 LINE"
);
},
{
closed = 1;
nodes = (
"274 381 LINE",
"274 227 LINE",
"441 227 LINE SMOOTH",
"632 227 OFFCURVE",
"715 315 OFFCURVE",
"715 464 CURVE SMOOTH",
"715 622 OFFCURVE",
"632 710 OFFCURVE",
"450 710 CURVE SMOOTH",
"274 710 LINE",
"274 551 LINE",
"410 551 LINE SMOOTH",
"479 551 OFFCURVE",
"506 528 OFFCURVE",
"506 468 CURVE SMOOTH",
"506 406 OFFCURVE",
"479 381 OFFCURVE",
"410 381 CURVE SMOOTH"
);
}
);
width = 743;
}
);
leftMetricsKey = H;
unicode = 0050;
userData = {
RMXScaler = {
source = P;
};
};
},
{
color = 0;
glyphname = Q;
lastChange = "2017-09-19 15:27:27 +0000";
layers = (
{
background = {
paths = (
{
closed = 1;
nodes = (
"747 -97 LINE",
"604 92 LINE",
"579 92 LINE",
"468 237 LINE",
"331 237 LINE",
"489 19 LINE",
"513 19 LINE",
"602 -97 LINE"
);
},
{
closed = 1;
nodes = (
"636 -15 OFFCURVE",
"768 116 OFFCURVE",
"768 356 CURVE SMOOTH",
"768 596 OFFCURVE",
"636 725 OFFCURVE",
"412 725 CURVE SMOOTH",
"187 725 OFFCURVE",
"55 596 OFFCURVE",
"55 356 CURVE SMOOTH",
"55 116 OFFCURVE",
"187 -15 OFFCURVE",
"412 -15 CURVE SMOOTH"
);
},
{
closed = 1;
nodes = (
"271 110 OFFCURVE",
"208 200 OFFCURVE",
"208 356 CURVE SMOOTH",
"208 510 OFFCURVE",
"271 600 OFFCURVE",
"412 600 CURVE SMOOTH",
"552 600 OFFCURVE",
"616 510 OFFCURVE",
"616 356 CURVE SMOOTH",
"616 200 OFFCURVE",
"552 110 OFFCURVE",
"412 110 CURVE SMOOTH"
);
}
);
};
layerId = "C76CAC8E-7AD6-478C-8F7E-02FEF6F1EA84";
paths = (
{
closed = 1;
nodes = (
"747 -97 LINE",
"604 92 LINE",
"579 92 LINE",
"478 237 LINE",
"341 237 LINE",
"489 19 LINE",
"513 19 LINE",
"602 -97 LINE"
);
},
{
closed = 1;
nodes = (
"636 -15 OFFCURVE",
"768 116 OFFCURVE",
"768 356 CURVE SMOOTH",
"768 596 OFFCURVE",
"636 725 OFFCURVE",
"412 725 CURVE SMOOTH",
"187 725 OFFCURVE",
"55 596 OFFCURVE",
"55 356 CURVE SMOOTH",
"55 116 OFFCURVE",
"187 -15 OFFCURVE",
"412 -15 CURVE SMOOTH"
);
},
{
closed = 1;
nodes = (
"271 110 OFFCURVE",
"208 200 OFFCURVE",
"208 356 CURVE SMOOTH",
"208 510 OFFCURVE",
"271 600 OFFCURVE",
"412 600 CURVE SMOOTH",
"552 600 OFFCURVE",
"616 510 OFFCURVE",
"616 356 CURVE SMOOTH",
"616 200 OFFCURVE",
"552 110 OFFCURVE",
"412 110 CURVE SMOOTH"
);
}
);
width = 823;
},
{
background = {
paths = (
{
closed = 1;
nodes = (
"688 -106 LINE",
"564 44 LINE",
"558 44 LINE",
"414 213 LINE",
"350 213 LINE",
"514 17 LINE",
"521 17 LINE",
"624 -106 LINE"
);
},
{
closed = 1;
nodes = (
"600 -15 OFFCURVE",
"722 123 OFFCURVE",
"722 355 CURVE SMOOTH",
"722 587 OFFCURVE",
"600 725 OFFCURVE",
"396 725 CURVE SMOOTH",
"192 725 OFFCURVE",
"70 587 OFFCURVE",
"70 355 CURVE SMOOTH",
"70 123 OFFCURVE",
"192 -15 OFFCURVE",
"396 -15 CURVE SMOOTH"
);
},
{
closed = 1;
nodes = (
"225 37 OFFCURVE",
"131 149 OFFCURVE",
"131 355 CURVE SMOOTH",
"131 561 OFFCURVE",
"225 673 OFFCURVE",
"396 673 CURVE SMOOTH",
"567 673 OFFCURVE",
"661 561 OFFCURVE",
"661 355 CURVE SMOOTH",
"661 149 OFFCURVE",
"567 37 OFFCURVE",
"396 37 CURVE SMOOTH"
);
}
);
};
guideLines = (
{
angle = 223.2721;
position = "{530, -76}";
showMeasurement = 1;
}
);
layerId = "0A1AFE58-107D-4787-BDA0-D82FB635C3A6";
paths = (
{
closed = 1;
nodes = (
"690 -106 LINE",
"567 44 LINE",
"562 44 LINE",
"424 213 LINE",
"358 213 LINE",
"519 17 LINE",
"524 17 LINE",
"624 -106 LINE"
);
},
{
closed = 1;
nodes = (
"600 -15 OFFCURVE",
"722 123 OFFCURVE",
"722 355 CURVE SMOOTH",
"722 587 OFFCURVE",
"600 725 OFFCURVE",
"396 725 CURVE SMOOTH",
"192 725 OFFCURVE",
"70 587 OFFCURVE",
"70 355 CURVE SMOOTH",
"70 123 OFFCURVE",
"192 -15 OFFCURVE",
"396 -15 CURVE SMOOTH"
);
},
{
closed = 1;
nodes = (
"225 37 OFFCURVE",
"131 149 OFFCURVE",
"131 355 CURVE SMOOTH",
"131 561 OFFCURVE",
"225 673 OFFCURVE",
"396 673 CURVE SMOOTH",
"567 673 OFFCURVE",
"661 561 OFFCURVE",
"661 355 CURVE SMOOTH",
"661 149 OFFCURVE",
"567 37 OFFCURVE",
"396 37 CURVE SMOOTH"
);
}
);
userData = {
RMXScaler = {
height = 97.30000;
width = 97.30000;
};
};
width = 792;
},
{
background = {
paths = (
{
closed = 1;
nodes = (
"751 -88 LINE",
"611 112 LINE",
"574 112 LINE",
"477 262 LINE",
"317 262 LINE",
"459 34 LINE",
"481 34 LINE",
"570 -88 LINE"
);
},
{
closed = 1;
nodes = (
"647 -15 OFFCURVE",
"771 116 OFFCURVE",
"771 355 CURVE SMOOTH",
"771 595 OFFCURVE",
"647 725 OFFCURVE",
"405 725 CURVE SMOOTH",
"165 725 OFFCURVE",
"40 595 OFFCURVE",
"40 355 CURVE SMOOTH",
"40 116 OFFCURVE",
"165 -15 OFFCURVE",
"405 -15 CURVE SMOOTH"
);
},
{
closed = 1;
nodes = (
"294 155 OFFCURVE",
"258 222 OFFCURVE",
"258 355 CURVE SMOOTH",
"258 481 OFFCURVE",
"294 553 OFFCURVE",
"405 553 CURVE SMOOTH",
"519 553 OFFCURVE",
"553 481 OFFCURVE",
"553 355 CURVE SMOOTH",
"553 222 OFFCURVE",
"519 155 OFFCURVE",
"405 155 CURVE SMOOTH"
);
}
);
};
layerId = "84435905-EDCB-4949-A8A3-0E53308A2F50";
paths = (
{
closed = 1;
nodes = (
"751 -88 LINE",
"611 112 LINE",
"584 112 LINE",
"487 262 LINE",
"327 262 LINE",
"459 34 LINE",
"481 34 LINE",
"570 -88 LINE"
);
},
{
closed = 1;
nodes = (
"647 -15 OFFCURVE",
"771 116 OFFCURVE",
"771 355 CURVE SMOOTH",
"771 595 OFFCURVE",
"647 725 OFFCURVE",
"405 725 CURVE SMOOTH",
"165 725 OFFCURVE",
"40 595 OFFCURVE",
"40 355 CURVE SMOOTH",
"40 116 OFFCURVE",
"165 -15 OFFCURVE",
"405 -15 CURVE SMOOTH"
);
},
{
closed = 1;
nodes = (
"294 155 OFFCURVE",
"258 222 OFFCURVE",
"258 355 CURVE SMOOTH",
"258 481 OFFCURVE",
"294 553 OFFCURVE",
"405 553 CURVE SMOOTH",
"519 553 OFFCURVE",
"553 481 OFFCURVE",
"553 355 CURVE SMOOTH",
"553 222 OFFCURVE",
"519 155 OFFCURVE",
"405 155 CURVE SMOOTH"
);
}
);
width = 811;
}
);
leftMetricsKey = O;
rightMetricsKey = O;
unicode = 0051;
userData = {
RMXScaler = {
source = Q;
};
};
},
{
color = 4;
glyphname = R;
lastChange = "2017-09-19 15:19:41 +0000";
layers = (
{
anchors = (
{
name = bottom;
position = "{380, 0}";
},
{
name = top;
position = "{377, 710}";
}
);
background = {
paths = (
{
closed = 1;
nodes = (
"243 0 LINE",
"243 710 LINE",
"95 710 LINE",
"95 0 LINE"
);
},
{
closed = 1;
nodes = (
"224 385 LINE",
"224 270 LINE",
"404 270 LINE SMOOTH",
"604 270 OFFCURVE",
"687 355 OFFCURVE",
"687 488 CURVE SMOOTH",
"687 626 OFFCURVE",
"611 710 OFFCURVE",
"426 710 CURVE SMOOTH",
"224 710 LINE",
"224 588 LINE",
"393 588 LINE SMOOTH",
"499 588 OFFCURVE",
"544 566 OFFCURVE",
"544 489 CURVE SMOOTH",
"544 413 OFFCURVE",
"499 385 OFFCURVE",
"392 385 CURVE SMOOTH"
);
},
{
closed = 1;
nodes = (
"686 0 LINE",
"464 331 LINE",
"307 331 LINE",
"521 0 LINE"
);
}
);
};
layerId = "C76CAC8E-7AD6-478C-8F7E-02FEF6F1EA84";
paths = (
{
closed = 1;
nodes = (
"224 385 LINE",
"224 270 LINE",
"404 270 LINE SMOOTH",
"604 270 OFFCURVE",
"687 355 OFFCURVE",
"687 488 CURVE SMOOTH",
"687 626 OFFCURVE",
"611 710 OFFCURVE",
"426 710 CURVE SMOOTH",
"224 710 LINE",
"224 588 LINE",
"393 588 LINE SMOOTH",
"499 588 OFFCURVE",
"544 566 OFFCURVE",
"544 489 CURVE SMOOTH",
"544 413 OFFCURVE",
"499 385 OFFCURVE",
"392 385 CURVE SMOOTH"
);
},
{
closed = 1;
nodes = (
"686 0 LINE",
"464 331 LINE",
"307 331 LINE",
"521 0 LINE"
);
},
{
closed = 1;
nodes = (
"243 0 LINE",
"243 710 LINE",
"95 710 LINE",
"95 0 LINE"
);
}
);
width = 747;
},
{
anchors = (
{
name = bottom;
position = "{355, 0}";
},
{
name = top;
position = "{352, 710}";
}
);
background = {
anchors = (
{
name = bottom;
position = "{355, 0}";
},
{
name = top;
position = "{352, 710}";
}
);
paths = (
{
closed = 1;
nodes = (
"161 364 LINE",
"161 314 LINE",
"374 314 LINE SMOOTH",
"582 314 OFFCURVE",
"634 410 OFFCURVE",
"634 510 CURVE SMOOTH",
"634 647 OFFCURVE",
"552 710 OFFCURVE",
"395 710 CURVE SMOOTH",
"161 710 LINE",
"161 658 LINE",
"381 658 LINE SMOOTH",
"528 658 OFFCURVE",
"577 615 OFFCURVE",
"577 510 CURVE SMOOTH",
"577 418 OFFCURVE",
"528 364 OFFCURVE",
"369 364 CURVE SMOOTH"
);
},
{
closed = 1;
nodes = (
"621 0 LINE",
"363 328 LINE",
"296 328 LINE",
"550 0 LINE"
);
},
{
closed = 1;
nodes = (
"180 0 LINE",
"180 710 LINE",
"120 710 LINE",
"120 0 LINE"
);
}
);
};
layerId = "0A1AFE58-107D-4787-BDA0-D82FB635C3A6";
paths = (
{
closed = 1;
nodes = (
"161 363 LINE",
"161 314 LINE",
"390 314 LINE SMOOTH",
"543 314 OFFCURVE",
"621 378 OFFCURVE",
"621 511 CURVE SMOOTH",
"621 646 OFFCURVE",
"544 710 OFFCURVE",
"395 710 CURVE SMOOTH",
"161 710 LINE",
"161 659 LINE",
"387 659 LINE SMOOTH",
"514 659 OFFCURVE",
"563 619 OFFCURVE",
"563 511 CURVE SMOOTH",
"563 404 OFFCURVE",
"513 363 OFFCURVE",
"384 363 CURVE SMOOTH"
);
},
{
closed = 1;
nodes = (
"627 0 LINE",
"365 328 LINE",
"296 328 LINE",
"555 0 LINE"
);
},
{
closed = 1;
nodes = (
"180 0 LINE",
"180 710 LINE",
"120 710 LINE",
"120 0 LINE"
);
}
);
userData = {
RMXScaler = {
height = 97.30000;
width = 97.30000;
};
};
width = 695;
},
{
anchors = (
{
name = bottom;
position = "{385, 0}";
},
{
name = top;
position = "{382, 710}";
}
);
background = {
paths = (
{
closed = 1;
nodes = (
"292 0 LINE",
"292 710 LINE",
"73 710 LINE",
"73 0 LINE"
);
},
{
closed = 1;
nodes = (
"273 393 LINE",
"273 249 LINE",
"437 249 LINE SMOOTH",
"632 249 OFFCURVE",
"716 329 OFFCURVE",
"716 477 CURVE SMOOTH",
"716 626 OFFCURVE",
"634 710 OFFCURVE",
"450 710 CURVE SMOOTH",
"273 710 LINE",
"273 551 LINE",
"412 551 LINE SMOOTH",
"481 551 OFFCURVE",
"507 527 OFFCURVE",
"507 472 CURVE SMOOTH",
"507 418 OFFCURVE",
"481 393 OFFCURVE",
"411 393 CURVE SMOOTH"
);
},
{
closed = 1;
nodes = (
"735 0 LINE",
"530 320 LINE",
"305 320 LINE",
"502 0 LINE"
);
}
);
};
layerId = "84435905-EDCB-4949-A8A3-0E53308A2F50";
paths = (
{
closed = 1;
nodes = (
"273 393 LINE",
"273 249 LINE",
"437 249 LINE SMOOTH",
"632 249 OFFCURVE",
"716 329 OFFCURVE",
"716 477 CURVE SMOOTH",
"716 626 OFFCURVE",
"634 710 OFFCURVE",
"450 710 CURVE SMOOTH",
"273 710 LINE",
"273 551 LINE",
"412 551 LINE SMOOTH",
"481 551 OFFCURVE",
"507 527 OFFCURVE",
"507 472 CURVE SMOOTH",
"507 418 OFFCURVE",
"481 393 OFFCURVE",
"411 393 CURVE SMOOTH"
);
},
{
closed = 1;
nodes = (
"735 0 LINE",
"530 320 LINE",
"305 320 LINE",
"502 0 LINE"
);
},
{
closed = 1;
nodes = (
"292 0 LINE",
"292 710 LINE",
"73 710 LINE",
"73 0 LINE"
);
}
);
width = 757;
}
);
leftMetricsKey = H;
unicode = 0052;
userData = {
RMXScaler = {
source = R;
};
};
},
{
color = 0;
glyphname = S;
lastChange = "2017-09-20 07:15:47 +0000";
layers = (
{
anchors = (
{
name = bottom;
position = "{361, 0}";
},
{
name = top;
position = "{352, 710}";
}
);
background = {
paths = (
{
closed = 1;
nodes = (
"551 -15 OFFCURVE",
"654 60 OFFCURVE",
"654 198 CURVE SMOOTH",
"654 316 OFFCURVE",
"592 374 OFFCURVE",
"428 407 CURVE SMOOTH",
"343 424 LINE SMOOTH",
"252 442 OFFCURVE",
"217 469 OFFCURVE",
"217 523 CURVE SMOOTH",
"217 578 OFFCURVE",
"256 608 OFFCURVE",
"349 608 CURVE SMOOTH",
"442 608 OFFCURVE",
"490 575 OFFCURVE",
"502 498 CURVE",
"648 498 LINE",
"635 649 OFFCURVE",
"534 725 OFFCURVE",
"352 725 CURVE SMOOTH",
"168 725 OFFCURVE",
"71 652 OFFCURVE",
"71 514 CURVE SMOOTH",
"71 397 OFFCURVE",
"139 334 OFFCURVE",
"294 303 CURVE SMOOTH",
"379 286 LINE SMOOTH",
"477 266 OFFCURVE",
"508 243 OFFCURVE",
"508 189 CURVE SMOOTH",
"508 130 OFFCURVE",
"462 102 OFFCURVE",
"368 102 CURVE SMOOTH",
"270 102 OFFCURVE",
"219 134 OFFCURVE",
"209 200 CURVE",
"60 200 LINE",
"70 62 OFFCURVE",
"177 -15 OFFCURVE",
"363 -15 CURVE SMOOTH"
);
}
);
};
layerId = "C76CAC8E-7AD6-478C-8F7E-02FEF6F1EA84";
paths = (
{
closed = 1;
nodes = (
"551 -15 OFFCURVE",
"654 65 OFFCURVE",
"654 198 CURVE SMOOTH",
"654 316 OFFCURVE",
"592 377 OFFCURVE",
"428 410 CURVE SMOOTH",
"343 427 LINE SMOOTH",
"252 445 OFFCURVE",
"217 469 OFFCURVE",
"217 523 CURVE SMOOTH",
"217 578 OFFCURVE",
"266 608 OFFCURVE",
"349 608 CURVE SMOOTH",
"452 608 OFFCURVE",
"491 585 OFFCURVE",
"503 508 CURVE",
"648 508 LINE",
"635 659 OFFCURVE",
"544 725 OFFCURVE",
"352 725 CURVE SMOOTH",
"173 725 OFFCURVE",
"71 642 OFFCURVE",
"71 514 CURVE SMOOTH",
"71 397 OFFCURVE",
"139 333 OFFCURVE",
"294 302 CURVE SMOOTH",
"379 285 LINE SMOOTH",
"477 265 OFFCURVE",
"508 243 OFFCURVE",
"508 189 CURVE SMOOTH",
"508 130 OFFCURVE",
"452 102 OFFCURVE",
"368 102 CURVE SMOOTH",
"255 102 OFFCURVE",
"216 134 OFFCURVE",
"201 200 CURVE",
"55 200 LINE",
"65 62 OFFCURVE",
"162 -15 OFFCURVE",
"363 -15 CURVE SMOOTH"
);
}
);
width = 709;
},
{
anchors = (
{
name = bottom;
position = "{322, 710}";
},
{
name = top;
position = "{325, 0}";
}
);
background = {
anchors = (
{
name = bottom;
position = "{322, 710}";
},
{
name = top;
position = "{325, 0}";
}
);
paths = (
{
closed = 1;
nodes = (
"486 -15 OFFCURVE",
"580 55 OFFCURVE",
"580 183 CURVE SMOOTH",
"580 294 OFFCURVE",
"506 349 OFFCURVE",
"379 376 CURVE SMOOTH",
"284 396 LINE SMOOTH",
"184 417 OFFCURVE",
"142 471 OFFCURVE",
"142 536 CURVE SMOOTH",
"142 630 OFFCURVE",
"220 675 OFFCURVE",
"320 675 CURVE SMOOTH",
"443 675 OFFCURVE",
"502 638 OFFCURVE",
"524 530 CURVE",
"582 530 LINE",
"562 666 OFFCURVE",
"477 725 OFFCURVE",
"319 725 CURVE SMOOTH",
"171 725 OFFCURVE",
"84 648 OFFCURVE",
"84 533 CURVE SMOOTH",
"84 440 OFFCURVE",
"147 365 OFFCURVE",
"272 340 CURVE SMOOTH",
"367 321 LINE SMOOTH",
"467 301 OFFCURVE",
"522 263 OFFCURVE",
"522 177 CURVE SMOOTH",
"522 86 OFFCURVE",
"452 35 OFFCURVE",
"339 35 CURVE SMOOTH",
"207 35 OFFCURVE",
"141 72 OFFCURVE",
"119 175 CURVE",
"60 175 LINE",
"78 42 OFFCURVE",
"170 -15 OFFCURVE",
"338 -15 CURVE SMOOTH"
);
}
);
};
guideLines = (
{
angle = 77.692;
position = "{311, 351}";
showMeasurement = 1;
},
{
angle = -11.3099;
position = "{384, 376}";
}
);
layerId = "0A1AFE58-107D-4787-BDA0-D82FB635C3A6";
paths = (
{
closed = 1;
nodes = (
"491 -15 OFFCURVE",
"582 57 OFFCURVE",
"582 182 CURVE SMOOTH",
"582 297 OFFCURVE",
"509 351 OFFCURVE",
"384 376 CURVE SMOOTH",
"284 396 LINE SMOOTH",
"184 416 OFFCURVE",
"142 457 OFFCURVE",
"142 535 CURVE SMOOTH",
"142 623 OFFCURVE",
"210 674 OFFCURVE",
"321 674 CURVE SMOOTH",
"438 674 OFFCURVE",
"495 637 OFFCURVE",
"516 530 CURVE",
"575 530 LINE",
"555 666 OFFCURVE",
"473 725 OFFCURVE",
"321 725 CURVE SMOOTH",
"173 725 OFFCURVE",
"83 653 OFFCURVE",
"83 532 CURVE SMOOTH",
"83 426 OFFCURVE",
"146 365 OFFCURVE",
"272 340 CURVE SMOOTH",
"372 320 LINE SMOOTH",
"472 300 OFFCURVE",
"523 265 OFFCURVE",
"523 178 CURVE SMOOTH",
"523 86 OFFCURVE",
"456 36 OFFCURVE",
"335 36 CURVE SMOOTH",
"202 36 OFFCURVE",
"138 77 OFFCURVE",
"120 175 CURVE",
"60 175 LINE",
"74 47 OFFCURVE",
"162 -15 OFFCURVE",
"333 -15 CURVE SMOOTH"
);
}
);
userData = {
RMXScaler = {
height = 97.30000;
width = 97.30000;
};
};
width = 649;
},
{
anchors = (
{
name = bottom;
position = "{377, 0}";
},
{
name = top;
position = "{370, 710}";
}
);
background = {
paths = (
{
closed = 1;
nodes = (
"587 -15 OFFCURVE",
"697 56 OFFCURVE",
"697 212 CURVE SMOOTH",
"697 332 OFFCURVE",
"638 402 OFFCURVE",
"473 429 CURVE SMOOTH",
"364 447 LINE SMOOTH",
"293 459 OFFCURVE",
"268 473 OFFCURVE",
"268 512 CURVE SMOOTH",
"268 551 OFFCURVE",
"301 569 OFFCURVE",
"366 569 CURVE SMOOTH",
"440 569 OFFCURVE",
"473 548 OFFCURVE",
"481 492 CURVE",
"694 492 LINE",
"681 653 OFFCURVE",
"580 725 OFFCURVE",
"370 725 CURVE SMOOTH",
"164 725 OFFCURVE",
"61 657 OFFCURVE",
"61 497 CURVE SMOOTH",
"61 375 OFFCURVE",
"132 305 OFFCURVE",
"283 280 CURVE SMOOTH",
"392 262 LINE SMOOTH",
"475 248 OFFCURVE",
"490 237 OFFCURVE",
"490 197 CURVE SMOOTH",
"490 159 OFFCURVE",
"457 141 OFFCURVE",
"384 141 CURVE SMOOTH",
"306 141 OFFCURVE",
"270 163 OFFCURVE",
"266 218 CURVE",
"51 218 LINE",
"61 54 OFFCURVE",
"166 -15 OFFCURVE",
"378 -15 CURVE SMOOTH"
);
}
);
};
layerId = "84435905-EDCB-4949-A8A3-0E53308A2F50";
paths = (
{
closed = 1;
nodes = (
"587 -15 OFFCURVE",
"697 66 OFFCURVE",
"697 212 CURVE SMOOTH",
"697 332 OFFCURVE",
"637 399 OFFCURVE",
"473 429 CURVE SMOOTH",
"374 447 LINE SMOOTH",
"303 460 OFFCURVE",
"268 473 OFFCURVE",
"268 512 CURVE SMOOTH",
"268 551 OFFCURVE",
"306 569 OFFCURVE",
"366 569 CURVE SMOOTH",
"450 569 OFFCURVE",
"483 548 OFFCURVE",
"491 492 CURVE",
"694 492 LINE",
"681 643 OFFCURVE",
"590 725 OFFCURVE",
"370 725 CURVE SMOOTH",
"164 725 OFFCURVE",
"61 636 OFFCURVE",
"61 496 CURVE SMOOTH",
"61 374 OFFCURVE",
"142 299 OFFCURVE",
"293 275 CURVE SMOOTH",
"392 259 LINE SMOOTH",
"455 249 OFFCURVE",
"490 232 OFFCURVE",
"490 194 CURVE SMOOTH",
"490 156 OFFCURVE",
"447 141 OFFCURVE",
"384 141 CURVE SMOOTH",
"303 141 OFFCURVE",
"257 163 OFFCURVE",
"253 218 CURVE",
"48 218 LINE",
"58 54 OFFCURVE",
"163 -15 OFFCURVE",
"378 -15 CURVE SMOOTH"
);
}
);
width = 745;
},
{
anchors = (
{
name = bottom;
position = "{330, 0}";
},
{
name = top;
position = "{327, 710}";
}
);
associatedMasterId = "0A1AFE58-107D-4787-BDA0-D82FB635C3A6";
background = {
paths = (
{
closed = 1;
nodes = (
"496 -15 OFFCURVE",
"590 55 OFFCURVE",
"590 183 CURVE SMOOTH",
"590 294 OFFCURVE",
"516 349 OFFCURVE",
"389 376 CURVE SMOOTH",
"294 396 LINE SMOOTH",
"194 417 OFFCURVE",
"152 471 OFFCURVE",
"152 536 CURVE SMOOTH",
"152 630 OFFCURVE",
"230 675 OFFCURVE",
"330 675 CURVE SMOOTH",
"453 675 OFFCURVE",
"512 638 OFFCURVE",
"534 530 CURVE",
"592 530 LINE",
"572 666 OFFCURVE",
"487 725 OFFCURVE",
"329 725 CURVE SMOOTH",
"181 725 OFFCURVE",
"94 648 OFFCURVE",
"94 533 CURVE SMOOTH",
"94 440 OFFCURVE",
"157 365 OFFCURVE",
"282 340 CURVE SMOOTH",
"377 321 LINE SMOOTH",
"477 301 OFFCURVE",
"532 263 OFFCURVE",
"532 177 CURVE SMOOTH",
"532 86 OFFCURVE",
"462 35 OFFCURVE",
"349 35 CURVE SMOOTH",
"217 35 OFFCURVE",
"151 72 OFFCURVE",
"129 175 CURVE",
"70 175 LINE",
"88 42 OFFCURVE",
"180 -15 OFFCURVE",
"348 -15 CURVE SMOOTH"
);
}
);
};
layerId = "7707104F-9E0E-4E77-BB29-29B3D4748AC1";
name = "Sep 19 17, 15:45";
paths = (
{
closed = 1;
nodes = (
"497 -15 OFFCURVE",
"591 55 OFFCURVE",
"591 183 CURVE SMOOTH",
"591 294 OFFCURVE",
"517 349 OFFCURVE",
"389 376 CURVE SMOOTH",
"294 396 LINE SMOOTH",
"194 417 OFFCURVE",
"152 471 OFFCURVE",
"152 536 CURVE SMOOTH",
"152 630 OFFCURVE",
"230 675 OFFCURVE",
"330 675 CURVE SMOOTH",
"450 675 OFFCURVE",
"508 638 OFFCURVE",
"529 530 CURVE",
"587 530 LINE",
"567 666 OFFCURVE",
"484 725 OFFCURVE",
"329 725 CURVE SMOOTH",
"181 725 OFFCURVE",
"94 648 OFFCURVE",
"94 533 CURVE SMOOTH",
"94 440 OFFCURVE",
"157 365 OFFCURVE",
"282 340 CURVE SMOOTH",
"377 321 LINE SMOOTH",
"478 301 OFFCURVE",
"533 263 OFFCURVE",
"533 177 CURVE SMOOTH",
"533 86 OFFCURVE",
"463 35 OFFCURVE",
"349 35 CURVE SMOOTH",
"217 35 OFFCURVE",
"151 72 OFFCURVE",
"129 175 CURVE",
"70 175 LINE",
"88 42 OFFCURVE",
"180 -15 OFFCURVE",
"348 -15 CURVE SMOOTH"
);
}
);
userData = {
RMXScaler = {
height = 97.30000;
width = 97.30000;
};
};
width = 662;
},
{
anchors = (
{
name = bottom;
position = "{320, 0}";
},
{
name = top;
position = "{317, 710}";
}
);
associatedMasterId = "0A1AFE58-107D-4787-BDA0-D82FB635C3A6";
background = {
paths = (
{
closed = 1;
nodes = (
"488 -15 OFFCURVE",
"581 55 OFFCURVE",
"581 182 CURVE SMOOTH",
"581 294 OFFCURVE",
"507 350 OFFCURVE",
"379 376 CURVE SMOOTH",
"284 395 LINE SMOOTH",
"184 415 OFFCURVE",
"142 456 OFFCURVE",
"142 535 CURVE SMOOTH",
"142 623 OFFCURVE",
"210 675 OFFCURVE",
"321 675 CURVE SMOOTH",
"439 675 OFFCURVE",
"496 638 OFFCURVE",
"517 530 CURVE",
"575 530 LINE",
"555 666 OFFCURVE",
"473 725 OFFCURVE",
"321 725 CURVE SMOOTH",
"174 725 OFFCURVE",
"84 653 OFFCURVE",
"84 532 CURVE SMOOTH",
"84 426 OFFCURVE",
"146 365 OFFCURVE",
"272 340 CURVE SMOOTH",
"367 321 LINE SMOOTH",
"468 301 OFFCURVE",
"523 263 OFFCURVE",
"523 178 CURVE SMOOTH",
"523 86 OFFCURVE",
"453 35 OFFCURVE",
"339 35 CURVE SMOOTH",
"199 35 OFFCURVE",
"138 76 OFFCURVE",
"119 175 CURVE",
"60 175 LINE",
"75 42 OFFCURVE",
"167 -15 OFFCURVE",
"337 -15 CURVE SMOOTH"
);
}
);
};
guideLines = (
{
angle = 77.692;
position = "{311, 351}";
showMeasurement = 1;
}
);
layerId = "45974F21-E962-4A92-8F58-BA03CCCA9B9D";
name = "Sep 20 17, 09:04";
paths = (
{
closed = 1;
nodes = (
"489 -15 OFFCURVE",
"582 55 OFFCURVE",
"582 182 CURVE SMOOTH",
"582 295 OFFCURVE",
"508 351 OFFCURVE",
"379 377 CURVE SMOOTH",
"284 396 LINE SMOOTH",
"184 416 OFFCURVE",
"142 457 OFFCURVE",
"142 535 CURVE SMOOTH",
"142 623 OFFCURVE",
"210 674 OFFCURVE",
"321 674 CURVE SMOOTH",
"438 674 OFFCURVE",
"495 637 OFFCURVE",
"516 530 CURVE",
"575 530 LINE",
"555 666 OFFCURVE",
"473 725 OFFCURVE",
"321 725 CURVE SMOOTH",
"173 725 OFFCURVE",
"83 653 OFFCURVE",
"83 532 CURVE SMOOTH",
"83 426 OFFCURVE",
"145 365 OFFCURVE",
"272 340 CURVE SMOOTH",
"367 321 LINE SMOOTH",
"468 301 OFFCURVE",
"523 263 OFFCURVE",
"523 178 CURVE SMOOTH",
"523 87 OFFCURVE",
"453 36 OFFCURVE",
"339 36 CURVE SMOOTH",
"200 36 OFFCURVE",
"139 77 OFFCURVE",
"120 175 CURVE",
"60 175 LINE",
"75 42 OFFCURVE",
"167 -15 OFFCURVE",
"337 -15 CURVE SMOOTH"
);
}
);
userData = {
RMXScaler = {
height = 97.30000;
width = 97.30000;
};
};
width = 649;
},
{
anchors = (
{
name = bottom;
position = "{320, 0}";
},
{
name = top;
position = "{317, 710}";
}
);
associatedMasterId = "0A1AFE58-107D-4787-BDA0-D82FB635C3A6";
background = {
paths = (
{
closed = 1;
nodes = (
"468 725 OFFCURVE",
"309 725 CURVE SMOOTH",
"164 725 OFFCURVE",
"60 663 OFFCURVE",
"60 528 CURVE SMOOTH",
"60 413 OFFCURVE",
"133 359 OFFCURVE",
"258 334 CURVE SMOOTH",
"358 314 LINE SMOOTH",
"458 294 OFFCURVE",
"500 253 OFFCURVE",
"500 175 CURVE SMOOTH",
"500 87 OFFCURVE",
"432 36 OFFCURVE",
"321 36 CURVE SMOOTH",
"204 36 OFFCURVE",
"147 73 OFFCURVE",
"126 180 CURVE",
"67 180 LINE",
"87 44 OFFCURVE",
"169 -15 OFFCURVE",
"321 -15 CURVE SMOOTH",
"469 -15 OFFCURVE",
"559 57 OFFCURVE",
"559 178 CURVE SMOOTH",
"559 284 OFFCURVE",
"496 345 OFFCURVE",
"370 370 CURVE SMOOTH",
"270 390 LINE SMOOTH",
"170 410 OFFCURVE",
"119 445 OFFCURVE",
"119 532 CURVE SMOOTH",
"119 630 OFFCURVE",
"194 674 OFFCURVE",
"307 674 CURVE SMOOTH",
"429 674 OFFCURVE",
"502 641 OFFCURVE",
"522 535 CURVE",
"582 535 LINE",
"567 672 OFFCURVE"
);
}
);
};
guideLines = (
{
angle = 77.692;
position = "{311, 351}";
showMeasurement = 1;
},
{
angle = -11.3099;
position = "{384, 376}";
}
);
layerId = "7520C9A5-588C-4E3A-9158-3D5BD0E96FFC";
name = "Sep 20 17, 09:09";
paths = (
{
closed = 1;
nodes = (
"469 -15 OFFCURVE",
"559 57 OFFCURVE",
"559 178 CURVE SMOOTH",
"559 284 OFFCURVE",
"496 345 OFFCURVE",
"370 370 CURVE SMOOTH",
"270 390 LINE SMOOTH",
"170 410 OFFCURVE",
"119 445 OFFCURVE",
"119 532 CURVE SMOOTH",
"119 624 OFFCURVE",
"186 674 OFFCURVE",
"307 674 CURVE SMOOTH",
"440 674 OFFCURVE",
"504 633 OFFCURVE",
"522 535 CURVE",
"582 535 LINE",
"568 663 OFFCURVE",
"480 725 OFFCURVE",
"309 725 CURVE SMOOTH",
"151 725 OFFCURVE",
"60 653 OFFCURVE",
"60 528 CURVE SMOOTH",
"60 413 OFFCURVE",
"133 359 OFFCURVE",
"258 334 CURVE SMOOTH",
"358 314 LINE SMOOTH",
"458 294 OFFCURVE",
"500 253 OFFCURVE",
"500 175 CURVE SMOOTH",
"500 87 OFFCURVE",
"432 36 OFFCURVE",
"321 36 CURVE SMOOTH",
"204 36 OFFCURVE",
"147 73 OFFCURVE",
"126 180 CURVE",
"67 180 LINE",
"87 44 OFFCURVE",
"169 -15 OFFCURVE",
"321 -15 CURVE SMOOTH"
);
}
);
userData = {
RMXScaler = {
height = 97.30000;
width = 97.30000;
};
};
width = 649;
}
);
unicode = 0053;
userData = {
RMXScaler = {
source = S;
};
};
},
{
glyphname = T;
lastChange = "2017-09-19 14:01:39 +0000";
layers = (
{
anchors = (
{
name = bottom;
position = "{309, 0}";
},
{
name = top;
position = "{306, 710}";
}
);
background = {
paths = (
{
closed = 1;
nodes = (
"368 0 LINE",
"368 620 LINE",
"220 620 LINE",
"220 0 LINE"
);
},
{
closed = 1;
nodes = (
"573 545 LINE",
"573 670 LINE",
"15 670 LINE",
"15 545 LINE"
);
}
);
};
layerId = "C76CAC8E-7AD6-478C-8F7E-02FEF6F1EA84";
paths = (
{
closed = 1;
nodes = (
"15 710 LINE",
"15 585 LINE",
"233 585 LINE",
"233 0 LINE",
"381 0 LINE",
"381 585 LINE",
"599 585 LINE",
"599 710 LINE"
);
}
);
width = 614;
},
{
anchors = (
{
name = bottom;
position = "{279, 0}";
},
{
name = top;
position = "{276, 710}";
}
);
background = {
paths = (
{
closed = 1;
nodes = (
"308 0 LINE",
"308 671 LINE",
"248 671 LINE",
"248 0 LINE"
);
},
{
closed = 1;
nodes = (
"538 657 LINE",
"538 710 LINE",
"18 710 LINE",
"18 657 LINE"
);
}
);
};
layerId = "0A1AFE58-107D-4787-BDA0-D82FB635C3A6";
paths = (
{
closed = 1;
nodes = (
"18 710 LINE",
"18 657 LINE",
"248 657 LINE",
"248 0 LINE",
"308 0 LINE",
"308 657 LINE",
"538 657 LINE",
"538 710 LINE"
);
}
);
userData = {
RMXScaler = {
height = 97.30000;
width = 97.30000;
};
};
width = 556;
},
{
anchors = (
{
name = bottom;
position = "{324, 0}";
},
{
name = top;
position = "{321, 710}";
}
);
background = {
paths = (
{
closed = 1;
nodes = (
"411 0 LINE",
"411 620 LINE",
"197 620 LINE",
"197 0 LINE"
);
},
{
closed = 1;
nodes = (
"602 497 LINE",
"602 670 LINE",
"6 670 LINE",
"6 497 LINE"
);
}
);
};
layerId = "84435905-EDCB-4949-A8A3-0E53308A2F50";
paths = (
{
closed = 1;
nodes = (
"5 710 LINE",
"5 535 LINE",
"210 535 LINE",
"210 0 LINE",
"430 0 LINE",
"430 535 LINE",
"635 535 LINE",
"635 710 LINE"
);
}
);
width = 640;
}
);
unicode = 0054;
userData = {
RMXScaler = {
source = T;
};
};
},
{
color = 4;
glyphname = U;
lastChange = "2017-09-19 15:29:51 +0000";
layers = (
{
anchors = (
{
name = ogonek;
position = "{496, 0}";
},
{
name = top;
position = "{392, 710}";
}
);
background = {
paths = (
{
closed = 1;
nodes = (
"77 670 LINE",
"77 295 LINE SMOOTH",
"77 79 OFFCURVE",
"173 -15 OFFCURVE",
"371 -15 CURVE SMOOTH",
"569 -15 OFFCURVE",
"665 79 OFFCURVE",
"665 295 CURVE SMOOTH",
"665 670 LINE",
"517 670 LINE",
"517 305 LINE SMOOTH",
"517 164 OFFCURVE",
"476 110 OFFCURVE",
"371 110 CURVE SMOOTH",
"266 110 OFFCURVE",
"225 164 OFFCURVE",
"225 305 CURVE SMOOTH",
"225 670 LINE"
);
}
);
};
layerId = "C76CAC8E-7AD6-478C-8F7E-02FEF6F1EA84";
paths = (
{
closed = 1;
nodes = (
"597 -15 OFFCURVE",
"699 81 OFFCURVE",
"699 310 CURVE SMOOTH",
"699 710 LINE",
"551 710 LINE",
"551 321 LINE SMOOTH",
"551 165 OFFCURVE",
"504 110 OFFCURVE",
"392 110 CURVE SMOOTH",
"279 110 OFFCURVE",
"233 165 OFFCURVE",
"233 321 CURVE SMOOTH",
"233 710 LINE",
"85 710 LINE",
"85 310 LINE SMOOTH",
"85 81 OFFCURVE",
"186 -15 OFFCURVE",
"392 -15 CURVE SMOOTH"
);
}
);
width = 784;
},
{
anchors = (
{
name = ogonek;
position = "{470, 0}";
},
{
name = top;
position = "{377, 710}";
}
);
background = {
paths = (
{
closed = 1;
nodes = (
"110 710 LINE",
"110 286 LINE SMOOTH",
"110 71 OFFCURVE",
"216 -15 OFFCURVE",
"380 -15 CURVE SMOOTH",
"545 -15 OFFCURVE",
"650 71 OFFCURVE",
"650 286 CURVE SMOOTH",
"650 710 LINE",
"590 710 LINE",
"590 297 LINE SMOOTH",
"590 90 OFFCURVE",
"510 36 OFFCURVE",
"380 36 CURVE SMOOTH",
"249 36 OFFCURVE",
"170 90 OFFCURVE",
"170 297 CURVE SMOOTH",
"170 710 LINE"
);
}
);
};
layerId = "0A1AFE58-107D-4787-BDA0-D82FB635C3A6";
paths = (
{
closed = 1;
nodes = (
"546 -15 OFFCURVE",
"650 71 OFFCURVE",
"650 262 CURVE SMOOTH",
"650 710 LINE",
"590 710 LINE",
"590 270 LINE SMOOTH",
"590 90 OFFCURVE",
"511 36 OFFCURVE",
"380 36 CURVE SMOOTH",
"249 36 OFFCURVE",
"170 90 OFFCURVE",
"170 270 CURVE SMOOTH",
"170 710 LINE",
"110 710 LINE",
"110 262 LINE SMOOTH",
"110 71 OFFCURVE",
"214 -15 OFFCURVE",
"380 -15 CURVE SMOOTH"
);
}
);
userData = {
RMXScaler = {
height = 97.30000;
width = 97.30000;
};
};
width = 760;
},
{
anchors = (
{
name = ogonek;
position = "{486, 0}";
},
{
name = top;
position = "{388, 710}";
}
);
background = {
paths = (
{
closed = 1;
nodes = (
"58 670 LINE",
"58 304 LINE SMOOTH",
"58 79 OFFCURVE",
"151 -15 OFFCURVE",
"372 -15 CURVE SMOOTH",
"594 -15 OFFCURVE",
"687 79 OFFCURVE",
"687 304 CURVE SMOOTH",
"687 670 LINE",
"473 670 LINE",
"473 314 LINE SMOOTH",
"473 209 OFFCURVE",
"457 162 OFFCURVE",
"372 162 CURVE SMOOTH",
"288 162 OFFCURVE",
"272 209 OFFCURVE",
"272 314 CURVE SMOOTH",
"272 670 LINE"
);
}
);
};
layerId = "84435905-EDCB-4949-A8A3-0E53308A2F50";
paths = (
{
closed = 1;
nodes = (
"622 -15 OFFCURVE",
"720 84 OFFCURVE",
"720 320 CURVE SMOOTH",
"720 710 LINE",
"500 710 LINE",
"500 325 LINE SMOOTH",
"500 207 OFFCURVE",
"481 158 OFFCURVE",
"392 158 CURVE SMOOTH",
"303 158 OFFCURVE",
"283 207 OFFCURVE",
"283 325 CURVE SMOOTH",
"283 710 LINE",
"63 710 LINE",
"63 320 LINE SMOOTH",
"63 84 OFFCURVE",
"162 -15 OFFCURVE",
"392 -15 CURVE SMOOTH"
);
}
);
width = 783;
}
);
unicode = 0055;
userData = {
RMXScaler = {
source = U;
};
};
},
{
glyphname = V;
lastChange = "2017-09-19 12:32:12 +0000";
layers = (
{
background = {
paths = (
{
closed = 1;
nodes = (
"349 123 LINE",
"341 123 LINE",
"163 710 LINE",
"5 710 LINE",
"242 0 LINE",
"447 0 LINE",
"684 710 LINE",
"526 710 LINE"
);
}
);
};
layerId = "C76CAC8E-7AD6-478C-8F7E-02FEF6F1EA84";
paths = (
{
closed = 1;
nodes = (
"350 123 LINE",
"342 123 LINE",
"163 710 LINE",
"5 710 LINE",
"242 0 LINE",
"447 0 LINE",
"684 710 LINE",
"528 710 LINE"
);
}
);
width = 689;
},
{
background = {
paths = (
{
closed = 1;
nodes = (
"319 69 LINE",
"312 69 LINE",
"74 710 LINE",
"10 710 LINE",
"281 0 LINE",
"349 0 LINE",
"620 710 LINE",
"556 710 LINE"
);
}
);
};
layerId = "0A1AFE58-107D-4787-BDA0-D82FB635C3A6";
paths = (
{
closed = 1;
nodes = (
"319 69 LINE",
"312 69 LINE",
"74 710 LINE",
"10 710 LINE",
"281 0 LINE",
"349 0 LINE",
"620 710 LINE",
"556 710 LINE"
);
}
);
userData = {
RMXScaler = {
height = 97.30000;
width = 97.30000;
};
};
width = 630;
},
{
background = {
paths = (
{
closed = 1;
nodes = (
"374 183 LINE",
"363 183 LINE",
"235 710 LINE",
"5 710 LINE",
"213 0 LINE",
"523 0 LINE",
"731 710 LINE",
"502 710 LINE"
);
}
);
};
layerId = "84435905-EDCB-4949-A8A3-0E53308A2F50";
paths = (
{
closed = 1;
nodes = (
"373 183 LINE",
"363 183 LINE",
"235 710 LINE",
"5 710 LINE",
"213 0 LINE",
"523 0 LINE",
"731 710 LINE",
"503 710 LINE"
);
}
);
width = 736;
}
);
unicode = 0056;
userData = {
RMXScaler = {
source = V;
};
};
},
{
glyphname = W;
lastChange = "2017-09-19 12:32:12 +0000";
layers = (
{
anchors = (
{
name = top;
position = "{518, 710}";
}
);
background = {
paths = (
{
closed = 1;
nodes = (
"741 127 LINE",
"733 127 LINE",
"600 710 LINE",
"439 710 LINE",
"308 127 LINE",
"299 127 LINE",
"168 710 LINE",
"10 710 LINE",
"191 0 LINE",
"402 0 LINE",
"516 539 LINE",
"523 539 LINE",
"638 0 LINE",
"847 0 LINE",
"1029 710 LINE",
"871 710 LINE"
);
}
);
};
layerId = "C76CAC8E-7AD6-478C-8F7E-02FEF6F1EA84";
paths = (
{
closed = 1;
nodes = (
"741 127 LINE",
"733 127 LINE",
"600 710 LINE",
"439 710 LINE",
"308 127 LINE",
"300 127 LINE",
"168 710 LINE",
"10 710 LINE",
"191 0 LINE",
"401 0 LINE",
"516 539 LINE",
"522 539 LINE",
"638 0 LINE",
"848 0 LINE",
"1029 710 LINE",
"871 710 LINE"
);
}
);
width = 1039;
},
{
anchors = (
{
name = top;
position = "{489, 710}";
}
);
background = {
paths = (
{
closed = 1;
nodes = (
"708 66 LINE",
"703 66 LINE",
"529 710 LINE",
"449 710 LINE",
"274 66 LINE",
"269 66 LINE",
"84 710 LINE",
"20 710 LINE",
"234 0 LINE",
"310 0 LINE",
"487 650 LINE",
"491 650 LINE",
"667 0 LINE",
"743 0 LINE",
"957 710 LINE",
"893 710 LINE"
);
}
);
};
layerId = "0A1AFE58-107D-4787-BDA0-D82FB635C3A6";
paths = (
{
closed = 1;
nodes = (
"708 66 LINE",
"703 66 LINE",
"528 710 LINE",
"449 710 LINE",
"274 66 LINE",
"269 66 LINE",
"84 710 LINE",
"20 710 LINE",
"234 0 LINE",
"310 0 LINE",
"486 650 LINE",
"490 650 LINE",
"667 0 LINE",
"743 0 LINE",
"957 710 LINE",
"893 710 LINE"
);
}
);
userData = {
RMXScaler = {
height = 97.30000;
width = 97.30000;
};
};
width = 977;
},
{
anchors = (
{
name = top;
position = "{554, 710}";
}
);
background = {
paths = (
{
closed = 1;
nodes = (
"783 183 LINE",
"775 183 LINE",
"670 710 LINE",
"439 710 LINE",
"337 183 LINE",
"327 183 LINE",
"231 710 LINE",
"5 710 LINE",
"175 0 LINE",
"462 0 LINE",
"551 487 LINE",
"558 487 LINE",
"647 0 LINE",
"934 0 LINE",
"1104 710 LINE",
"878 710 LINE"
);
}
);
};
layerId = "84435905-EDCB-4949-A8A3-0E53308A2F50";
paths = (
{
closed = 1;
nodes = (
"780 183 LINE",
"770 183 LINE",
"670 710 LINE",
"439 710 LINE",
"342 183 LINE",
"332 183 LINE",
"231 710 LINE",
"5 710 LINE",
"180 0 LINE",
"467 0 LINE",
"551 487 LINE",
"557 487 LINE",
"642 0 LINE",
"929 0 LINE",
"1104 710 LINE",
"878 710 LINE"
);
}
);
width = 1109;
}
);
unicode = 0057;
userData = {
RMXScaler = {
source = W;
};
};
},
{
glyphname = X;
lastChange = "2017-09-19 12:32:12 +0000";
layers = (
{
background = {
paths = (
{
closed = 1;
nodes = (
"175 0 LINE",
"366 318 LINE",
"425 318 LINE",
"678 710 LINE",
"519 710 LINE",
"328 394 LINE",
"269 394 LINE",
"15 0 LINE"
);
},
{
closed = 1;
nodes = (
"678 0 LINE",
"410 434 LINE",
"348 434 LINE",
"175 710 LINE",
"15 710 LINE",
"285 279 LINE",
"347 279 LINE",
"519 0 LINE"
);
}
);
};
layerId = "C76CAC8E-7AD6-478C-8F7E-02FEF6F1EA84";
paths = (
{
closed = 1;
nodes = (
"175 0 LINE",
"375 318 LINE",
"425 318 LINE",
"678 710 LINE",
"519 710 LINE",
"319 394 LINE",
"269 394 LINE",
"15 0 LINE"
);
},
{
closed = 1;
nodes = (
"678 0 LINE",
"397 445 LINE",
"347 445 LINE",
"175 710 LINE",
"15 710 LINE",
"297 267 LINE",
"348 267 LINE",
"519 0 LINE"
);
}
);
width = 693;
},
{
background = {
paths = (
{
closed = 1;
nodes = (
"103 0 LINE",
"340 341 LINE",
"360 341 LINE",
"621 710 LINE",
"553 710 LINE",
"315 368 LINE",
"295 368 LINE",
"35 0 LINE"
);
},
{
closed = 1;
nodes = (
"621 0 LINE",
"352 387 LINE",
"326 387 LINE",
"103 710 LINE",
"35 710 LINE",
"304 322 LINE",
"330 322 LINE",
"553 0 LINE"
);
}
);
};
layerId = "0A1AFE58-107D-4787-BDA0-D82FB635C3A6";
paths = (
{
closed = 1;
nodes = (
"108 0 LINE",
"342 341 LINE",
"361 341 LINE",
"616 710 LINE",
"548 710 LINE",
"313 368 LINE",
"294 368 LINE",
"40 0 LINE"
);
},
{
closed = 1;
nodes = (
"616 0 LINE",
"347 391 LINE",
"328 391 LINE",
"108 710 LINE",
"40 710 LINE",
"309 318 LINE",
"328 318 LINE",
"548 0 LINE"
);
}
);
userData = {
RMXScaler = {
height = 97.30000;
width = 97.30000;
};
};
width = 656;
},
{
background = {
paths = (
{
closed = 1;
nodes = (
"229 0 LINE",
"398 331 LINE",
"503 331 LINE",
"714 710 LINE",
"489 710 LINE",
"329 394 LINE",
"225 394 LINE",
"5 0 LINE"
);
},
{
closed = 1;
nodes = (
"716 0 LINE",
"470 467 LINE",
"356 467 LINE",
"232 710 LINE",
"7 710 LINE",
"251 245 LINE",
"364 245 LINE",
"491 0 LINE"
);
}
);
};
layerId = "84435905-EDCB-4949-A8A3-0E53308A2F50";
paths = (
{
closed = 1;
nodes = (
"229 0 LINE",
"408 331 LINE",
"498 331 LINE",
"714 710 LINE",
"489 710 LINE",
"320 394 LINE",
"230 394 LINE",
"5 0 LINE"
);
},
{
closed = 1;
nodes = (
"716 0 LINE",
"451 476 LINE",
"361 476 LINE",
"232 710 LINE",
"7 710 LINE",
"270 237 LINE",
"360 237 LINE",
"491 0 LINE"
);
}
);
width = 721;
}
);
unicode = 0058;
userData = {
RMXScaler = {
source = X;
};
};
},
{
glyphname = Y;
lastChange = "2017-09-19 12:32:12 +0000";
layers = (
{
anchors = (
{
name = top;
position = "{356, 710}";
}
);
background = {
paths = (
{
closed = 1;
nodes = (
"430 0 LINE",
"430 302 LINE",
"423 245 LINE",
"709 710 LINE",
"547 710 LINE",
"360 398 LINE",
"354 398 LINE",
"165 710 LINE",
"2 710 LINE",
"288 245 LINE",
"282 302 LINE",
"282 0 LINE"
);
}
);
};
layerId = "C76CAC8E-7AD6-478C-8F7E-02FEF6F1EA84";
paths = (
{
closed = 1;
nodes = (
"430 0 LINE",
"430 302 LINE",
"423 245 LINE",
"709 710 LINE",
"547 710 LINE",
"360 403 LINE",
"354 403 LINE",
"165 710 LINE",
"2 710 LINE",
"288 245 LINE",
"282 302 LINE",
"282 0 LINE"
);
}
);
width = 711;
},
{
anchors = (
{
name = top;
position = "{313, 710}";
}
);
background = {
paths = (
{
closed = 1;
nodes = (
"345 0 LINE",
"345 307 LINE",
"337 255 LINE",
"625 710 LINE",
"560 710 LINE",
"318 321 LINE",
"315 321 LINE",
"70 710 LINE",
"5 710 LINE",
"292 255 LINE",
"286 307 LINE",
"286 0 LINE"
);
}
);
};
layerId = "0A1AFE58-107D-4787-BDA0-D82FB635C3A6";
paths = (
{
closed = 1;
nodes = (
"345 0 LINE",
"345 287 LINE",
"337 255 LINE",
"625 710 LINE",
"560 710 LINE",
"318 324 LINE",
"315 324 LINE",
"70 710 LINE",
"5 710 LINE",
"292 255 LINE",
"286 287 LINE",
"286 0 LINE"
);
}
);
userData = {
RMXScaler = {
height = 97.30000;
width = 97.30000;
};
};
width = 630;
},
{
anchors = (
{
name = top;
position = "{377, 710}";
}
);
background = {
paths = (
{
closed = 1;
nodes = (
"487 0 LINE",
"487 300 LINE",
"482 244 LINE",
"750 710 LINE",
"521 710 LINE",
"382 456 LINE",
"374 456 LINE",
"234 710 LINE",
"5 710 LINE",
"275 244 LINE",
"268 300 LINE",
"268 0 LINE"
);
}
);
};
layerId = "84435905-EDCB-4949-A8A3-0E53308A2F50";
paths = (
{
closed = 1;
nodes = (
"487 0 LINE",
"487 310 LINE",
"482 254 LINE",
"750 710 LINE",
"528 710 LINE",
"387 456 LINE",
"379 456 LINE",
"234 710 LINE",
"5 710 LINE",
"275 254 LINE",
"268 310 LINE",
"268 0 LINE"
);
}
);
width = 755;
}
);
unicode = 0059;
userData = {
RMXScaler = {
source = Y;
};
};
},
{
color = 0;
glyphname = Z;
lastChange = "2017-09-19 12:33:06 +0000";
layers = (
{
anchors = (
{
name = top;
position = "{346, 710}";
}
);
background = {
paths = (
{
closed = 1;
nodes = (
"244 131 LINE",
"616 591 LINE",
"616 710 LINE",
"76 710 LINE",
"76 586 LINE",
"448 586 LINE",
"437 602 LINE",
"437 579 LINE",
"65 120 LINE",
"65 0 LINE",
"616 0 LINE",
"616 125 LINE",
"234 125 LINE",
"244 111 LINE"
);
}
);
};
layerId = "C76CAC8E-7AD6-478C-8F7E-02FEF6F1EA84";
paths = (
{
closed = 1;
nodes = (
"244 131 LINE",
"616 590 LINE",
"616 710 LINE",
"76 710 LINE",
"76 586 LINE",
"437 586 LINE",
"437 580 LINE",
"65 120 LINE",
"65 0 LINE",
"616 0 LINE",
"616 125 LINE",
"244 125 LINE"
);
}
);
width = 681;
},
{
anchors = (
{
name = top;
position = "{306, 710}";
}
);
background = {
paths = (
{
closed = 1;
nodes = (
"138 55 LINE",
"546 661 LINE",
"546 710 LINE",
"76 710 LINE",
"76 657 LINE",
"482 657 LINE",
"473 677 LINE",
"473 655 LINE",
"65 49 LINE",
"65 0 LINE",
"546 0 LINE",
"546 53 LINE",
"134 53 LINE",
"138 43 LINE"
);
}
);
};
layerId = "0A1AFE58-107D-4787-BDA0-D82FB635C3A6";
paths = (
{
closed = 1;
nodes = (
"138 56 LINE",
"546 661 LINE",
"546 710 LINE",
"76 710 LINE",
"76 657 LINE",
"473 657 LINE",
"473 654 LINE",
"65 49 LINE",
"65 0 LINE",
"546 0 LINE",
"546 53 LINE",
"138 53 LINE"
);
}
);
userData = {
RMXScaler = {
height = 97.30000;
width = 97.30000;
};
};
width = 611;
},
{
anchors = (
{
name = top;
position = "{357, 710}";
}
);
background = {
paths = (
{
closed = 1;
nodes = (
"328 181 LINE",
"656 541 LINE",
"656 710 LINE",
"65 710 LINE",
"65 535 LINE",
"395 535 LINE",
"382 549 LINE",
"382 526 LINE",
"54 169 LINE",
"54 0 LINE",
"656 0 LINE",
"656 174 LINE",
"313 174 LINE",
"328 157 LINE"
);
}
);
};
layerId = "84435905-EDCB-4949-A8A3-0E53308A2F50";
paths = (
{
closed = 1;
nodes = (
"328 182 LINE",
"656 541 LINE",
"656 710 LINE",
"65 710 LINE",
"65 535 LINE",
"382 535 LINE",
"382 527 LINE",
"54 169 LINE",
"54 0 LINE",
"656 0 LINE",
"656 174 LINE",
"328 174 LINE"
);
}
);
width = 710;
}
);
unicode = 005A;
userData = {
RMXScaler = {
source = Z;
};
};
},
{
color = 4;
glyphname = a;
lastChange = "2017-09-19 15:07:41 +0000";
layers = (
{
anchors = (
{
name = ogonek;
position = "{513, 0}";
},
{
name = top;
position = "{316, 525}";
}
);
background = {
paths = (
{
closed = 1;
nodes = (
"414 320 LINE",
"238 300 LINE SMOOTH",
"109 285 OFFCURVE",
"53 240 OFFCURVE",
"53 142 CURVE SMOOTH",
"53 50 OFFCURVE",
"108 -13 OFFCURVE",
"235 -13 CURVE SMOOTH",
"321 -13 OFFCURVE",
"383 17 OFFCURVE",
"399 79 CURVE",
"387 72 LINE",
"414 72 LINE",
"402 81 LINE",
"417 0 LINE",
"531 0 LINE",
"531 354 LINE SMOOTH",
"531 481 OFFCURVE",
"454 540 OFFCURVE",
"314 540 CURVE SMOOTH",
"158 540 OFFCURVE",
"92 479 OFFCURVE",
"78 360 CURVE",
"220 360 LINE",
"228 411 OFFCURVE",
"248 430 OFFCURVE",
"311 430 CURVE SMOOTH",
"375 430 OFFCURVE",
"397 403 OFFCURVE",
"397 342 CURVE SMOOTH",
"397 208 LINE SMOOTH",
"397 142 OFFCURVE",
"367 89 OFFCURVE",
"280 89 CURVE SMOOTH",
"213 89 OFFCURVE",
"193 114 OFFCURVE",
"193 153 CURVE SMOOTH",
"193 186 OFFCURVE",
"213 208 OFFCURVE",
"258 214 CURVE SMOOTH",
"414 234 LINE"
);
}
);
};
layerId = "C76CAC8E-7AD6-478C-8F7E-02FEF6F1EA84";
paths = (
{
closed = 1;
nodes = (
"414 320 LINE",
"238 300 LINE SMOOTH",
"109 285 OFFCURVE",
"53 240 OFFCURVE",
"53 142 CURVE SMOOTH",
"53 50 OFFCURVE",
"108 -13 OFFCURVE",
"235 -13 CURVE SMOOTH",
"321 -13 OFFCURVE",
"383 17 OFFCURVE",
"399 79 CURVE",
"387 72 LINE",
"414 72 LINE",
"402 81 LINE",
"417 0 LINE",
"531 0 LINE",
"531 354 LINE SMOOTH",
"531 481 OFFCURVE",
"454 540 OFFCURVE",
"314 540 CURVE SMOOTH",
"158 540 OFFCURVE",
"92 479 OFFCURVE",
"78 360 CURVE",
"220 360 LINE",
"228 411 OFFCURVE",
"248 432 OFFCURVE",
"311 432 CURVE SMOOTH",
"375 432 OFFCURVE",
"397 403 OFFCURVE",
"397 342 CURVE SMOOTH",
"397 208 LINE SMOOTH",
"397 142 OFFCURVE",
"367 89 OFFCURVE",
"280 89 CURVE SMOOTH",
"213 89 OFFCURVE",
"193 114 OFFCURVE",
"193 153 CURVE SMOOTH",
"193 186 OFFCURVE",
"213 208 OFFCURVE",
"258 214 CURVE SMOOTH",
"414 234 LINE"
);
}
);
width = 609;
},
{
anchors = (
{
name = ogonek;
position = "{479, 0}";
},
{
name = top;
position = "{309, 515}";
}
);
background = {
anchors = (
{
name = ogonek;
position = "{479, 0}";
},
{
name = top;
position = "{309, 515}";
}
);
paths = (
{
closed = 1;
nodes = (
"460 305 LINE",
"257 279 LINE SMOOTH",
"128 262 OFFCURVE",
"77 217 OFFCURVE",
"77 122 CURVE SMOOTH",
"77 33 OFFCURVE",
"139 -15 OFFCURVE",
"255 -15 CURVE SMOOTH",
"358 -15 OFFCURVE",
"424 43 OFFCURVE",
"450 96 CURVE",
"437 87 LINE",
"456 87 LINE",
"447 101 LINE",
"453 0 LINE",
"497 0 LINE",
"497 349 LINE SMOOTH",
"497 475 OFFCURVE",
"433 530 OFFCURVE",
"302 530 CURVE SMOOTH",
"172 530 OFFCURVE",
"108 471 OFFCURVE",
"98 370 CURVE",
"153 370 LINE",
"163 443 OFFCURVE",
"199 484 OFFCURVE",
"301 484 CURVE SMOOTH",
"395 484 OFFCURVE",
"445 445 OFFCURVE",
"445 350 CURVE SMOOTH",
"445 192 LINE SMOOTH",
"445 101 OFFCURVE",
"354 30 OFFCURVE",
"253 30 CURVE SMOOTH",
"171 30 OFFCURVE",
"132 67 OFFCURVE",
"132 128 CURVE SMOOTH",
"132 185 OFFCURVE",
"165 222 OFFCURVE",
"256 234 CURVE SMOOTH",
"461 261 LINE"
);
}
);
};
guideLines = (
{
angle = -82.4837;
position = "{435, 222}";
showMeasurement = 1;
},
{
angle = 7.2986;
position = "{256, 234}";
},
{
angle = 187.2986;
position = "{359, 292}";
}
);
layerId = "0A1AFE58-107D-4787-BDA0-D82FB635C3A6";
paths = (
{
closed = 1;
nodes = (
"460 305 LINE",
"257 279 LINE SMOOTH",
"132 263 OFFCURVE",
"78 218 OFFCURVE",
"78 128 CURVE SMOOTH",
"78 34 OFFCURVE",
"143 -15 OFFCURVE",
"257 -15 CURVE SMOOTH",
"353 -15 OFFCURVE",
"416 29 OFFCURVE",
"450 96 CURVE",
"437 87 LINE",
"456 87 LINE",
"447 101 LINE",
"453 0 LINE",
"497 0 LINE",
"497 349 LINE SMOOTH",
"497 475 OFFCURVE",
"432 530 OFFCURVE",
"300 530 CURVE SMOOTH",
"171 530 OFFCURVE",
"107 471 OFFCURVE",
"97 370 CURVE",
"152 370 LINE",
"162 443 OFFCURVE",
"198 484 OFFCURVE",
"299 484 CURVE SMOOTH",
"394 484 OFFCURVE",
"445 445 OFFCURVE",
"445 350 CURVE SMOOTH",
"445 192 LINE SMOOTH",
"445 101 OFFCURVE",
"366 30 OFFCURVE",
"257 30 CURVE SMOOTH",
"172 30 OFFCURVE",
"133 67 OFFCURVE",
"133 130 CURVE SMOOTH",
"133 185 OFFCURVE",
"166 222 OFFCURVE",
"256 234 CURVE SMOOTH",
"461 261 LINE"
);
}
);
width = 594;
},
{
anchors = (
{
name = ogonek;
position = "{556, 0}";
},
{
name = top;
position = "{346, 535}";
}
);
background = {
paths = (
{
closed = 1;
nodes = (
"430 329 LINE",
"224 306 LINE SMOOTH",
"98 292 OFFCURVE",
"49 232 OFFCURVE",
"49 145 CURVE SMOOTH",
"49 42 OFFCURVE",
"118 -13 OFFCURVE",
"243 -13 CURVE SMOOTH",
"325 -13 OFFCURVE",
"377 15 OFFCURVE",
"403 72 CURVE",
"369 68 LINE",
"427 68 LINE",
"405 84 LINE",
"425 0 LINE",
"596 0 LINE",
"596 339 LINE SMOOTH",
"596 485 OFFCURVE",
"508 550 OFFCURVE",
"342 550 CURVE SMOOTH",
"165 550 OFFCURVE",
"93 494 OFFCURVE",
"72 350 CURVE",
"266 350 LINE",
"273 390 OFFCURVE",
"285 407 OFFCURVE",
"337 407 CURVE SMOOTH",
"382 407 OFFCURVE",
"400 387 OFFCURVE",
"400 340 CURVE SMOOTH",
"400 190 LINE SMOOTH",
"400 145 OFFCURVE",
"370 114 OFFCURVE",
"313 114 CURVE SMOOTH",
"271 114 OFFCURVE",
"251 129 OFFCURVE",
"251 161 CURVE SMOOTH",
"251 190 OFFCURVE",
"267 206 OFFCURVE",
"310 211 CURVE SMOOTH",
"428 225 LINE"
);
}
);
};
layerId = "84435905-EDCB-4949-A8A3-0E53308A2F50";
paths = (
{
closed = 1;
nodes = (
"430 329 LINE",
"224 306 LINE SMOOTH",
"98 292 OFFCURVE",
"49 232 OFFCURVE",
"49 145 CURVE SMOOTH",
"49 42 OFFCURVE",
"118 -13 OFFCURVE",
"243 -13 CURVE SMOOTH",
"325 -13 OFFCURVE",
"377 15 OFFCURVE",
"403 72 CURVE",
"369 68 LINE",
"427 68 LINE",
"405 84 LINE",
"425 0 LINE",
"596 0 LINE",
"596 339 LINE SMOOTH",
"596 485 OFFCURVE",
"508 550 OFFCURVE",
"342 550 CURVE SMOOTH",
"165 550 OFFCURVE",
"93 494 OFFCURVE",
"72 350 CURVE",
"266 350 LINE",
"273 390 OFFCURVE",
"285 407 OFFCURVE",
"337 407 CURVE SMOOTH",
"382 407 OFFCURVE",
"400 387 OFFCURVE",
"400 340 CURVE SMOOTH",
"400 190 LINE SMOOTH",
"400 145 OFFCURVE",
"370 114 OFFCURVE",
"313 114 CURVE SMOOTH",
"271 114 OFFCURVE",
"251 129 OFFCURVE",
"251 161 CURVE SMOOTH",
"251 190 OFFCURVE",
"267 206 OFFCURVE",
"310 211 CURVE SMOOTH",
"428 225 LINE"
);
}
);
userData = {
RMXScaler = {
height = 100.10000;
};
};
width = 653;
}
);
rightMetricsKey = n;
unicode = 0061;
userData = {
RMXScaler = {
source = a;
};
};
},
{
glyphname = b;
lastChange = "2017-09-19 12:32:12 +0000";
layers = (
{
background = {
paths = (
{
closed = 1;
nodes = (
"83 770 LINE",
"83 0 LINE",
"206 0 LINE",
"221 85 LINE",
"228 85 LINE",
"259 19 OFFCURVE",
"315 -14 OFFCURVE",
"389 -14 CURVE SMOOTH",
"532 -14 OFFCURVE",
"618 90 OFFCURVE",
"618 263 CURVE SMOOTH",
"618 436 OFFCURVE",
"532 540 OFFCURVE",
"389 540 CURVE SMOOTH",
"315 540 OFFCURVE",
"259 508 OFFCURVE",
"228 446 CURVE",
"223 446 LINE",
"223 770 LINE"
);
},
{
closed = 1;
nodes = (
"266 106 OFFCURVE",
"223 161 OFFCURVE",
"223 263 CURVE SMOOTH",
"223 365 OFFCURVE",
"266 420 OFFCURVE",
"347 420 CURVE SMOOTH",
"432 420 OFFCURVE",
"473 370 OFFCURVE",
"473 263 CURVE SMOOTH",
"473 156 OFFCURVE",
"432 106 OFFCURVE",
"347 106 CURVE SMOOTH"
);
}
);
};
layerId = "C76CAC8E-7AD6-478C-8F7E-02FEF6F1EA84";
paths = (
{
closed = 1;
nodes = (
"532 -14 OFFCURVE",
"618 90 OFFCURVE",
"618 263 CURVE SMOOTH",
"618 436 OFFCURVE",
"532 540 OFFCURVE",
"389 540 CURVE SMOOTH",
"315 540 OFFCURVE",
"259 508 OFFCURVE",
"228 446 CURVE",
"223 446 LINE",
"223 750 LINE",
"83 750 LINE",
"83 0 LINE",
"206 0 LINE",
"221 85 LINE",
"228 85 LINE",
"259 19 OFFCURVE",
"315 -14 OFFCURVE",
"389 -14 CURVE SMOOTH"
);
},
{
closed = 1;
nodes = (
"266 106 OFFCURVE",
"223 161 OFFCURVE",
"223 263 CURVE SMOOTH",
"223 365 OFFCURVE",
"266 420 OFFCURVE",
"347 420 CURVE SMOOTH",
"432 420 OFFCURVE",
"473 370 OFFCURVE",
"473 263 CURVE SMOOTH",
"473 156 OFFCURVE",
"432 106 OFFCURVE",
"347 106 CURVE SMOOTH"
);
}
);
width = 668;
},
{
background = {
paths = (
{
closed = 1;
nodes = (
"107 750 LINE",
"107 0 LINE",
"148 0 LINE",
"162 101 LINE",
"166 101 LINE",
"192 48 OFFCURVE",
"243 -15 OFFCURVE",
"345 -15 CURVE SMOOTH",
"492 -15 OFFCURVE",
"574 86 OFFCURVE",
"574 257 CURVE SMOOTH",
"574 426 OFFCURVE",
"487 530 OFFCURVE",
"345 530 CURVE SMOOTH",
"262 530 OFFCURVE",
"204 496 OFFCURVE",
"167 425 CURVE",
"162 425 LINE",
"162 750 LINE"
);
},
{
closed = 1;
nodes = (
"223 32 OFFCURVE",
"157 149 OFFCURVE",
"157 257 CURVE SMOOTH",
"157 381 OFFCURVE",
"223 483 OFFCURVE",
"343 483 CURVE SMOOTH",
"456 483 OFFCURVE",
"518 402 OFFCURVE",
"518 257 CURVE SMOOTH",
"518 112 OFFCURVE",
"462 32 OFFCURVE",
"343 32 CURVE SMOOTH"
);
}
);
};
layerId = "0A1AFE58-107D-4787-BDA0-D82FB635C3A6";
paths = (
{
closed = 1;
nodes = (
"492 -15 OFFCURVE",
"574 86 OFFCURVE",
"574 258 CURVE SMOOTH",
"574 426 OFFCURVE",
"487 530 OFFCURVE",
"345 530 CURVE SMOOTH",
"262 530 OFFCURVE",
"204 496 OFFCURVE",
"167 425 CURVE",
"162 425 LINE",
"162 750 LINE",
"107 750 LINE",
"107 0 LINE",
"148 0 LINE",
"162 102 LINE",
"166 102 LINE",
"192 48 OFFCURVE",
"243 -15 OFFCURVE",
"345 -15 CURVE SMOOTH"
);
},
{
closed = 1;
nodes = (
"223 32 OFFCURVE",
"157 150 OFFCURVE",
"157 258 CURVE SMOOTH",
"157 382 OFFCURVE",
"223 483 OFFCURVE",
"343 483 CURVE SMOOTH",
"455 483 OFFCURVE",
"518 402 OFFCURVE",
"518 258 CURVE SMOOTH",
"518 112 OFFCURVE",
"462 32 OFFCURVE",
"343 32 CURVE SMOOTH"
);
}
);
width = 641;
},
{
background = {
paths = (
{
closed = 1;
nodes = (
"64 730 LINE",
"64 0 LINE",
"245 0 LINE",
"262 81 LINE",
"275 81 LINE",
"296 33 OFFCURVE",
"350 -14 OFFCURVE",
"436 -14 CURVE SMOOTH",
"573 -14 OFFCURVE",
"653 93 OFFCURVE",
"653 267 CURVE SMOOTH",
"653 442 OFFCURVE",
"573 549 OFFCURVE",
"436 549 CURVE SMOOTH",
"350 549 OFFCURVE",
"296 502 OFFCURVE",
"275 455 CURVE",
"269 455 LINE",
"269 730 LINE"
);
},
{
closed = 1;
nodes = (
"299 151 OFFCURVE",
"269 190 OFFCURVE",
"269 267 CURVE SMOOTH",
"269 345 OFFCURVE",
"299 384 OFFCURVE",
"356 384 CURVE SMOOTH",
"417 384 OFFCURVE",
"443 346 OFFCURVE",
"443 267 CURVE SMOOTH",
"443 189 OFFCURVE",
"417 151 OFFCURVE",
"356 151 CURVE SMOOTH"
);
}
);
};
layerId = "84435905-EDCB-4949-A8A3-0E53308A2F50";
paths = (
{
closed = 1;
nodes = (
"573 -14 OFFCURVE",
"653 93 OFFCURVE",
"653 267 CURVE SMOOTH",
"653 442 OFFCURVE",
"573 550 OFFCURVE",
"436 550 CURVE SMOOTH",
"350 550 OFFCURVE",
"296 503 OFFCURVE",
"275 455 CURVE",
"269 455 LINE",
"269 750 LINE",
"64 750 LINE",
"64 0 LINE",
"245 0 LINE",
"262 81 LINE",
"275 81 LINE",
"296 33 OFFCURVE",
"350 -14 OFFCURVE",
"436 -14 CURVE SMOOTH"
);
},
{
closed = 1;
nodes = (
"299 151 OFFCURVE",
"269 190 OFFCURVE",
"269 267 CURVE SMOOTH",
"269 345 OFFCURVE",
"299 384 OFFCURVE",
"356 384 CURVE SMOOTH",
"417 384 OFFCURVE",
"443 346 OFFCURVE",
"443 267 CURVE SMOOTH",
"443 189 OFFCURVE",
"417 151 OFFCURVE",
"356 151 CURVE SMOOTH"
);
}
);
userData = {
RMXScaler = {
height = 100.10000;
};
};
width = 689;
}
);
leftMetricsKey = h;
rightMetricsKey = o;
unicode = 0062;
userData = {
RMXScaler = {
source = b;
};
};
},
{
color = 4;
glyphname = c;
lastChange = "2017-09-19 14:49:14 +0000";
layers = (
{
anchors = (
{
name = bottom;
position = "{309, 0}";
},
{
name = top;
position = "{309, 525}";
}
);
background = {
paths = (
{
closed = 1;
nodes = (
"468 -15 OFFCURVE",
"546 53 OFFCURVE",
"557 190 CURVE",
"414 190 LINE",
"406 129 OFFCURVE",
"377 100 OFFCURVE",
"309 100 CURVE SMOOTH",
"227 100 OFFCURVE",
"196 160 OFFCURVE",
"196 264 CURVE SMOOTH",
"196 368 OFFCURVE",
"226 425 OFFCURVE",
"309 425 CURVE SMOOTH",
"373 425 OFFCURVE",
"405 397 OFFCURVE",
"414 335 CURVE",
"557 335 LINE",
"546 470 OFFCURVE",
"470 540 OFFCURVE",
"309 540 CURVE SMOOTH",
"142 540 OFFCURVE",
"50 439 OFFCURVE",
"50 264 CURVE SMOOTH",
"50 88 OFFCURVE",
"142 -15 OFFCURVE",
"309 -15 CURVE SMOOTH"
);
}
);
};
layerId = "C76CAC8E-7AD6-478C-8F7E-02FEF6F1EA84";
paths = (
{
closed = 1;
nodes = (
"473 -15 OFFCURVE",
"546 53 OFFCURVE",
"557 190 CURVE",
"414 190 LINE",
"406 124 OFFCURVE",
"377 100 OFFCURVE",
"309 100 CURVE SMOOTH",
"227 100 OFFCURVE",
"196 160 OFFCURVE",
"196 264 CURVE SMOOTH",
"196 368 OFFCURVE",
"226 425 OFFCURVE",
"309 425 CURVE SMOOTH",
"373 425 OFFCURVE",
"405 397 OFFCURVE",
"414 335 CURVE",
"557 335 LINE",
"546 470 OFFCURVE",
"470 540 OFFCURVE",
"309 540 CURVE SMOOTH",
"142 540 OFFCURVE",
"50 439 OFFCURVE",
"50 264 CURVE SMOOTH",
"50 88 OFFCURVE",
"142 -15 OFFCURVE",
"309 -15 CURVE SMOOTH"
);
}
);
width = 600;
},
{
anchors = (
{
name = bottom;
position = "{303, 0}";
},
{
name = top;
position = "{303, 515}";
}
);
background = {
paths = (
{
closed = 1;
nodes = (
"426 -15 OFFCURVE",
"499 48 OFFCURVE",
"521 162 CURVE",
"464 162 LINE",
"448 81 OFFCURVE",
"402 32 OFFCURVE",
"303 32 CURVE SMOOTH",
"190 32 OFFCURVE",
"123 112 OFFCURVE",
"123 264 CURVE SMOOTH",
"123 402 OFFCURVE",
"190 483 OFFCURVE",
"301 483 CURVE SMOOTH",
"392 483 OFFCURVE",
"445 443 OFFCURVE",
"465 352 CURVE",
"521 352 LINE",
"499 471 OFFCURVE",
"422 530 OFFCURVE",
"303 530 CURVE SMOOTH",
"167 530 OFFCURVE",
"67 436 OFFCURVE",
"67 264 CURVE SMOOTH",
"67 78 OFFCURVE",
"167 -15 OFFCURVE",
"303 -15 CURVE SMOOTH"
);
}
);
};
layerId = "0A1AFE58-107D-4787-BDA0-D82FB635C3A6";
paths = (
{
closed = 1;
nodes = (
"432 -15 OFFCURVE",
"506 46 OFFCURVE",
"519 159 CURVE",
"464 159 LINE",
"452 75 OFFCURVE",
"399 33 OFFCURVE",
"304 33 CURVE SMOOTH",
"186 33 OFFCURVE",
"123 111 OFFCURVE",
"123 258 CURVE SMOOTH",
"123 404 OFFCURVE",
"185 482 OFFCURVE",
"303 482 CURVE SMOOTH",
"396 482 OFFCURVE",
"450 441 OFFCURVE",
"462 358 CURVE",
"517 358 LINE",
"504 469 OFFCURVE",
"429 530 OFFCURVE",
"302 530 CURVE SMOOTH",
"154 530 OFFCURVE",
"67 428 OFFCURVE",
"67 258 CURVE SMOOTH",
"67 87 OFFCURVE",
"155 -15 OFFCURVE",
"303 -15 CURVE SMOOTH"
);
}
);
width = 580;
},
{
anchors = (
{
name = bottom;
position = "{315, 0}";
},
{
name = top;
position = "{315, 535}";
}
);
background = {
paths = (
{
closed = 1;
nodes = (
"496 -15 OFFCURVE",
"578 57 OFFCURVE",
"587 212 CURVE",
"396 212 LINE",
"389 169 OFFCURVE",
"372 148 OFFCURVE",
"322 148 CURVE SMOOTH",
"257 148 OFFCURVE",
"246 208 OFFCURVE",
"246 264 CURVE SMOOTH",
"246 329 OFFCURVE",
"257 387 OFFCURVE",
"323 387 CURVE SMOOTH",
"368 387 OFFCURVE",
"389 367 OFFCURVE",
"396 322 CURVE",
"587 322 LINE",
"578 471 OFFCURVE",
"492 550 OFFCURVE",
"315 550 CURVE SMOOTH",
"143 550 OFFCURVE",
"36 448 OFFCURVE",
"36 264 CURVE SMOOTH",
"36 88 OFFCURVE",
"143 -15 OFFCURVE",
"315 -15 CURVE SMOOTH"
);
}
);
};
layerId = "84435905-EDCB-4949-A8A3-0E53308A2F50";
paths = (
{
closed = 1;
nodes = (
"496 -15 OFFCURVE",
"578 57 OFFCURVE",
"587 212 CURVE",
"396 212 LINE",
"389 169 OFFCURVE",
"372 148 OFFCURVE",
"322 148 CURVE SMOOTH",
"257 148 OFFCURVE",
"246 208 OFFCURVE",
"246 264 CURVE SMOOTH",
"246 329 OFFCURVE",
"257 387 OFFCURVE",
"323 387 CURVE SMOOTH",
"368 387 OFFCURVE",
"389 367 OFFCURVE",
"396 322 CURVE",
"587 322 LINE",
"578 471 OFFCURVE",
"492 550 OFFCURVE",
"315 550 CURVE SMOOTH",
"143 550 OFFCURVE",
"36 448 OFFCURVE",
"36 264 CURVE SMOOTH",
"36 88 OFFCURVE",
"143 -15 OFFCURVE",
"315 -15 CURVE SMOOTH"
);
}
);
userData = {
RMXScaler = {
height = 100.10000;
};
};
width = 617;
}
);
leftMetricsKey = o;
unicode = 0063;
userData = {
RMXScaler = {
source = c;
};
};
},
{
color = 4;
glyphname = d;
lastChange = "2017-09-19 12:32:20 +0000";
layers = (
{
anchors = (
{
name = topright;
position = "{664, 525}";
}
);
background = {
paths = (
{
closed = 1;
nodes = (
"438 446 LINE",
"433 446 LINE",
"402 508 OFFCURVE",
"346 540 OFFCURVE",
"272 540 CURVE SMOOTH",
"129 540 OFFCURVE",
"43 436 OFFCURVE",
"43 263 CURVE SMOOTH",
"43 90 OFFCURVE",
"129 -14 OFFCURVE",
"272 -14 CURVE SMOOTH",
"346 -14 OFFCURVE",
"402 19 OFFCURVE",
"433 85 CURVE",
"440 85 LINE",
"455 0 LINE",
"578 0 LINE",
"578 730 LINE",
"438 730 LINE"
);
},
{
closed = 1;
nodes = (
"229 106 OFFCURVE",
"188 156 OFFCURVE",
"188 263 CURVE SMOOTH",
"188 370 OFFCURVE",
"229 420 OFFCURVE",
"314 420 CURVE SMOOTH",
"395 420 OFFCURVE",
"438 365 OFFCURVE",
"438 263 CURVE SMOOTH",
"438 161 OFFCURVE",
"395 106 OFFCURVE",
"314 106 CURVE SMOOTH"
);
}
);
};
guideLines = (
{
position = "{949, 418}";
}
);
layerId = "C76CAC8E-7AD6-478C-8F7E-02FEF6F1EA84";
paths = (
{
closed = 1;
nodes = (
"353 -14 OFFCURVE",
"409 19 OFFCURVE",
"440 85 CURVE",
"447 85 LINE",
"462 0 LINE",
"585 0 LINE",
"585 750 LINE",
"445 750 LINE",
"445 446 LINE",
"440 446 LINE",
"409 508 OFFCURVE",
"353 540 OFFCURVE",
"279 540 CURVE SMOOTH",
"136 540 OFFCURVE",
"50 436 OFFCURVE",
"50 263 CURVE SMOOTH",
"50 90 OFFCURVE",
"136 -14 OFFCURVE",
"279 -14 CURVE SMOOTH"
);
},
{
closed = 1;
nodes = (
"236 106 OFFCURVE",
"195 156 OFFCURVE",
"195 263 CURVE SMOOTH",
"195 370 OFFCURVE",
"236 420 OFFCURVE",
"321 420 CURVE SMOOTH",
"402 420 OFFCURVE",
"445 365 OFFCURVE",
"445 263 CURVE SMOOTH",
"445 161 OFFCURVE",
"402 106 OFFCURVE",
"321 106 CURVE SMOOTH"
);
}
);
width = 668;
},
{
anchors = (
{
name = topright;
position = "{628, 515}";
}
);
background = {
paths = (
{
closed = 0;
nodes = (
"67 258 LINE SMOOTH",
"67 87 OFFCURVE",
"148 -15 OFFCURVE",
"296 -15 CURVE SMOOTH",
"382 -15 OFFCURVE",
"442 25 OFFCURVE",
"473 89 CURVE",
"478 89 LINE"
);
},
{
closed = 0;
nodes = (
"482 258 LINE SMOOTH",
"482 134 OFFCURVE",
"422 32 OFFCURVE",
"298 32 CURVE SMOOTH",
"182 32 OFFCURVE",
"123 110 OFFCURVE",
"123 258 CURVE SMOOTH"
);
}
);
};
layerId = "0A1AFE58-107D-4787-BDA0-D82FB635C3A6";
paths = (
{
closed = 1;
nodes = (
"382 -15 OFFCURVE",
"442 25 OFFCURVE",
"475 101 CURVE",
"479 101 LINE",
"491 0 LINE",
"533 0 LINE",
"533 750 LINE",
"478 750 LINE",
"478 426 LINE",
"473 426 LINE",
"442 490 OFFCURVE",
"382 530 OFFCURVE",
"296 530 CURVE SMOOTH",
"148 530 OFFCURVE",
"67 428 OFFCURVE",
"67 257 CURVE SMOOTH",
"67 87 OFFCURVE",
"148 -15 OFFCURVE",
"296 -15 CURVE SMOOTH"
);
},
{
closed = 1;
nodes = (
"182 32 OFFCURVE",
"123 110 OFFCURVE",
"123 257 CURVE SMOOTH",
"123 405 OFFCURVE",
"182 483 OFFCURVE",
"298 483 CURVE SMOOTH",
"422 483 OFFCURVE",
"482 381 OFFCURVE",
"482 257 CURVE SMOOTH",
"482 134 OFFCURVE",
"422 32 OFFCURVE",
"298 32 CURVE SMOOTH"
);
}
);
width = 640;
},
{
anchors = (
{
name = topright;
position = "{719, 535}";
}
);
layerId = "84435905-EDCB-4949-A8A3-0E53308A2F50";
paths = (
{
closed = 1;
nodes = (
"339 -14 OFFCURVE",
"393 33 OFFCURVE",
"414 81 CURVE",
"427 81 LINE",
"444 0 LINE",
"625 0 LINE",
"625 751 LINE",
"420 751 LINE",
"420 455 LINE",
"414 455 LINE",
"393 503 OFFCURVE",
"339 550 OFFCURVE",
"253 550 CURVE SMOOTH",
"116 550 OFFCURVE",
"36 442 OFFCURVE",
"36 267 CURVE SMOOTH",
"36 93 OFFCURVE",
"116 -14 OFFCURVE",
"253 -14 CURVE SMOOTH"
);
},
{
closed = 1;
nodes = (
"272 151 OFFCURVE",
"246 189 OFFCURVE",
"246 267 CURVE SMOOTH",
"246 346 OFFCURVE",
"272 384 OFFCURVE",
"333 384 CURVE SMOOTH",
"390 384 OFFCURVE",
"420 345 OFFCURVE",
"420 267 CURVE SMOOTH",
"420 190 OFFCURVE",
"390 151 OFFCURVE",
"333 151 CURVE SMOOTH"
);
}
);
userData = {
RMXScaler = {
height = 100.10000;
};
};
width = 689;
}
);
leftMetricsKey = o;
unicode = 0064;
userData = {
RMXScaler = {
source = d;
};
};
},
{
color = 4;
glyphname = e;
lastChange = "2017-09-19 13:26:48 +0000";
layers = (
{
anchors = (
{
name = ogonek;
position = "{407, 0}";
},
{
name = top;
position = "{312, 525}";
}
);
background = {
paths = (
{
closed = 1;
nodes = (
"451 -15 OFFCURVE",
"535 39 OFFCURVE",
"553 136 CURVE SMOOTH",
"555 147 LINE",
"414 147 LINE",
"412 141 LINE SMOOTH",
"403 113 OFFCURVE",
"370 95 OFFCURVE",
"315 95 CURVE SMOOTH",
"229 95 OFFCURVE",
"192 143 OFFCURVE",
"192 262 CURVE SMOOTH",
"192 376 OFFCURVE",
"219 429 OFFCURVE",
"310 429 CURVE SMOOTH",
"391 429 OFFCURVE",
"420 391 OFFCURVE",
"420 306 CURVE SMOOTH",
"420 287 LINE",
"437 311 LINE",
"158 311 LINE",
"158 221 LINE",
"559 221 LINE",
"559 284 LINE SMOOTH",
"559 442 OFFCURVE",
"482 540 OFFCURVE",
"312 540 CURVE SMOOTH",
"155 540 OFFCURVE",
"50 444 OFFCURVE",
"50 259 CURVE SMOOTH",
"50 93 OFFCURVE",
"135 -15 OFFCURVE",
"316 -15 CURVE SMOOTH"
);
}
);
};
guideLines = (
{
angle = 91.7357;
position = "{539, 225}";
}
);
layerId = "C76CAC8E-7AD6-478C-8F7E-02FEF6F1EA84";
paths = (
{
closed = 1;
nodes = (
"472 -15 OFFCURVE",
"535 49 OFFCURVE",
"555 147 CURVE",
"414 147 LINE",
"402 111 OFFCURVE",
"376 95 OFFCURVE",
"315 95 CURVE SMOOTH",
"229 95 OFFCURVE",
"192 143 OFFCURVE",
"192 262 CURVE SMOOTH",
"192 376 OFFCURVE",
"219 429 OFFCURVE",
"310 429 CURVE SMOOTH",
"391 429 OFFCURVE",
"420 391 OFFCURVE",
"420 306 CURVE SMOOTH",
"420 287 LINE",
"437 311 LINE",
"158 311 LINE",
"158 221 LINE",
"559 221 LINE",
"559 284 LINE SMOOTH",
"559 442 OFFCURVE",
"482 540 OFFCURVE",
"312 540 CURVE SMOOTH",
"155 540 OFFCURVE",
"50 444 OFFCURVE",
"50 259 CURVE SMOOTH",
"50 93 OFFCURVE",
"135 -15 OFFCURVE",
"316 -15 CURVE SMOOTH"
);
}
);
width = 609;
},
{
anchors = (
{
name = ogonek;
position = "{385, 0}";
},
{
name = top;
position = "{306, 515}";
}
);
background = {
paths = (
{
closed = 1;
nodes = (
"417 -15 OFFCURVE",
"493 31 OFFCURVE",
"518 124 CURVE",
"461 124 LINE",
"441 61 OFFCURVE",
"392 32 OFFCURVE",
"306 32 CURVE SMOOTH",
"185 32 OFFCURVE",
"121 112 OFFCURVE",
"121 249 CURVE SMOOTH",
"121 402 OFFCURVE",
"190 483 OFFCURVE",
"306 483 CURVE SMOOTH",
"423 483 OFFCURVE",
"474 395 OFFCURVE",
"474 278 CURVE SMOOTH",
"474 248 LINE",
"484 280 LINE",
"100 280 LINE",
"100 235 LINE",
"524 235 LINE",
"524 280 LINE SMOOTH",
"524 433 OFFCURVE",
"446 530 OFFCURVE",
"306 530 CURVE SMOOTH",
"166 530 OFFCURVE",
"67 436 OFFCURVE",
"67 250 CURVE SMOOTH",
"67 78 OFFCURVE",
"162 -15 OFFCURVE",
"305 -15 CURVE SMOOTH"
);
}
);
};
layerId = "0A1AFE58-107D-4787-BDA0-D82FB635C3A6";
paths = (
{
closed = 1;
nodes = (
"423 -15 OFFCURVE",
"499 34 OFFCURVE",
"515 124 CURVE",
"460 124 LINE",
"446 60 OFFCURVE",
"394 32 OFFCURVE",
"306 32 CURVE SMOOTH",
"182 32 OFFCURVE",
"121 112 OFFCURVE",
"121 253 CURVE SMOOTH",
"121 407 OFFCURVE",
"187 483 OFFCURVE",
"306 483 CURVE SMOOTH",
"427 483 OFFCURVE",
"474 398 OFFCURVE",
"474 279 CURVE SMOOTH",
"474 249 LINE",
"484 281 LINE",
"100 281 LINE",
"100 236 LINE",
"524 236 LINE",
"524 281 LINE SMOOTH",
"524 434 OFFCURVE",
"448 530 OFFCURVE",
"306 530 CURVE SMOOTH",
"154 530 OFFCURVE",
"67 431 OFFCURVE",
"67 254 CURVE SMOOTH",
"67 82 OFFCURVE",
"155 -15 OFFCURVE",
"307 -15 CURVE SMOOTH"
);
}
);
width = 589;
},
{
anchors = (
{
name = ogonek;
position = "{405, 0}";
},
{
name = top;
position = "{322, 535}";
}
);
background = {
paths = (
{
closed = 1;
nodes = (
"495 -15 OFFCURVE",
"580 46 OFFCURVE",
"598 180 CURVE",
"407 180 LINE",
"396 149 OFFCURVE",
"377 132 OFFCURVE",
"329 132 CURVE SMOOTH",
"259 132 OFFCURVE",
"233 174 OFFCURVE",
"233 273 CURVE SMOOTH",
"233 376 OFFCURVE",
"256 410 OFFCURVE",
"324 410 CURVE SMOOTH",
"380 410 OFFCURVE",
"407 380 OFFCURVE",
"407 312 CURVE SMOOTH",
"407 286 LINE",
"446 323 LINE",
"209 323 LINE",
"209 225 LINE",
"599 225 LINE",
"599 284 LINE SMOOTH",
"599 451 OFFCURVE",
"496 550 OFFCURVE",
"321 550 CURVE SMOOTH",
"144 550 OFFCURVE",
"36 444 OFFCURVE",
"36 266 CURVE SMOOTH",
"36 87 OFFCURVE",
"139 -15 OFFCURVE",
"322 -15 CURVE SMOOTH"
);
}
);
};
layerId = "84435905-EDCB-4949-A8A3-0E53308A2F50";
paths = (
{
closed = 1;
nodes = (
"495 -15 OFFCURVE",
"580 46 OFFCURVE",
"598 180 CURVE",
"407 180 LINE",
"396 149 OFFCURVE",
"377 132 OFFCURVE",
"329 132 CURVE SMOOTH",
"259 132 OFFCURVE",
"233 174 OFFCURVE",
"233 273 CURVE SMOOTH",
"233 376 OFFCURVE",
"256 410 OFFCURVE",
"324 410 CURVE SMOOTH",
"380 410 OFFCURVE",
"407 380 OFFCURVE",
"407 312 CURVE SMOOTH",
"407 286 LINE",
"446 323 LINE",
"209 323 LINE",
"209 225 LINE",
"599 225 LINE",
"599 284 LINE SMOOTH",
"599 451 OFFCURVE",
"496 550 OFFCURVE",
"321 550 CURVE SMOOTH",
"144 550 OFFCURVE",
"36 444 OFFCURVE",
"36 266 CURVE SMOOTH",
"36 87 OFFCURVE",
"139 -15 OFFCURVE",
"322 -15 CURVE SMOOTH"
);
}
);
userData = {
RMXScaler = {
height = 100.10000;
};
};
width = 635;
}
);
leftMetricsKey = o;
unicode = 0065;
userData = {
RMXScaler = {
source = e;
};
};
},
{
glyphname = f;
lastChange = "2017-09-19 12:32:12 +0000";
layers = (
{
background = {
paths = (
{
closed = 1;
nodes = (
"395 410 LINE",
"395 525 LINE",
"38 525 LINE",
"38 410 LINE"
);
},
{
closed = 1;
nodes = (
"381 781 OFFCURVE",
"344 785 OFFCURVE",
"311 785 CURVE SMOOTH",
"186 785 OFFCURVE",
"127 719 OFFCURVE",
"127 601 CURVE SMOOTH",
"127 0 LINE",
"267 0 LINE",
"267 592 LINE SMOOTH",
"267 651 OFFCURVE",
"292 668 OFFCURVE",
"342 668 CURVE SMOOTH",
"364 668 OFFCURVE",
"390 665 OFFCURVE",
"401 663 CURVE",
"401 777 LINE"
);
}
);
};
layerId = "C76CAC8E-7AD6-478C-8F7E-02FEF6F1EA84";
paths = (
{
closed = 1;
nodes = (
"395 410 LINE",
"395 525 LINE",
"38 525 LINE",
"38 410 LINE"
);
},
{
closed = 1;
nodes = (
"381 761 OFFCURVE",
"344 765 OFFCURVE",
"311 765 CURVE SMOOTH",
"186 765 OFFCURVE",
"127 699 OFFCURVE",
"127 581 CURVE SMOOTH",
"127 0 LINE",
"267 0 LINE",
"267 572 LINE SMOOTH",
"267 631 OFFCURVE",
"292 648 OFFCURVE",
"342 648 CURVE SMOOTH",
"364 648 OFFCURVE",
"390 645 OFFCURVE",
"401 643 CURVE",
"401 757 LINE"
);
}
);
width = 414;
},
{
background = {
paths = (
{
closed = 1;
nodes = (
"350 464 LINE",
"350 514 LINE",
"42 514 LINE",
"42 464 LINE"
);
},
{
closed = 1;
nodes = (
"357 742 OFFCURVE",
"335 745 OFFCURVE",
"315 745 CURVE SMOOTH",
"209 745 OFFCURVE",
"147 692 OFFCURVE",
"147 562 CURVE SMOOTH",
"147 0 LINE",
"202 0 LINE",
"202 559 LINE SMOOTH",
"202 656 OFFCURVE",
"232 696 OFFCURVE",
"317 696 CURVE SMOOTH",
"338 696 OFFCURVE",
"363 692 OFFCURVE",
"371 690 CURVE",
"371 738 LINE"
);
}
);
};
layerId = "0A1AFE58-107D-4787-BDA0-D82FB635C3A6";
paths = (
{
closed = 1;
nodes = (
"350 464 LINE",
"350 515 LINE",
"42 515 LINE",
"42 464 LINE"
);
},
{
closed = 1;
nodes = (
"357 757 OFFCURVE",
"335 760 OFFCURVE",
"315 760 CURVE SMOOTH",
"209 760 OFFCURVE",
"147 708 OFFCURVE",
"147 578 CURVE SMOOTH",
"147 0 LINE",
"202 0 LINE",
"202 575 LINE SMOOTH",
"202 672 OFFCURVE",
"232 711 OFFCURVE",
"317 711 CURVE SMOOTH",
"338 711 OFFCURVE",
"363 707 OFFCURVE",
"371 705 CURVE",
"371 753 LINE"
);
}
);
width = 368;
},
{
layerId = "84435905-EDCB-4949-A8A3-0E53308A2F50";
paths = (
{
closed = 1;
nodes = (
"441 381 LINE",
"441 535 LINE",
"30 535 LINE",
"30 381 LINE"
);
},
{
closed = 1;
nodes = (
"435 759 OFFCURVE",
"393 766 OFFCURVE",
"335 766 CURVE SMOOTH",
"186 766 OFFCURVE",
"113 726 OFFCURVE",
"113 572 CURVE SMOOTH",
"113 0 LINE",
"318 0 LINE",
"318 541 LINE SMOOTH",
"318 589 OFFCURVE",
"322 616 OFFCURVE",
"381 616 CURVE SMOOTH",
"418 616 OFFCURVE",
"441 611 OFFCURVE",
"453 609 CURVE",
"453 755 LINE"
);
}
);
userData = {
RMXScaler = {
height = 100.10000;
};
};
width = 454;
}
);
unicode = 0066;
userData = {
RMXScaler = {
source = f;
};
};
},
{
color = 0;
glyphname = g;
lastChange = "2017-09-19 12:33:06 +0000";
layers = (
{
anchors = (
{
name = top;
position = "{336, 525}";
}
);
background = {
paths = (
{
closed = 1;
nodes = (
"449 434 LINE",
"443 434 LINE",
"423 497 OFFCURVE",
"363 540 OFFCURVE",
"277 540 CURVE SMOOTH",
"123 540 OFFCURVE",
"50 424 OFFCURVE",
"50 276 CURVE SMOOTH",
"50 129 OFFCURVE",
"123 15 OFFCURVE",
"277 15 CURVE SMOOTH",
"375 15 OFFCURVE",
"420 69 OFFCURVE",
"439 103 CURVE",
"445 103 LINE",
"445 35 LINE SMOOTH",
"445 -42 OFFCURVE",
"420 -95 OFFCURVE",
"332 -95 CURVE SMOOTH",
"266 -95 OFFCURVE",
"231 -78 OFFCURVE",
"224 -35 CURVE",
"76 -35 LINE",
"83 -154 OFFCURVE",
"158 -210 OFFCURVE",
"327 -210 CURVE SMOOTH",
"511 -210 OFFCURVE",
"585 -112 OFFCURVE",
"585 49 CURVE SMOOTH",
"585 525 LINE",
"462 525 LINE"
);
},
{
closed = 1;
nodes = (
"231 127 OFFCURVE",
"195 181 OFFCURVE",
"195 276 CURVE SMOOTH",
"195 361 OFFCURVE",
"231 418 OFFCURVE",
"317 418 CURVE SMOOTH",
"401 418 OFFCURVE",
"445 361 OFFCURVE",
"445 276 CURVE SMOOTH",
"445 181 OFFCURVE",
"401 127 OFFCURVE",
"317 127 CURVE SMOOTH"
);
}
);
};
layerId = "C76CAC8E-7AD6-478C-8F7E-02FEF6F1EA84";
paths = (
{
closed = 1;
nodes = (
"449 434 LINE",
"443 434 LINE",
"423 497 OFFCURVE",
"363 540 OFFCURVE",
"277 540 CURVE SMOOTH",
"123 540 OFFCURVE",
"50 424 OFFCURVE",
"50 276 CURVE SMOOTH",
"50 129 OFFCURVE",
"123 15 OFFCURVE",
"277 15 CURVE SMOOTH",
"375 15 OFFCURVE",
"420 69 OFFCURVE",
"439 103 CURVE",
"445 103 LINE",
"445 45 LINE SMOOTH",
"445 -52 OFFCURVE",
"418 -95 OFFCURVE",
"330 -95 CURVE SMOOTH",
"264 -95 OFFCURVE",
"231 -78 OFFCURVE",
"224 -35 CURVE",
"76 -35 LINE",
"83 -149 OFFCURVE",
"158 -210 OFFCURVE",
"327 -210 CURVE SMOOTH",
"511 -210 OFFCURVE",
"585 -122 OFFCURVE",
"585 49 CURVE SMOOTH",
"585 525 LINE",
"462 525 LINE"
);
},
{
closed = 1;
nodes = (
"231 127 OFFCURVE",
"195 181 OFFCURVE",
"195 276 CURVE SMOOTH",
"195 361 OFFCURVE",
"231 418 OFFCURVE",
"317 418 CURVE SMOOTH",
"401 418 OFFCURVE",
"445 361 OFFCURVE",
"445 276 CURVE SMOOTH",
"445 181 OFFCURVE",
"401 127 OFFCURVE",
"317 127 CURVE SMOOTH"
);
}
);
width = 668;
},
{
anchors = (
{
name = top;
position = "{323, 515}";
}
);
background = {
paths = (
{
closed = 1;
nodes = (
"484 420 LINE",
"481 420 LINE",
"452 464 OFFCURVE",
"411 530 OFFCURVE",
"299 530 CURVE SMOOTH",
"152 530 OFFCURVE",
"67 428 OFFCURVE",
"67 269 CURVE SMOOTH",
"67 97 OFFCURVE",
"144 -5 OFFCURVE",
"299 -5 CURVE SMOOTH",
"400 -5 OFFCURVE",
"448 58 OFFCURVE",
"475 111 CURVE",
"481 111 LINE",
"481 39 LINE SMOOTH",
"481 -114 OFFCURVE",
"420 -162 OFFCURVE",
"312 -162 CURVE SMOOTH",
"229 -162 OFFCURVE",
"174 -132 OFFCURVE",
"153 -69 CURVE",
"93 -69 LINE",
"116 -163 OFFCURVE",
"194 -210 OFFCURVE",
"312 -210 CURVE SMOOTH",
"453 -210 OFFCURVE",
"536 -140 OFFCURVE",
"536 37 CURVE SMOOTH",
"536 515 LINE",
"494 515 LINE"
);
},
{
closed = 1;
nodes = (
"184 42 OFFCURVE",
"123 123 OFFCURVE",
"123 269 CURVE SMOOTH",
"123 402 OFFCURVE",
"184 483 OFFCURVE",
"298 483 CURVE SMOOTH",
"417 483 OFFCURVE",
"484 381 OFFCURVE",
"484 269 CURVE SMOOTH",
"484 159 OFFCURVE",
"417 42 OFFCURVE",
"298 42 CURVE SMOOTH"
);
}
);
};
layerId = "0A1AFE58-107D-4787-BDA0-D82FB635C3A6";
paths = (
{
closed = 1;
nodes = (
"484 420 LINE",
"481 420 LINE",
"452 464 OFFCURVE",
"411 530 OFFCURVE",
"299 530 CURVE SMOOTH",
"152 530 OFFCURVE",
"67 428 OFFCURVE",
"67 269 CURVE SMOOTH",
"67 97 OFFCURVE",
"144 -5 OFFCURVE",
"299 -5 CURVE SMOOTH",
"400 -5 OFFCURVE",
"448 58 OFFCURVE",
"475 111 CURVE",
"481 111 LINE",
"481 39 LINE SMOOTH",
"481 -114 OFFCURVE",
"420 -162 OFFCURVE",
"312 -162 CURVE SMOOTH",
"209 -162 OFFCURVE",
"160 -123 OFFCURVE",
"149 -60 CURVE",
"93 -60 LINE",
"106 -154 OFFCURVE",
"174 -210 OFFCURVE",
"312 -210 CURVE SMOOTH",
"453 -210 OFFCURVE",
"536 -140 OFFCURVE",
"536 37 CURVE SMOOTH",
"536 515 LINE",
"494 515 LINE"
);
},
{
closed = 1;
nodes = (
"184 42 OFFCURVE",
"123 123 OFFCURVE",
"123 269 CURVE SMOOTH",
"123 402 OFFCURVE",
"184 483 OFFCURVE",
"298 483 CURVE SMOOTH",
"417 483 OFFCURVE",
"484 381 OFFCURVE",
"484 269 CURVE SMOOTH",
"484 159 OFFCURVE",
"417 42 OFFCURVE",
"298 42 CURVE SMOOTH"
);
}
);
width = 638;
},
{
anchors = (
{
name = top;
position = "{356, 535}";
}
);
background = {
paths = (
{
closed = 1;
nodes = (
"428 448 LINE",
"417 448 LINE",
"393 498 OFFCURVE",
"353 550 OFFCURVE",
"262 550 CURVE SMOOTH",
"114 550 OFFCURVE",
"36 440 OFFCURVE",
"36 286 CURVE SMOOTH",
"36 132 OFFCURVE",
"113 32 OFFCURVE",
"252 32 CURVE SMOOTH",
"332 32 OFFCURVE",
"387 67 OFFCURVE",
"415 113 CURVE",
"421 113 LINE",
"421 44 LINE SMOOTH",
"421 -33 OFFCURVE",
"402 -60 OFFCURVE",
"343 -60 CURVE SMOOTH",
"304 -60 OFFCURVE",
"279 -46 OFFCURVE",
"265 -9 CURVE",
"55 -9 LINE",
"83 -146 OFFCURVE",
"164 -210 OFFCURVE",
"343 -210 CURVE SMOOTH",
"550 -210 OFFCURVE",
"626 -109 OFFCURVE",
"626 78 CURVE SMOOTH",
"626 535 LINE",
"445 535 LINE"
);
},
{
closed = 1;
nodes = (
"273 172 OFFCURVE",
"246 210 OFFCURVE",
"246 284 CURVE SMOOTH",
"246 345 OFFCURVE",
"273 385 OFFCURVE",
"334 385 CURVE SMOOTH",
"395 385 OFFCURVE",
"421 345 OFFCURVE",
"421 284 CURVE SMOOTH",
"421 210 OFFCURVE",
"395 172 OFFCURVE",
"334 172 CURVE SMOOTH"
);
}
);
};
layerId = "84435905-EDCB-4949-A8A3-0E53308A2F50";
paths = (
{
closed = 1;
nodes = (
"428 448 LINE",
"417 448 LINE",
"393 498 OFFCURVE",
"353 550 OFFCURVE",
"262 550 CURVE SMOOTH",
"114 550 OFFCURVE",
"36 440 OFFCURVE",
"36 286 CURVE SMOOTH",
"36 132 OFFCURVE",
"113 32 OFFCURVE",
"252 32 CURVE SMOOTH",
"332 32 OFFCURVE",
"387 67 OFFCURVE",
"415 113 CURVE",
"421 113 LINE",
"421 44 LINE SMOOTH",
"421 -33 OFFCURVE",
"401 -60 OFFCURVE",
"342 -60 CURVE SMOOTH",
"303 -60 OFFCURVE",
"274 -46 OFFCURVE",
"270 -9 CURVE",
"62 -9 LINE",
"70 -146 OFFCURVE",
"159 -210 OFFCURVE",
"338 -210 CURVE SMOOTH",
"545 -210 OFFCURVE",
"626 -109 OFFCURVE",
"626 78 CURVE SMOOTH",
"626 535 LINE",
"445 535 LINE"
);
},
{
closed = 1;
nodes = (
"273 172 OFFCURVE",
"246 210 OFFCURVE",
"246 284 CURVE SMOOTH",
"246 345 OFFCURVE",
"273 385 OFFCURVE",
"334 385 CURVE SMOOTH",
"395 385 OFFCURVE",
"421 345 OFFCURVE",
"421 284 CURVE SMOOTH",
"421 210 OFFCURVE",
"395 172 OFFCURVE",
"334 172 CURVE SMOOTH"
);
}
);
userData = {
RMXScaler = {
height = 100.10000;
};
};
width = 685;
}
);
leftMetricsKey = o;
rightMetricsKey = jdotless;
unicode = 0067;
userData = {
RMXScaler = {
source = g;
};
};
},
{
glyphname = h;
lastChange = "2017-09-19 12:32:12 +0000";
layers = (
{
anchors = (
{
name = top;
position = "{150, 730}";
}
);
background = {
paths = (
{
closed = 1;
nodes = (
"223 0 LINE",
"223 288 LINE SMOOTH",
"223 368 OFFCURVE",
"269 415 OFFCURVE",
"342 415 CURVE SMOOTH",
"408 415 OFFCURVE",
"436 381 OFFCURVE",
"436 302 CURVE SMOOTH",
"436 0 LINE",
"576 0 LINE",
"576 350 LINE SMOOTH",
"576 471 OFFCURVE",
"519 540 OFFCURVE",
"402 540 CURVE SMOOTH",
"303 540 OFFCURVE",
"257 494 OFFCURVE",
"220 424 CURVE",
"240 437 LINE",
"205 437 LINE",
"223 433 LINE",
"223 770 LINE",
"83 770 LINE",
"83 0 LINE"
);
}
);
};
layerId = "C76CAC8E-7AD6-478C-8F7E-02FEF6F1EA84";
paths = (
{
closed = 1;
nodes = (
"223 0 LINE",
"223 288 LINE SMOOTH",
"223 368 OFFCURVE",
"269 415 OFFCURVE",
"342 415 CURVE SMOOTH",
"408 415 OFFCURVE",
"436 381 OFFCURVE",
"436 302 CURVE SMOOTH",
"436 0 LINE",
"576 0 LINE",
"576 350 LINE SMOOTH",
"576 471 OFFCURVE",
"519 540 OFFCURVE",
"402 540 CURVE SMOOTH",
"303 540 OFFCURVE",
"257 494 OFFCURVE",
"220 424 CURVE",
"240 437 LINE",
"205 437 LINE",
"223 433 LINE",
"223 750 LINE",
"83 750 LINE",
"83 0 LINE"
);
}
);
width = 654;
},
{
anchors = (
{
name = top;
position = "{134, 731}";
}
);
background = {
paths = (
{
closed = 1;
nodes = (
"162 0 LINE",
"162 278 LINE SMOOTH",
"162 391 OFFCURVE",
"244 477 OFFCURVE",
"343 477 CURVE SMOOTH",
"428 477 OFFCURVE",
"474 432 OFFCURVE",
"474 316 CURVE SMOOTH",
"474 0 LINE",
"529 0 LINE",
"529 345 LINE SMOOTH",
"529 473 OFFCURVE",
"456 529 OFFCURVE",
"349 529 CURVE SMOOTH",
"248 529 OFFCURVE",
"184 470 OFFCURVE",
"151 395 CURVE",
"186 420 LINE",
"147 420 LINE",
"162 400 LINE",
"162 730 LINE",
"107 730 LINE",
"107 0 LINE"
);
}
);
};
layerId = "0A1AFE58-107D-4787-BDA0-D82FB635C3A6";
paths = (
{
closed = 1;
nodes = (
"162 0 LINE",
"162 278 LINE SMOOTH",
"162 391 OFFCURVE",
"244 478 OFFCURVE",
"343 478 CURVE SMOOTH",
"428 478 OFFCURVE",
"474 432 OFFCURVE",
"474 316 CURVE SMOOTH",
"474 0 LINE",
"529 0 LINE",
"529 345 LINE SMOOTH",
"529 473 OFFCURVE",
"456 530 OFFCURVE",
"349 530 CURVE SMOOTH",
"248 530 OFFCURVE",
"184 470 OFFCURVE",
"151 395 CURVE",
"186 420 LINE",
"147 420 LINE",
"162 400 LINE",
"162 750 LINE",
"107 750 LINE",
"107 0 LINE"
);
}
);
width = 626;
},
{
anchors = (
{
name = top;
position = "{164, 741}";
}
);
background = {
paths = (
{
closed = 1;
nodes = (
"269 0 LINE",
"269 279 LINE SMOOTH",
"269 333 OFFCURVE",
"303 367 OFFCURVE",
"356 367 CURVE SMOOTH",
"404 367 OFFCURVE",
"419 342 OFFCURVE",
"419 292 CURVE SMOOTH",
"419 0 LINE",
"624 0 LINE",
"624 347 LINE SMOOTH",
"624 469 OFFCURVE",
"578 549 OFFCURVE",
"451 549 CURVE SMOOTH",
"347 549 OFFCURVE",
"298 491 OFFCURVE",
"262 404 CURVE",
"284 434 LINE",
"250 434 LINE",
"269 413 LINE",
"269 730 LINE",
"64 730 LINE",
"64 0 LINE"
);
}
);
};
layerId = "84435905-EDCB-4949-A8A3-0E53308A2F50";
paths = (
{
closed = 1;
nodes = (
"269 0 LINE",
"269 279 LINE SMOOTH",
"269 333 OFFCURVE",
"303 368 OFFCURVE",
"356 368 CURVE SMOOTH",
"404 368 OFFCURVE",
"419 342 OFFCURVE",
"419 292 CURVE SMOOTH",
"419 0 LINE",
"624 0 LINE",
"624 347 LINE SMOOTH",
"624 469 OFFCURVE",
"578 550 OFFCURVE",
"451 550 CURVE SMOOTH",
"347 550 OFFCURVE",
"298 492 OFFCURVE",
"262 404 CURVE",
"284 434 LINE",
"250 434 LINE",
"269 413 LINE",
"269 750 LINE",
"64 750 LINE",
"64 0 LINE"
);
}
);
userData = {
RMXScaler = {
height = 100.10000;
};
};
width = 681;
}
);
rightMetricsKey = n;
unicode = 0068;
userData = {
RMXScaler = {
source = h;
};
};
},
{
glyphname = i;
lastChange = "2017-09-19 12:32:12 +0000";
layers = (
{
background = {
anchors = (
{
name = ogonek;
position = "{202, 0}";
},
{
name = top;
position = "{150, 525}";
}
);
paths = (
{
closed = 1;
nodes = (
"220 0 LINE",
"220 525 LINE",
"80 525 LINE",
"80 0 LINE"
);
},
{
closed = 1;
nodes = (
"199 600 OFFCURVE",
"233 622 OFFCURVE",
"233 676 CURVE SMOOTH",
"233 730 OFFCURVE",
"199 752 OFFCURVE",
"150 752 CURVE SMOOTH",
"101 752 OFFCURVE",
"67 730 OFFCURVE",
"67 676 CURVE SMOOTH",
"67 622 OFFCURVE",
"101 600 OFFCURVE",
"150 600 CURVE SMOOTH"
);
}
);
};
components = (
{
name = idotless;
},
{
name = dotaccentcomb;
transform = "{1, 0, 0, 1, 153, 1}";
}
);
layerId = "C76CAC8E-7AD6-478C-8F7E-02FEF6F1EA84";
width = 306;
},
{
background = {
anchors = (
{
name = ogonek;
position = "{132, 0}";
},
{
name = top;
position = "{123, 515}";
}
);
paths = (
{
closed = 1;
nodes = (
"150 0 LINE",
"150 515 LINE",
"95 515 LINE",
"95 0 LINE"
);
},
{
closed = 1;
nodes = (
"147 600 OFFCURVE",
"165 614 OFFCURVE",
"165 643 CURVE SMOOTH",
"165 672 OFFCURVE",
"147 686 OFFCURVE",
"123 686 CURVE SMOOTH",
"98 686 OFFCURVE",
"81 672 OFFCURVE",
"81 643 CURVE SMOOTH",
"81 614 OFFCURVE",
"98 600 OFFCURVE",
"123 600 CURVE SMOOTH"
);
}
);
};
components = (
{
name = idotless;
},
{
name = dotaccentcomb;
transform = "{1, 0, 0, 1, 130, 0}";
}
);
layerId = "0A1AFE58-107D-4787-BDA0-D82FB635C3A6";
width = 259;
},
{
background = {
anchors = (
{
name = ogonek;
position = "{226, 0}";
},
{
name = top;
position = "{165, 535}";
}
);
paths = (
{
closed = 1;
nodes = (
"266 0 LINE",
"266 535 LINE",
"61 535 LINE",
"61 0 LINE"
);
},
{
closed = 1;
nodes = (
"235 600 OFFCURVE",
"276 634 OFFCURVE",
"276 697 CURVE SMOOTH",
"276 760 OFFCURVE",
"235 794 OFFCURVE",
"166 794 CURVE SMOOTH",
"95 794 OFFCURVE",
"54 760 OFFCURVE",
"54 697 CURVE SMOOTH",
"54 634 OFFCURVE",
"95 600 OFFCURVE",
"166 600 CURVE SMOOTH"
);
}
);
};
components = (
{
name = idotless;
},
{
name = dotaccentcomb;
transform = "{1, 0, 0, 1, 166, 0}";
}
);
layerId = "84435905-EDCB-4949-A8A3-0E53308A2F50";
userData = {
RMXScaler = {
height = 100.10000;
};
};
width = 329;
}
);
unicode = 0069;
userData = {
RMXScaler = {
source = i;
};
};
},
{
glyphname = j;
lastChange = "2017-10-01 15:46:21 +0000";
layers = (
{
background = {
anchors = (
{
name = top;
position = "{150, 525}";
}
);
paths = (
{
closed = 1;
nodes = (
"-40 -200 LINE",
"-24 -205 OFFCURVE",
"21 -210 OFFCURVE",
"47 -210 CURVE SMOOTH",
"173 -210 OFFCURVE",
"222 -134 OFFCURVE",
"222 -4 CURVE SMOOTH",
"222 525 LINE",
"82 525 LINE",
"82 4 LINE SMOOTH",
"82 -71 OFFCURVE",
"61 -95 OFFCURVE",
"5 -95 CURVE SMOOTH",
"-8 -95 OFFCURVE",
"-27 -94 OFFCURVE",
"-40 -93 CURVE"
);
},
{
closed = 1;
nodes = (
"199 600 OFFCURVE",
"233 622 OFFCURVE",
"233 676 CURVE SMOOTH",
"233 730 OFFCURVE",
"199 752 OFFCURVE",
"150 752 CURVE SMOOTH",
"101 752 OFFCURVE",
"67 730 OFFCURVE",
"67 676 CURVE SMOOTH",
"67 622 OFFCURVE",
"101 600 OFFCURVE",
"150 600 CURVE SMOOTH"
);
}
);
};
components = (
{
name = jdotless;
},
{
name = dotaccentcomb;
transform = "{1, 0, 0, 1, 157, 1}";
}
);
layerId = "C76CAC8E-7AD6-478C-8F7E-02FEF6F1EA84";
width = 312;
},
{
background = {
anchors = (
{
name = top;
position = "{129, 515}";
}
);
paths = (
{
closed = 1;
nodes = (
"-15 -204 LINE",
"-4 -207 OFFCURVE",
"15 -210 OFFCURVE",
"30 -210 CURVE SMOOTH",
"119 -210 OFFCURVE",
"156 -165 OFFCURVE",
"156 -50 CURVE SMOOTH",
"156 515 LINE",
"101 515 LINE",
"101 -50 LINE SMOOTH",
"101 -136 OFFCURVE",
"82 -161 OFFCURVE",
"24 -161 CURVE SMOOTH",
"12 -161 OFFCURVE",
"-5 -159 OFFCURVE",
"-15 -157 CURVE"
);
},
{
closed = 1;
nodes = (
"153 600 OFFCURVE",
"171 614 OFFCURVE",
"171 643 CURVE SMOOTH",
"171 672 OFFCURVE",
"153 686 OFFCURVE",
"129 686 CURVE SMOOTH",
"104 686 OFFCURVE",
"87 672 OFFCURVE",
"87 643 CURVE SMOOTH",
"87 614 OFFCURVE",
"104 600 OFFCURVE",
"129 600 CURVE SMOOTH"
);
}
);
};
components = (
{
name = jdotless;
},
{
name = dotaccentcomb;
transform = "{1, 0, 0, 1, 136, 0}";
}
);
layerId = "0A1AFE58-107D-4787-BDA0-D82FB635C3A6";
width = 265;
},
{
background = {
anchors = (
{
name = top;
position = "{175, 535}";
}
);
paths = (
{
closed = 1;
nodes = (
"-56 -196 LINE",
"-29 -202 OFFCURVE",
"12 -210 OFFCURVE",
"65 -210 CURVE SMOOTH",
"220 -210 OFFCURVE",
"277 -134 OFFCURVE",
"277 31 CURVE SMOOTH",
"277 535 LINE",
"72 535 LINE",
"72 34 LINE SMOOTH",
"72 -32 OFFCURVE",
"51 -56 OFFCURVE",
"-4 -56 CURVE SMOOTH",
"-19 -56 OFFCURVE",
"-40 -53 OFFCURVE",
"-56 -51 CURVE"
);
},
{
closed = 1;
nodes = (
"245 600 OFFCURVE",
"286 634 OFFCURVE",
"286 697 CURVE SMOOTH",
"286 760 OFFCURVE",
"245 794 OFFCURVE",
"176 794 CURVE SMOOTH",
"105 794 OFFCURVE",
"64 760 OFFCURVE",
"64 697 CURVE SMOOTH",
"64 634 OFFCURVE",
"105 600 OFFCURVE",
"176 600 CURVE SMOOTH"
);
}
);
};
components = (
{
name = jdotless;
},
{
name = dotaccentcomb;
transform = "{1, 0, 0, 1, 175, 0}";
}
);
layerId = "84435905-EDCB-4949-A8A3-0E53308A2F50";
userData = {
RMXScaler = {
height = 100.10000;
};
};
width = 336;
}
);
unicode = 006A;
userData = {
RMXScaler = {
source = j;
};
};
},
{
glyphname = k;
lastChange = "2017-09-19 12:32:12 +0000";
layers = (
{
anchors = (
{
name = bottom;
position = "{311, 0}";
}
);
background = {
paths = (
{
closed = 1;
nodes = (
"292 221 LINE",
"573 525 LINE",
"408 525 LINE",
"229 323 LINE",
"196 323 LINE",
"196 221 LINE"
);
},
{
closed = 1;
nodes = (
"223 0 LINE",
"223 750 LINE",
"83 750 LINE",
"83 0 LINE"
);
},
{
closed = 1;
nodes = (
"583 0 LINE",
"313 319 LINE",
"200 253 LINE",
"421 0 LINE"
);
}
);
};
layerId = "C76CAC8E-7AD6-478C-8F7E-02FEF6F1EA84";
paths = (
{
closed = 1;
nodes = (
"289 221 LINE",
"573 525 LINE",
"413 525 LINE",
"229 323 LINE",
"196 323 LINE",
"196 221 LINE"
);
},
{
closed = 1;
nodes = (
"223 0 LINE",
"223 750 LINE",
"83 750 LINE",
"83 0 LINE"
);
},
{
closed = 1;
nodes = (
"583 0 LINE",
"313 316 LINE",
"200 253 LINE",
"421 0 LINE"
);
}
);
width = 589;
},
{
anchors = (
{
name = bottom;
position = "{283, 0}";
}
);
background = {
paths = (
{
closed = 1;
nodes = (
"183 244 LINE",
"494 515 LINE",
"415 515 LINE",
"165 295 LINE",
"143 295 LINE",
"143 244 LINE"
);
},
{
closed = 1;
nodes = (
"162 0 LINE",
"162 750 LINE",
"107 750 LINE",
"107 0 LINE"
);
},
{
closed = 1;
nodes = (
"504 0 LINE",
"208 297 LINE",
"169 259 LINE",
"430 0 LINE"
);
}
);
};
layerId = "0A1AFE58-107D-4787-BDA0-D82FB635C3A6";
paths = (
{
closed = 1;
nodes = (
"178 244 LINE",
"494 515 LINE",
"422 515 LINE",
"165 295 LINE",
"143 295 LINE",
"143 244 LINE"
);
},
{
closed = 1;
nodes = (
"162 0 LINE",
"162 750 LINE",
"107 750 LINE",
"107 0 LINE"
);
},
{
closed = 1;
nodes = (
"504 0 LINE",
"188 296 LINE",
"149 259 LINE",
"432 0 LINE"
);
}
);
width = 521;
},
{
anchors = (
{
name = bottom;
position = "{336, 0}";
}
);
background = {
paths = (
{
closed = 1;
nodes = (
"397 204 LINE",
"629 535 LINE",
"404 535 LINE",
"275 343 LINE",
"235 343 LINE",
"235 204 LINE"
);
},
{
closed = 1;
nodes = (
"269 0 LINE",
"269 750 LINE",
"64 750 LINE",
"64 0 LINE"
);
},
{
closed = 1;
nodes = (
"638 0 LINE",
"457 336 LINE",
"277 253 LINE",
"414 0 LINE"
);
}
);
};
layerId = "84435905-EDCB-4949-A8A3-0E53308A2F50";
paths = (
{
closed = 1;
nodes = (
"383 204 LINE",
"629 535 LINE",
"411 535 LINE",
"275 343 LINE",
"235 343 LINE",
"235 204 LINE"
);
},
{
closed = 1;
nodes = (
"269 0 LINE",
"269 750 LINE",
"64 750 LINE",
"64 0 LINE"
);
},
{
closed = 1;
nodes = (
"638 0 LINE",
"413 331 LINE",
"241 253 LINE",
"416 0 LINE"
);
}
);
userData = {
RMXScaler = {
height = 100.10000;
};
};
width = 644;
}
);
leftMetricsKey = h;
unicode = 006B;
userData = {
RMXScaler = {
source = k;
};
};
},
{
glyphname = l;
lastChange = "2017-09-19 12:32:12 +0000";
layers = (
{
anchors = (
{
name = bottom;
position = "{152, 0}";
},
{
name = periodcentered;
position = "{302, 370}";
},
{
name = top;
position = "{150, 730}";
},
{
name = topright;
position = "{302, 525}";
}
);
background = {
paths = (
{
closed = 1;
nodes = (
"223 0 LINE",
"223 770 LINE",
"83 770 LINE",
"83 0 LINE"
);
}
);
};
layerId = "C76CAC8E-7AD6-478C-8F7E-02FEF6F1EA84";
paths = (
{
closed = 1;
nodes = (
"223 0 LINE",
"223 750 LINE",
"83 750 LINE",
"83 0 LINE"
);
}
);
width = 306;
},
{
anchors = (
{
name = bottom;
position = "{134, 0}";
},
{
name = periodcentered;
position = "{256, 370}";
},
{
name = top;
position = "{134, 731}";
},
{
name = topright;
position = "{256, 515}";
}
);
background = {
paths = (
{
closed = 1;
nodes = (
"162 0 LINE",
"162 730 LINE",
"107 730 LINE",
"107 0 LINE"
);
}
);
};
layerId = "0A1AFE58-107D-4787-BDA0-D82FB635C3A6";
paths = (
{
closed = 1;
nodes = (
"162 0 LINE",
"162 750 LINE",
"107 750 LINE",
"107 0 LINE"
);
}
);
width = 269;
},
{
anchors = (
{
name = bottom;
position = "{167, 0}";
},
{
name = periodcentered;
position = "{324, 370}";
},
{
name = top;
position = "{164, 741}";
},
{
name = topright;
position = "{359, 535}";
}
);
background = {
paths = (
{
closed = 1;
nodes = (
"269 0 LINE",
"269 730 LINE",
"64 730 LINE",
"64 0 LINE"
);
}
);
};
layerId = "84435905-EDCB-4949-A8A3-0E53308A2F50";
paths = (
{
closed = 1;
nodes = (
"269 0 LINE",
"269 750 LINE",
"64 750 LINE",
"64 0 LINE"
);
}
);
userData = {
RMXScaler = {
height = 100.10000;
};
};
width = 333;
}
);
leftMetricsKey = h;
rightMetricsKey = d;
unicode = 006C;
userData = {
RMXScaler = {
source = l;
};
};
},
{
glyphname = m;
lastChange = "2017-09-19 12:32:12 +0000";
layers = (
{
background = {
paths = (
{
closed = 1;
nodes = (
"205 436 LINE",
"205 408 LINE",
"241 408 LINE",
"241 436 LINE"
);
},
{
closed = 1;
nodes = (
"541 429 LINE",
"541 401 LINE",
"577 401 LINE",
"577 429 LINE"
);
},
{
closed = 1;
nodes = (
"653 540 OFFCURVE",
"592 502 OFFCURVE",
"559 414 CURVE",
"545 491 OFFCURVE",
"489 540 OFFCURVE",
"398 540 CURVE SMOOTH",
"307 540 OFFCURVE",
"251 499 OFFCURVE",
"223 418 CURVE",
"204 525 LINE",
"81 525 LINE",
"81 0 LINE",
"221 0 LINE",
"221 308 LINE SMOOTH",
"221 373 OFFCURVE",
"260 413 OFFCURVE",
"333 413 CURVE SMOOTH",
"400 413 OFFCURVE",
"424 379 OFFCURVE",
"424 322 CURVE SMOOTH",
"424 0 LINE",
"564 0 LINE",
"564 308 LINE SMOOTH",
"564 373 OFFCURVE",
"603 413 OFFCURVE",
"676 413 CURVE SMOOTH",
"743 413 OFFCURVE",
"767 379 OFFCURVE",
"767 322 CURVE SMOOTH",
"767 0 LINE",
"907 0 LINE",
"907 370 LINE SMOOTH",
"907 471 OFFCURVE",
"849 540 OFFCURVE",
"741 540 CURVE SMOOTH"
);
}
);
};
layerId = "C76CAC8E-7AD6-478C-8F7E-02FEF6F1EA84";
paths = (
{
closed = 1;
nodes = (
"629 540 OFFCURVE",
"579 494 OFFCURVE",
"541 387 CURVE",
"599 421 LINE",
"505 421 LINE",
"556 388 LINE",
"545 486 OFFCURVE",
"494 540 OFFCURVE",
"395 540 CURVE SMOOTH",
"288 540 OFFCURVE",
"250 487 OFFCURVE",
"211 406 CURVE",
"270 434 LINE",
"174 434 LINE",
"226 390 LINE",
"204 525 LINE",
"81 525 LINE",
"81 0 LINE",
"221 0 LINE",
"221 288 LINE SMOOTH",
"221 363 OFFCURVE",
"267 415 OFFCURVE",
"330 415 CURVE SMOOTH",
"397 415 OFFCURVE",
"423 379 OFFCURVE",
"423 302 CURVE SMOOTH",
"423 0 LINE",
"563 0 LINE",
"563 288 LINE SMOOTH",
"563 363 OFFCURVE",
"609 415 OFFCURVE",
"672 415 CURVE SMOOTH",
"739 415 OFFCURVE",
"765 379 OFFCURVE",
"765 302 CURVE SMOOTH",
"765 0 LINE",
"905 0 LINE",
"905 350 LINE SMOOTH",
"905 471 OFFCURVE",
"849 540 OFFCURVE",
"737 540 CURVE SMOOTH"
);
}
);
width = 983;
},
{
background = {
paths = (
{
closed = 1;
nodes = (
"580 529 OFFCURVE",
"520 470 OFFCURVE",
"488 395 CURVE",
"521 420 LINE",
"484 420 LINE",
"502 394 LINE",
"487 485 OFFCURVE",
"419 529 OFFCURVE",
"329 529 CURVE SMOOTH",
"234 529 OFFCURVE",
"179 470 OFFCURVE",
"147 395 CURVE",
"180 420 LINE",
"143 420 LINE",
"158 400 LINE",
"145 514 LINE",
"102 514 LINE",
"102 0 LINE",
"157 0 LINE",
"157 278 LINE SMOOTH",
"157 391 OFFCURVE",
"229 477 OFFCURVE",
"323 477 CURVE SMOOTH",
"402 477 OFFCURVE",
"448 432 OFFCURVE",
"448 316 CURVE SMOOTH",
"448 0 LINE",
"503 0 LINE",
"503 278 LINE SMOOTH",
"503 391 OFFCURVE",
"575 477 OFFCURVE",
"670 477 CURVE SMOOTH",
"749 477 OFFCURVE",
"794 432 OFFCURVE",
"794 316 CURVE SMOOTH",
"794 0 LINE",
"849 0 LINE",
"849 345 LINE SMOOTH",
"849 473 OFFCURVE",
"776 529 OFFCURVE",
"675 529 CURVE SMOOTH"
);
}
);
};
layerId = "0A1AFE58-107D-4787-BDA0-D82FB635C3A6";
paths = (
{
closed = 1;
nodes = (
"600 530 OFFCURVE",
"530 470 OFFCURVE",
"498 395 CURVE",
"531 420 LINE",
"494 420 LINE",
"512 394 LINE",
"497 485 OFFCURVE",
"429 530 OFFCURVE",
"339 530 CURVE SMOOTH",
"244 530 OFFCURVE",
"179 470 OFFCURVE",
"147 395 CURVE",
"180 420 LINE",
"143 420 LINE",
"158 400 LINE",
"145 515 LINE",
"102 515 LINE",
"102 0 LINE",
"157 0 LINE",
"157 278 LINE SMOOTH",
"157 391 OFFCURVE",
"239 478 OFFCURVE",
"333 478 CURVE SMOOTH",
"412 478 OFFCURVE",
"458 432 OFFCURVE",
"458 316 CURVE SMOOTH",
"458 0 LINE",
"513 0 LINE",
"513 278 LINE SMOOTH",
"513 391 OFFCURVE",
"595 478 OFFCURVE",
"690 478 CURVE SMOOTH",
"769 478 OFFCURVE",
"814 432 OFFCURVE",
"814 316 CURVE SMOOTH",
"814 0 LINE",
"869 0 LINE",
"869 345 LINE SMOOTH",
"869 473 OFFCURVE",
"796 530 OFFCURVE",
"695 530 CURVE SMOOTH"
);
}
);
width = 966;
},
{
layerId = "84435905-EDCB-4949-A8A3-0E53308A2F50";
paths = (
{
closed = 1;
nodes = (
"671 550 OFFCURVE",
"626 493 OFFCURVE",
"592 390 CURVE",
"642 420 LINE",
"554 420 LINE",
"603 388 LINE",
"593 486 OFFCURVE",
"545 550 OFFCURVE",
"438 550 CURVE SMOOTH",
"331 550 OFFCURVE",
"290 488 OFFCURVE",
"253 398 CURVE",
"305 427 LINE",
"216 427 LINE",
"268 383 LINE",
"241 535 LINE",
"60 535 LINE",
"60 0 LINE",
"265 0 LINE",
"265 281 LINE SMOOTH",
"265 334 OFFCURVE",
"304 368 OFFCURVE",
"344 368 CURVE SMOOTH",
"380 368 OFFCURVE",
"400 345 OFFCURVE",
"400 292 CURVE SMOOTH",
"400 0 LINE",
"605 0 LINE",
"605 281 LINE SMOOTH",
"605 334 OFFCURVE",
"644 368 OFFCURVE",
"684 368 CURVE SMOOTH",
"720 368 OFFCURVE",
"740 345 OFFCURVE",
"740 292 CURVE SMOOTH",
"740 0 LINE",
"945 0 LINE",
"945 347 LINE SMOOTH",
"945 469 OFFCURVE",
"900 550 OFFCURVE",
"778 550 CURVE SMOOTH"
);
}
);
userData = {
RMXScaler = {
height = 100.10000;
};
};
width = 1002;
}
);
leftMetricsKey = n;
rightMetricsKey = n;
unicode = 006D;
userData = {
RMXScaler = {
source = m;
};
};
},
{
color = 4;
glyphname = n;
lastChange = "2017-09-19 12:32:24 +0000";
layers = (
{
anchors = (
{
name = apostrophe;
position = "{0, 525}";
},
{
name = bottom;
position = "{322, 0}";
},
{
name = top;
position = "{314, 525}";
}
);
background = {
paths = (
{
closed = 1;
nodes = (
"221 0 LINE",
"221 288 LINE SMOOTH",
"221 368 OFFCURVE",
"267 415 OFFCURVE",
"343 415 CURVE SMOOTH",
"406 415 OFFCURVE",
"434 381 OFFCURVE",
"434 302 CURVE SMOOTH",
"434 0 LINE",
"574 0 LINE",
"574 350 LINE SMOOTH",
"574 471 OFFCURVE",
"517 540 OFFCURVE",
"400 540 CURVE SMOOTH",
"301 540 OFFCURVE",
"255 494 OFFCURVE",
"218 424 CURVE",
"238 437 LINE",
"203 437 LINE",
"221 427 LINE",
"204 525 LINE",
"81 525 LINE",
"81 0 LINE"
);
}
);
};
layerId = "C76CAC8E-7AD6-478C-8F7E-02FEF6F1EA84";
paths = (
{
closed = 1;
nodes = (
"221 0 LINE",
"221 288 LINE SMOOTH",
"221 368 OFFCURVE",
"267 415 OFFCURVE",
"343 415 CURVE SMOOTH",
"406 415 OFFCURVE",
"434 381 OFFCURVE",
"434 302 CURVE SMOOTH",
"434 0 LINE",
"574 0 LINE",
"574 350 LINE SMOOTH",
"574 471 OFFCURVE",
"517 540 OFFCURVE",
"400 540 CURVE SMOOTH",
"301 540 OFFCURVE",
"255 494 OFFCURVE",
"218 424 CURVE",
"238 437 LINE",
"203 437 LINE",
"221 427 LINE",
"204 525 LINE",
"81 525 LINE",
"81 0 LINE"
);
}
);
width = 652;
},
{
anchors = (
{
name = apostrophe;
position = "{0, 515}";
},
{
name = bottom;
position = "{306, 0}";
},
{
name = top;
position = "{310, 515}";
}
);
background = {
paths = (
{
closed = 1;
nodes = (
"157 0 LINE",
"157 278 LINE SMOOTH",
"157 391 OFFCURVE",
"239 478 OFFCURVE",
"338 478 CURVE SMOOTH",
"423 478 OFFCURVE",
"469 432 OFFCURVE",
"469 316 CURVE SMOOTH",
"469 0 LINE",
"524 0 LINE",
"524 345 LINE SMOOTH",
"524 473 OFFCURVE",
"451 530 OFFCURVE",
"344 530 CURVE SMOOTH",
"243 530 OFFCURVE",
"179 470 OFFCURVE",
"146 395 CURVE",
"181 420 LINE",
"142 420 LINE",
"158 400 LINE",
"145 515 LINE",
"102 515 LINE",
"102 0 LINE"
);
}
);
};
layerId = "0A1AFE58-107D-4787-BDA0-D82FB635C3A6";
paths = (
{
closed = 1;
nodes = (
"157 0 LINE",
"157 276 LINE SMOOTH",
"157 397 OFFCURVE",
"237 478 OFFCURVE",
"338 478 CURVE SMOOTH",
"426 478 OFFCURVE",
"469 428 OFFCURVE",
"469 330 CURVE SMOOTH",
"469 0 LINE",
"524 0 LINE",
"524 345 LINE SMOOTH",
"524 464 OFFCURVE",
"459 530 OFFCURVE",
"343 530 CURVE SMOOTH",
"245 530 OFFCURVE",
"180 470 OFFCURVE",
"148 395 CURVE",
"181 420 LINE",
"142 420 LINE",
"158 400 LINE",
"145 515 LINE",
"102 515 LINE",
"102 0 LINE"
);
}
);
width = 621;
},
{
anchors = (
{
name = apostrophe;
position = "{0, 535}";
},
{
name = bottom;
position = "{339, 0}";
},
{
name = top;
position = "{341, 535}";
}
);
layerId = "84435905-EDCB-4949-A8A3-0E53308A2F50";
paths = (
{
closed = 1;
nodes = (
"265 0 LINE",
"265 279 LINE SMOOTH",
"265 335 OFFCURVE",
"301 368 OFFCURVE",
"351 368 CURVE SMOOTH",
"399 368 OFFCURVE",
"414 342 OFFCURVE",
"414 292 CURVE SMOOTH",
"414 0 LINE",
"619 0 LINE",
"619 347 LINE SMOOTH",
"619 469 OFFCURVE",
"573 550 OFFCURVE",
"447 550 CURVE SMOOTH",
"339 550 OFFCURVE",
"288 489 OFFCURVE",
"253 397 CURVE",
"275 427 LINE",
"245 427 LINE",
"265 405 LINE",
"241 535 LINE",
"60 535 LINE",
"60 0 LINE"
);
}
);
userData = {
RMXScaler = {
height = 100.10000;
};
};
width = 676;
}
);
unicode = 006E;
userData = {
RMXScaler = {
source = n;
};
};
},
{
color = 4;
glyphname = o;
lastChange = "2017-09-19 12:32:24 +0000";
layers = (
{
anchors = (
{
name = top;
position = "{317, 525}";
}
);
background = {
paths = (
{
closed = 1;
nodes = (
"484 -15 OFFCURVE",
"587 83 OFFCURVE",
"587 263 CURVE SMOOTH",
"587 442 OFFCURVE",
"484 540 OFFCURVE",
"316 540 CURVE SMOOTH",
"150 540 OFFCURVE",
"47 442 OFFCURVE",
"47 263 CURVE SMOOTH",
"47 83 OFFCURVE",
"150 -15 OFFCURVE",
"316 -15 CURVE SMOOTH"
);
},
{
closed = 1;
nodes = (
"232 95 OFFCURVE",
"190 152 OFFCURVE",
"190 263 CURVE SMOOTH",
"190 373 OFFCURVE",
"232 430 OFFCURVE",
"316 430 CURVE SMOOTH",
"401 430 OFFCURVE",
"443 373 OFFCURVE",
"443 263 CURVE SMOOTH",
"443 152 OFFCURVE",
"401 95 OFFCURVE",
"316 95 CURVE SMOOTH"
);
}
);
};
layerId = "C76CAC8E-7AD6-478C-8F7E-02FEF6F1EA84";
paths = (
{
closed = 1;
nodes = (
"493 -15 OFFCURVE",
"584 86 OFFCURVE",
"584 263 CURVE SMOOTH",
"584 439 OFFCURVE",
"493 540 OFFCURVE",
"317 540 CURVE SMOOTH",
"141 540 OFFCURVE",
"50 439 OFFCURVE",
"50 263 CURVE SMOOTH",
"50 86 OFFCURVE",
"141 -15 OFFCURVE",
"317 -15 CURVE SMOOTH"
);
},
{
closed = 1;
nodes = (
"230 100 OFFCURVE",
"195 157 OFFCURVE",
"195 263 CURVE SMOOTH",
"195 368 OFFCURVE",
"230 425 OFFCURVE",
"317 425 CURVE SMOOTH",
"404 425 OFFCURVE",
"439 368 OFFCURVE",
"439 263 CURVE SMOOTH",
"439 157 OFFCURVE",
"404 100 OFFCURVE",
"317 100 CURVE SMOOTH"
);
}
);
width = 634;
},
{
anchors = (
{
name = top;
position = "{307, 515}";
}
);
background = {
paths = (
{
closed = 1;
nodes = (
"447 -15 OFFCURVE",
"547 78 OFFCURVE",
"547 257 CURVE SMOOTH",
"547 436 OFFCURVE",
"447 530 OFFCURVE",
"307 530 CURVE SMOOTH",
"168 530 OFFCURVE",
"67 436 OFFCURVE",
"67 257 CURVE SMOOTH",
"67 78 OFFCURVE",
"168 -15 OFFCURVE",
"307 -15 CURVE SMOOTH"
);
},
{
closed = 1;
nodes = (
"191 32 OFFCURVE",
"123 108 OFFCURVE",
"123 257 CURVE SMOOTH",
"123 406 OFFCURVE",
"191 483 OFFCURVE",
"307 483 CURVE SMOOTH",
"423 483 OFFCURVE",
"491 406 OFFCURVE",
"491 257 CURVE SMOOTH",
"491 108 OFFCURVE",
"423 32 OFFCURVE",
"307 32 CURVE SMOOTH"
);
}
);
};
guideLines = (
{
angle = 270;
position = "{307, 379}";
}
);
layerId = "0A1AFE58-107D-4787-BDA0-D82FB635C3A6";
paths = (
{
closed = 1;
nodes = (
"456 -15 OFFCURVE",
"547 84 OFFCURVE",
"547 258 CURVE SMOOTH",
"547 432 OFFCURVE",
"456 530 OFFCURVE",
"307 530 CURVE SMOOTH",
"158 530 OFFCURVE",
"67 432 OFFCURVE",
"67 258 CURVE SMOOTH",
"67 84 OFFCURVE",
"158 -15 OFFCURVE",
"307 -15 CURVE SMOOTH"
);
},
{
closed = 1;
nodes = (
"185 33 OFFCURVE",
"123 110 OFFCURVE",
"123 258 CURVE SMOOTH",
"123 406 OFFCURVE",
"185 482 OFFCURVE",
"307 482 CURVE SMOOTH",
"429 482 OFFCURVE",
"491 406 OFFCURVE",
"491 258 CURVE SMOOTH",
"491 110 OFFCURVE",
"429 33 OFFCURVE",
"307 33 CURVE SMOOTH"
);
}
);
width = 614;
},
{
anchors = (
{
name = top;
position = "{328, 535}";
}
);
layerId = "84435905-EDCB-4949-A8A3-0E53308A2F50";
paths = (
{
closed = 1;
nodes = (
"517 -15 OFFCURVE",
"620 88 OFFCURVE",
"620 267 CURVE SMOOTH",
"620 446 OFFCURVE",
"517 550 OFFCURVE",
"328 550 CURVE SMOOTH",
"139 550 OFFCURVE",
"36 446 OFFCURVE",
"36 267 CURVE SMOOTH",
"36 88 OFFCURVE",
"139 -15 OFFCURVE",
"328 -15 CURVE SMOOTH"
);
},
{
closed = 1;
nodes = (
"267 143 OFFCURVE",
"246 183 OFFCURVE",
"246 267 CURVE SMOOTH",
"246 351 OFFCURVE",
"267 391 OFFCURVE",
"328 391 CURVE SMOOTH",
"389 391 OFFCURVE",
"410 351 OFFCURVE",
"410 267 CURVE SMOOTH",
"410 183 OFFCURVE",
"389 143 OFFCURVE",
"328 143 CURVE SMOOTH"
);
}
);
userData = {
RMXScaler = {
height = 100.10000;
};
};
width = 656;
},
{
anchors = (
{
name = top;
position = "{306, 515}";
}
);
associatedMasterId = "0A1AFE58-107D-4787-BDA0-D82FB635C3A6";
background = {
paths = (
{
closed = 1;
nodes = (
"447 -15 OFFCURVE",
"547 78 OFFCURVE",
"547 257 CURVE SMOOTH",
"547 436 OFFCURVE",
"447 530 OFFCURVE",
"307 530 CURVE SMOOTH",
"168 530 OFFCURVE",
"67 436 OFFCURVE",
"67 257 CURVE SMOOTH",
"67 78 OFFCURVE",
"168 -15 OFFCURVE",
"307 -15 CURVE SMOOTH"
);
},
{
closed = 1;
nodes = (
"191 32 OFFCURVE",
"123 108 OFFCURVE",
"123 257 CURVE SMOOTH",
"123 406 OFFCURVE",
"191 483 OFFCURVE",
"307 483 CURVE SMOOTH",
"423 483 OFFCURVE",
"491 406 OFFCURVE",
"491 257 CURVE SMOOTH",
"491 108 OFFCURVE",
"423 32 OFFCURVE",
"307 32 CURVE SMOOTH"
);
}
);
};
layerId = "945ACBA1-6E87-4E3A-800B-E127291E1D74";
name = "Sep 19 17, 13:24";
paths = (
{
closed = 1;
nodes = (
"457 -15 OFFCURVE",
"547 84 OFFCURVE",
"547 257 CURVE SMOOTH",
"547 430 OFFCURVE",
"457 529 OFFCURVE",
"307 529 CURVE SMOOTH",
"157 529 OFFCURVE",
"67 430 OFFCURVE",
"67 257 CURVE SMOOTH",
"67 84 OFFCURVE",
"157 -15 OFFCURVE",
"307 -15 CURVE SMOOTH"
);
},
{
closed = 1;
nodes = (
"185 33 OFFCURVE",
"123 109 OFFCURVE",
"123 257 CURVE SMOOTH",
"123 405 OFFCURVE",
"185 481 OFFCURVE",
"307 481 CURVE SMOOTH",
"429 481 OFFCURVE",
"491 405 OFFCURVE",
"491 257 CURVE SMOOTH",
"491 109 OFFCURVE",
"429 33 OFFCURVE",
"307 33 CURVE SMOOTH"
);
}
);
width = 614;
}
);
unicode = 006F;
userData = {
RMXScaler = {
source = o;
};
};
},
{
glyphname = p;
lastChange = "2017-09-20 08:54:38 +0000";
layers = (
{
anchors = (
{
name = bottomleft;
position = "{7, 0}";
}
);
background = {
paths = (
{
closed = 1;
nodes = (
"221 79 LINE",
"226 79 LINE",
"257 17 OFFCURVE",
"313 -15 OFFCURVE",
"387 -15 CURVE SMOOTH",
"530 -15 OFFCURVE",
"616 89 OFFCURVE",
"616 262 CURVE SMOOTH",
"616 435 OFFCURVE",
"530 539 OFFCURVE",
"387 539 CURVE SMOOTH",
"313 539 OFFCURVE",
"257 506 OFFCURVE",
"226 440 CURVE",
"219 440 LINE",
"204 525 LINE",
"81 525 LINE",
"81 -245 LINE",
"221 -245 LINE"
);
},
{
closed = 1;
nodes = (
"430 419 OFFCURVE",
"471 369 OFFCURVE",
"471 262 CURVE SMOOTH",
"471 155 OFFCURVE",
"430 105 OFFCURVE",
"345 105 CURVE SMOOTH",
"264 105 OFFCURVE",
"221 160 OFFCURVE",
"221 262 CURVE SMOOTH",
"221 364 OFFCURVE",
"264 419 OFFCURVE",
"345 419 CURVE SMOOTH"
);
}
);
};
layerId = "C76CAC8E-7AD6-478C-8F7E-02FEF6F1EA84";
paths = (
{
closed = 1;
nodes = (
"221 -195 LINE",
"221 79 LINE",
"226 79 LINE",
"257 17 OFFCURVE",
"313 -15 OFFCURVE",
"387 -15 CURVE SMOOTH",
"530 -15 OFFCURVE",
"616 89 OFFCURVE",
"616 262 CURVE SMOOTH",
"616 435 OFFCURVE",
"530 540 OFFCURVE",
"387 540 CURVE SMOOTH",
"313 540 OFFCURVE",
"257 506 OFFCURVE",
"226 440 CURVE",
"219 440 LINE",
"204 525 LINE",
"81 525 LINE",
"81 -195 LINE"
);
},
{
closed = 1;
nodes = (
"264 105 OFFCURVE",
"221 160 OFFCURVE",
"221 262 CURVE SMOOTH",
"221 364 OFFCURVE",
"264 420 OFFCURVE",
"345 420 CURVE SMOOTH",
"430 420 OFFCURVE",
"471 369 OFFCURVE",
"471 262 CURVE SMOOTH",
"471 155 OFFCURVE",
"430 105 OFFCURVE",
"345 105 CURVE SMOOTH"
);
}
);
width = 666;
},
{
anchors = (
{
name = bottomleft;
position = "{7, 0}";
}
);
background = {
paths = (
{
closed = 1;
nodes = (
"157 -195 LINE",
"157 90 LINE",
"162 90 LINE",
"199 19 OFFCURVE",
"257 -15 OFFCURVE",
"340 -15 CURVE SMOOTH",
"482 -15 OFFCURVE",
"569 89 OFFCURVE",
"569 257 CURVE SMOOTH",
"569 429 OFFCURVE",
"487 530 OFFCURVE",
"340 530 CURVE SMOOTH",
"238 530 OFFCURVE",
"187 467 OFFCURVE",
"161 413 CURVE",
"157 413 LINE",
"143 515 LINE",
"102 515 LINE",
"102 -195 LINE"
);
},
{
closed = 1;
nodes = (
"218 32 OFFCURVE",
"152 133 OFFCURVE",
"152 257 CURVE SMOOTH",
"152 365 OFFCURVE",
"218 483 OFFCURVE",
"338 483 CURVE SMOOTH",
"457 483 OFFCURVE",
"513 403 OFFCURVE",
"513 257 CURVE SMOOTH",
"513 113 OFFCURVE",
"450 32 OFFCURVE",
"338 32 CURVE SMOOTH"
);
}
);
};
layerId = "0A1AFE58-107D-4787-BDA0-D82FB635C3A6";
paths = (
{
closed = 1;
nodes = (
"157 -195 LINE",
"157 89 LINE",
"162 89 LINE",
"193 25 OFFCURVE",
"253 -15 OFFCURVE",
"339 -15 CURVE SMOOTH",
"487 -15 OFFCURVE",
"568 87 OFFCURVE",
"568 258 CURVE SMOOTH",
"568 428 OFFCURVE",
"487 530 OFFCURVE",
"339 530 CURVE SMOOTH",
"253 530 OFFCURVE",
"193 490 OFFCURVE",
"160 414 CURVE",
"156 414 LINE",
"144 515 LINE",
"102 515 LINE",
"102 -195 LINE"
);
},
{
closed = 1;
nodes = (
"213 32 OFFCURVE",
"153 134 OFFCURVE",
"153 258 CURVE SMOOTH",
"153 381 OFFCURVE",
"213 483 OFFCURVE",
"337 483 CURVE SMOOTH",
"453 483 OFFCURVE",
"512 405 OFFCURVE",
"512 258 CURVE SMOOTH",
"512 110 OFFCURVE",
"453 32 OFFCURVE",
"337 32 CURVE SMOOTH"
);
}
);
width = 635;
},
{
anchors = (
{
name = bottomleft;
position = "{7, 0}";
}
);
background = {
paths = (
{
closed = 1;
nodes = (
"265 79 LINE",
"271 79 LINE",
"292 32 OFFCURVE",
"346 -15 OFFCURVE",
"432 -15 CURVE SMOOTH",
"569 -15 OFFCURVE",
"649 92 OFFCURVE",
"649 267 CURVE SMOOTH",
"649 441 OFFCURVE",
"569 548 OFFCURVE",
"432 548 CURVE SMOOTH",
"346 548 OFFCURVE",
"292 501 OFFCURVE",
"271 453 CURVE",
"258 453 LINE",
"241 534 LINE",
"60 534 LINE",
"60 -236 LINE",
"265 -236 LINE"
);
},
{
closed = 1;
nodes = (
"413 383 OFFCURVE",
"439 345 OFFCURVE",
"439 267 CURVE SMOOTH",
"439 188 OFFCURVE",
"413 150 OFFCURVE",
"352 150 CURVE SMOOTH",
"295 150 OFFCURVE",
"265 189 OFFCURVE",
"265 267 CURVE SMOOTH",
"265 344 OFFCURVE",
"295 383 OFFCURVE",
"352 383 CURVE SMOOTH"
);
}
);
};
layerId = "84435905-EDCB-4949-A8A3-0E53308A2F50";
paths = (
{
closed = 1;
nodes = (
"265 -195 LINE",
"265 79 LINE",
"271 79 LINE",
"292 32 OFFCURVE",
"346 -15 OFFCURVE",
"432 -15 CURVE SMOOTH",
"569 -15 OFFCURVE",
"649 92 OFFCURVE",
"649 267 CURVE SMOOTH",
"649 441 OFFCURVE",
"569 550 OFFCURVE",
"432 550 CURVE SMOOTH",
"346 550 OFFCURVE",
"292 502 OFFCURVE",
"271 453 CURVE",
"258 453 LINE",
"241 535 LINE",
"60 535 LINE",
"60 -195 LINE"
);
},
{
closed = 1;
nodes = (
"295 150 OFFCURVE",
"265 189 OFFCURVE",
"265 267 CURVE SMOOTH",
"265 344 OFFCURVE",
"295 384 OFFCURVE",
"352 384 CURVE SMOOTH",
"413 384 OFFCURVE",
"439 345 OFFCURVE",
"439 267 CURVE SMOOTH",
"439 188 OFFCURVE",
"413 150 OFFCURVE",
"352 150 CURVE SMOOTH"
);
}
);
userData = {
RMXScaler = {
height = 100.10000;
};
};
width = 685;
}
);
leftMetricsKey = n;
rightMetricsKey = o;
unicode = 0070;
userData = {
RMXScaler = {
source = p;
};
};
},
{
glyphname = q;
lastChange = "2017-09-19 12:32:12 +0000";
layers = (
{
background = {
paths = (
{
closed = 1;
nodes = (
"585 -245 LINE",
"585 525 LINE",
"462 525 LINE",
"447 440 LINE",
"440 440 LINE",
"409 506 OFFCURVE",
"353 539 OFFCURVE",
"279 539 CURVE SMOOTH",
"136 539 OFFCURVE",
"50 435 OFFCURVE",
"50 262 CURVE SMOOTH",
"50 89 OFFCURVE",
"136 -15 OFFCURVE",
"279 -15 CURVE SMOOTH",
"353 -15 OFFCURVE",
"409 17 OFFCURVE",
"440 79 CURVE",
"445 79 LINE",
"445 -245 LINE"
);
},
{
closed = 1;
nodes = (
"402 419 OFFCURVE",
"445 364 OFFCURVE",
"445 262 CURVE SMOOTH",
"445 160 OFFCURVE",
"402 105 OFFCURVE",
"321 105 CURVE SMOOTH",
"236 105 OFFCURVE",
"195 155 OFFCURVE",
"195 262 CURVE SMOOTH",
"195 369 OFFCURVE",
"236 419 OFFCURVE",
"321 419 CURVE SMOOTH"
);
}
);
};
layerId = "C76CAC8E-7AD6-478C-8F7E-02FEF6F1EA84";
paths = (
{
closed = 1;
nodes = (
"585 -195 LINE",
"585 525 LINE",
"462 525 LINE",
"447 440 LINE",
"440 440 LINE",
"409 506 OFFCURVE",
"353 540 OFFCURVE",
"279 540 CURVE SMOOTH",
"136 540 OFFCURVE",
"50 435 OFFCURVE",
"50 262 CURVE SMOOTH",
"50 89 OFFCURVE",
"136 -15 OFFCURVE",
"279 -15 CURVE SMOOTH",
"353 -15 OFFCURVE",
"409 17 OFFCURVE",
"440 79 CURVE",
"445 79 LINE",
"445 -195 LINE"
);
},
{
closed = 1;
nodes = (
"236 105 OFFCURVE",
"195 155 OFFCURVE",
"195 262 CURVE SMOOTH",
"195 369 OFFCURVE",
"236 420 OFFCURVE",
"321 420 CURVE SMOOTH",
"402 420 OFFCURVE",
"445 364 OFFCURVE",
"445 262 CURVE SMOOTH",
"445 160 OFFCURVE",
"402 105 OFFCURVE",
"321 105 CURVE SMOOTH"
);
}
);
width = 668;
},
{
background = {
paths = (
{
closed = 1;
nodes = (
"534 -235 LINE",
"534 515 LINE",
"493 515 LINE",
"479 414 LINE",
"475 414 LINE",
"449 467 OFFCURVE",
"398 530 OFFCURVE",
"296 530 CURVE SMOOTH",
"149 530 OFFCURVE",
"67 429 OFFCURVE",
"67 258 CURVE SMOOTH",
"67 89 OFFCURVE",
"154 -15 OFFCURVE",
"296 -15 CURVE SMOOTH",
"379 -15 OFFCURVE",
"437 19 OFFCURVE",
"474 90 CURVE",
"479 90 LINE",
"479 -235 LINE"
);
},
{
closed = 1;
nodes = (
"418 483 OFFCURVE",
"484 366 OFFCURVE",
"484 258 CURVE SMOOTH",
"484 134 OFFCURVE",
"418 32 OFFCURVE",
"298 32 CURVE SMOOTH",
"185 32 OFFCURVE",
"123 113 OFFCURVE",
"123 258 CURVE SMOOTH",
"123 403 OFFCURVE",
"179 483 OFFCURVE",
"298 483 CURVE SMOOTH"
);
}
);
};
layerId = "0A1AFE58-107D-4787-BDA0-D82FB635C3A6";
paths = (
{
closed = 1;
nodes = (
"534 -195 LINE",
"534 515 LINE",
"493 515 LINE",
"479 413 LINE",
"475 413 LINE",
"449 467 OFFCURVE",
"398 530 OFFCURVE",
"296 530 CURVE SMOOTH",
"149 530 OFFCURVE",
"67 429 OFFCURVE",
"67 257 CURVE SMOOTH",
"67 89 OFFCURVE",
"154 -15 OFFCURVE",
"296 -15 CURVE SMOOTH",
"379 -15 OFFCURVE",
"437 19 OFFCURVE",
"474 90 CURVE",
"479 90 LINE",
"479 -195 LINE"
);
},
{
closed = 1;
nodes = (
"186 32 OFFCURVE",
"123 113 OFFCURVE",
"123 257 CURVE SMOOTH",
"123 403 OFFCURVE",
"179 483 OFFCURVE",
"298 483 CURVE SMOOTH",
"418 483 OFFCURVE",
"484 365 OFFCURVE",
"484 257 CURVE SMOOTH",
"484 133 OFFCURVE",
"418 32 OFFCURVE",
"298 32 CURVE SMOOTH"
);
}
);
width = 636;
},
{
layerId = "84435905-EDCB-4949-A8A3-0E53308A2F50";
paths = (
{
closed = 1;
nodes = (
"625 -195 LINE",
"625 535 LINE",
"444 535 LINE",
"427 453 LINE",
"414 453 LINE",
"393 502 OFFCURVE",
"339 550 OFFCURVE",
"253 550 CURVE SMOOTH",
"116 550 OFFCURVE",
"36 441 OFFCURVE",
"36 267 CURVE SMOOTH",
"36 92 OFFCURVE",
"116 -15 OFFCURVE",
"253 -15 CURVE SMOOTH",
"339 -15 OFFCURVE",
"393 32 OFFCURVE",
"414 79 CURVE",
"420 79 LINE",
"420 -195 LINE"
);
},
{
closed = 1;
nodes = (
"272 150 OFFCURVE",
"246 188 OFFCURVE",
"246 267 CURVE SMOOTH",
"246 345 OFFCURVE",
"272 384 OFFCURVE",
"333 384 CURVE SMOOTH",
"390 384 OFFCURVE",
"420 344 OFFCURVE",
"420 267 CURVE SMOOTH",
"420 189 OFFCURVE",
"390 150 OFFCURVE",
"333 150 CURVE SMOOTH"
);
}
);
userData = {
RMXScaler = {
height = 100.10000;
};
};
width = 687;
}
);
leftMetricsKey = o;
rightMetricsKey = idotless;
unicode = 0071;
userData = {
RMXScaler = {
source = q;
};
};
},
{
glyphname = r;
lastChange = "2017-09-19 12:32:12 +0000";
layers = (
{
anchors = (
{
name = bottom;
position = "{149, 0}";
},
{
name = top;
position = "{264, 525}";
}
);
background = {
paths = (
{
closed = 1;
nodes = (
"241 431 LINE",
"206 431 LINE",
"221 426 LINE",
"204 525 LINE",
"81 525 LINE",
"81 0 LINE",
"221 0 LINE",
"221 291 LINE SMOOTH",
"221 366 OFFCURVE",
"281 405 OFFCURVE",
"357 405 CURVE SMOOTH",
"379 405 OFFCURVE",
"398 403 OFFCURVE",
"414 400 CURVE",
"414 535 LINE",
"401 538 OFFCURVE",
"384 540 OFFCURVE",
"365 540 CURVE SMOOTH",
"281 540 OFFCURVE",
"230 486 OFFCURVE",
"207 354 CURVE"
);
}
);
};
layerId = "C76CAC8E-7AD6-478C-8F7E-02FEF6F1EA84";
paths = (
{
closed = 1;
nodes = (
"241 431 LINE",
"220 431 LINE",
"204 525 LINE",
"81 525 LINE",
"81 0 LINE",
"221 0 LINE",
"221 291 LINE SMOOTH",
"221 366 OFFCURVE",
"281 405 OFFCURVE",
"357 405 CURVE SMOOTH",
"379 405 OFFCURVE",
"398 403 OFFCURVE",
"414 400 CURVE",
"414 535 LINE",
"401 538 OFFCURVE",
"384 540 OFFCURVE",
"365 540 CURVE SMOOTH",
"281 540 OFFCURVE",
"230 486 OFFCURVE",
"207 354 CURVE"
);
}
);
width = 424;
},
{
anchors = (
{
name = bottom;
position = "{130, 0}";
},
{
name = top;
position = "{230, 515}";
}
);
background = {
paths = (
{
closed = 1;
nodes = (
"181 420 LINE",
"142 420 LINE",
"158 400 LINE",
"145 515 LINE",
"102 515 LINE",
"102 0 LINE",
"157 0 LINE",
"157 278 LINE SMOOTH",
"157 396 OFFCURVE",
"226 475 OFFCURVE",
"328 475 CURVE SMOOTH",
"340 475 OFFCURVE",
"361 472 OFFCURVE",
"372 469 CURVE",
"372 522 LINE",
"357 527 OFFCURVE",
"341 530 OFFCURVE",
"320 530 CURVE SMOOTH",
"235 530 OFFCURVE",
"181 475 OFFCURVE",
"148 395 CURVE"
);
}
);
};
layerId = "0A1AFE58-107D-4787-BDA0-D82FB635C3A6";
paths = (
{
closed = 1;
nodes = (
"181 420 LINE",
"156 420 LINE",
"145 515 LINE",
"102 515 LINE",
"102 0 LINE",
"157 0 LINE",
"157 278 LINE SMOOTH",
"157 396 OFFCURVE",
"226 475 OFFCURVE",
"328 475 CURVE SMOOTH",
"340 475 OFFCURVE",
"361 472 OFFCURVE",
"372 469 CURVE",
"372 522 LINE",
"357 527 OFFCURVE",
"341 530 OFFCURVE",
"320 530 CURVE SMOOTH",
"235 530 OFFCURVE",
"181 475 OFFCURVE",
"148 395 CURVE"
);
}
);
width = 379;
},
{
anchors = (
{
name = bottom;
position = "{163, 0}";
},
{
name = top;
position = "{251, 535}";
}
);
background = {
paths = (
{
closed = 1;
nodes = (
"282 422 LINE",
"248 422 LINE",
"262 417 LINE",
"241 535 LINE",
"60 535 LINE",
"60 0 LINE",
"265 0 LINE",
"265 249 LINE SMOOTH",
"265 316 OFFCURVE",
"314 358 OFFCURVE",
"388 358 CURVE SMOOTH",
"410 358 OFFCURVE",
"428 356 OFFCURVE",
"444 353 CURVE",
"444 544 LINE",
"432 548 OFFCURVE",
"408 550 OFFCURVE",
"396 550 CURVE SMOOTH",
"296 550 OFFCURVE",
"268 480 OFFCURVE",
"256 345 CURVE"
);
}
);
};
layerId = "84435905-EDCB-4949-A8A3-0E53308A2F50";
paths = (
{
closed = 1;
nodes = (
"282 422 LINE",
"261 422 LINE",
"241 535 LINE",
"60 535 LINE",
"60 0 LINE",
"265 0 LINE",
"265 249 LINE SMOOTH",
"265 316 OFFCURVE",
"314 358 OFFCURVE",
"388 358 CURVE SMOOTH",
"410 358 OFFCURVE",
"428 356 OFFCURVE",
"444 353 CURVE",
"444 544 LINE",
"432 548 OFFCURVE",
"408 550 OFFCURVE",
"396 550 CURVE SMOOTH",
"296 550 OFFCURVE",
"268 480 OFFCURVE",
"256 345 CURVE"
);
}
);
userData = {
RMXScaler = {
height = 100.10000;
};
};
width = 462;
}
);
leftMetricsKey = n;
unicode = 0072;
userData = {
RMXScaler = {
source = r;
};
};
},
{
color = 4;
glyphname = s;
lastChange = "2017-09-19 15:31:47 +0000";
layers = (
{
anchors = (
{
name = bottom;
position = "{291, 0}";
},
{
name = top;
position = "{284, 525}";
}
);
background = {
paths = (
{
closed = 1;
nodes = (
"447 -15 OFFCURVE",
"527 47 OFFCURVE",
"527 160 CURVE SMOOTH",
"527 239 OFFCURVE",
"468 293 OFFCURVE",
"344 314 CURVE SMOOTH",
"268 327 LINE SMOOTH",
"220 335 OFFCURVE",
"202 355 OFFCURVE",
"202 384 CURVE SMOOTH",
"202 417 OFFCURVE",
"232 435 OFFCURVE",
"281 435 CURVE SMOOTH",
"343 435 OFFCURVE",
"368 419 OFFCURVE",
"384 373 CURVE",
"520 373 LINE",
"504 481 OFFCURVE",
"423 540 OFFCURVE",
"284 540 CURVE SMOOTH",
"154 540 OFFCURVE",
"66 481 OFFCURVE",
"66 379 CURVE SMOOTH",
"66 288 OFFCURVE",
"130 235 OFFCURVE",
"238 216 CURVE SMOOTH",
"308 204 LINE SMOOTH",
"375 192 OFFCURVE",
"391 175 OFFCURVE",
"391 145 CURVE SMOOTH",
"391 110 OFFCURVE",
"358 90 OFFCURVE",
"300 90 CURVE SMOOTH",
"235 90 OFFCURVE",
"203 109 OFFCURVE",
"186 157 CURVE",
"50 157 LINE",
"74 40 OFFCURVE",
"142 -15 OFFCURVE",
"295 -15 CURVE SMOOTH"
);
}
);
};
layerId = "C76CAC8E-7AD6-478C-8F7E-02FEF6F1EA84";
paths = (
{
closed = 1;
nodes = (
"442 -15 OFFCURVE",
"527 41 OFFCURVE",
"527 160 CURVE SMOOTH",
"527 239 OFFCURVE",
"466 293 OFFCURVE",
"344 314 CURVE SMOOTH",
"269 327 LINE SMOOTH",
"220 335 OFFCURVE",
"202 355 OFFCURVE",
"202 384 CURVE SMOOTH",
"202 417 OFFCURVE",
"230 435 OFFCURVE",
"284 435 CURVE SMOOTH",
"348 435 OFFCURVE",
"373 419 OFFCURVE",
"379 373 CURVE",
"515 373 LINE",
"509 481 OFFCURVE",
"448 540 OFFCURVE",
"284 540 CURVE SMOOTH",
"139 540 OFFCURVE",
"66 476 OFFCURVE",
"66 379 CURVE SMOOTH",
"66 288 OFFCURVE",
"131 234 OFFCURVE",
"238 216 CURVE SMOOTH",
"308 204 LINE SMOOTH",
"375 193 OFFCURVE",
"391 171 OFFCURVE",
"391 141 CURVE SMOOTH",
"391 106 OFFCURVE",
"353 90 OFFCURVE",
"300 90 CURVE SMOOTH",
"230 90 OFFCURVE",
"193 109 OFFCURVE",
"186 157 CURVE",
"50 157 LINE",
"64 40 OFFCURVE",
"127 -15 OFFCURVE",
"295 -15 CURVE SMOOTH"
);
}
);
width = 577;
},
{
anchors = (
{
name = bottom;
position = "{267, 0}";
},
{
name = top;
position = "{260, 515}";
}
);
background = {
paths = (
{
closed = 1;
nodes = (
"386 -15 OFFCURVE",
"459 41 OFFCURVE",
"459 133 CURVE SMOOTH",
"459 225 OFFCURVE",
"399 260 OFFCURVE",
"310 277 CURVE SMOOTH",
"228 293 LINE SMOOTH",
"156 307 OFFCURVE",
"125 335 OFFCURVE",
"125 391 CURVE SMOOTH",
"125 452 OFFCURVE",
"171 484 OFFCURVE",
"256 484 CURVE SMOOTH",
"345 484 OFFCURVE",
"392 452 OFFCURVE",
"396 379 CURVE",
"451 379 LINE",
"445 483 OFFCURVE",
"377 530 OFFCURVE",
"256 530 CURVE SMOOTH",
"146 530 OFFCURVE",
"73 482 OFFCURVE",
"73 388 CURVE SMOOTH",
"73 308 OFFCURVE",
"119 263 OFFCURVE",
"217 244 CURVE SMOOTH",
"299 228 LINE SMOOTH",
"366 215 OFFCURVE",
"407 194 OFFCURVE",
"407 128 CURVE SMOOTH",
"407 66 OFFCURVE",
"355 31 OFFCURVE",
"265 31 CURVE SMOOTH",
"167 31 OFFCURVE",
"115 65 OFFCURVE",
"111 140 CURVE",
"56 140 LINE",
"56 39 OFFCURVE",
"131 -15 OFFCURVE",
"265 -15 CURVE SMOOTH"
);
}
);
};
guideLines = (
{
angle = 168.9591;
position = "{299, 228}";
},
{
angle = 79.7746;
position = "{238, 202}";
showMeasurement = 1;
},
{
angle = -56.4409;
position = "{336, 89}";
showMeasurement = 1;
}
);
layerId = "0A1AFE58-107D-4787-BDA0-D82FB635C3A6";
paths = (
{
closed = 1;
nodes = (
"386 -15 OFFCURVE",
"459 41 OFFCURVE",
"459 133 CURVE SMOOTH",
"459 225 OFFCURVE",
"399 260 OFFCURVE",
"310 277 CURVE SMOOTH",
"228 293 LINE SMOOTH",
"156 307 OFFCURVE",
"125 335 OFFCURVE",
"125 391 CURVE SMOOTH",
"125 452 OFFCURVE",
"171 484 OFFCURVE",
"256 484 CURVE SMOOTH",
"345 484 OFFCURVE",
"392 452 OFFCURVE",
"396 379 CURVE",
"451 379 LINE",
"445 483 OFFCURVE",
"377 530 OFFCURVE",
"256 530 CURVE SMOOTH",
"146 530 OFFCURVE",
"73 482 OFFCURVE",
"73 388 CURVE SMOOTH",
"73 308 OFFCURVE",
"119 263 OFFCURVE",
"217 244 CURVE SMOOTH",
"299 228 LINE SMOOTH",
"366 215 OFFCURVE",
"407 194 OFFCURVE",
"407 128 CURVE SMOOTH",
"407 66 OFFCURVE",
"355 31 OFFCURVE",
"265 31 CURVE SMOOTH",
"167 31 OFFCURVE",
"115 65 OFFCURVE",
"111 140 CURVE",
"56 140 LINE",
"56 39 OFFCURVE",
"131 -15 OFFCURVE",
"265 -15 CURVE SMOOTH"
);
}
);
width = 519;
},
{
anchors = (
{
name = bottom;
position = "{298, 0}";
},
{
name = top;
position = "{293, 535}";
}
);
background = {
paths = (
{
closed = 1;
nodes = (
"462 -15 OFFCURVE",
"556 48 OFFCURVE",
"556 167 CURVE SMOOTH",
"556 260 OFFCURVE",
"493 309 OFFCURVE",
"379 330 CURVE SMOOTH",
"294 346 LINE SMOOTH",
"251 354 OFFCURVE",
"239 364 OFFCURVE",
"239 384 CURVE SMOOTH",
"239 408 OFFCURVE",
"260 419 OFFCURVE",
"291 419 CURVE SMOOTH",
"339 419 OFFCURVE",
"348 399 OFFCURVE",
"360 369 CURVE",
"553 369 LINE",
"531 489 OFFCURVE",
"451 550 OFFCURVE",
"288 550 CURVE SMOOTH",
"133 550 OFFCURVE",
"43 485 OFFCURVE",
"43 376 CURVE SMOOTH",
"43 276 OFFCURVE",
"111 217 OFFCURVE",
"237 194 CURVE SMOOTH",
"303 182 LINE SMOOTH",
"346 174 OFFCURVE",
"360 165 OFFCURVE",
"360 146 CURVE SMOOTH",
"360 125 OFFCURVE",
"337 115 OFFCURVE",
"304 115 CURVE SMOOTH",
"260 115 OFFCURVE",
"238 130 OFFCURVE",
"226 165 CURVE",
"35 165 LINE",
"48 43 OFFCURVE",
"128 -15 OFFCURVE",
"299 -15 CURVE SMOOTH"
);
}
);
};
layerId = "84435905-EDCB-4949-A8A3-0E53308A2F50";
paths = (
{
closed = 1;
nodes = (
"462 -15 OFFCURVE",
"556 48 OFFCURVE",
"556 167 CURVE SMOOTH",
"556 260 OFFCURVE",
"493 309 OFFCURVE",
"379 330 CURVE SMOOTH",
"294 346 LINE SMOOTH",
"251 354 OFFCURVE",
"239 364 OFFCURVE",
"239 384 CURVE SMOOTH",
"239 408 OFFCURVE",
"255 419 OFFCURVE",
"286 419 CURVE SMOOTH",
"334 419 OFFCURVE",
"353 404 OFFCURVE",
"355 369 CURVE",
"551 369 LINE",
"539 489 OFFCURVE",
"451 550 OFFCURVE",
"288 550 CURVE SMOOTH",
"133 550 OFFCURVE",
"43 485 OFFCURVE",
"43 376 CURVE SMOOTH",
"43 281 OFFCURVE",
"100 220 OFFCURVE",
"227 197 CURVE SMOOTH",
"303 183 LINE SMOOTH",
"346 175 OFFCURVE",
"358 167 OFFCURVE",
"358 146 CURVE SMOOTH",
"358 126 OFFCURVE",
"340 115 OFFCURVE",
"304 115 CURVE SMOOTH",
"252 115 OFFCURVE",
"233 130 OFFCURVE",
"231 165 CURVE",
"35 165 LINE",
"38 46 OFFCURVE",
"128 -15 OFFCURVE",
"299 -15 CURVE SMOOTH"
);
}
);
userData = {
RMXScaler = {
height = 100.10000;
};
};
width = 591;
},
{
anchors = (
{
name = bottom;
position = "{272, 0}";
},
{
name = top;
position = "{265, 515}";
}
);
associatedMasterId = "0A1AFE58-107D-4787-BDA0-D82FB635C3A6";
background = {
paths = (
{
closed = 1;
nodes = (
"381 -15 OFFCURVE",
"464 33 OFFCURVE",
"464 133 CURVE SMOOTH",
"464 224 OFFCURVE",
"404 257 OFFCURVE",
"305 278 CURVE SMOOTH",
"240 292 LINE SMOOTH",
"165 308 OFFCURVE",
"132 336 OFFCURVE",
"132 392 CURVE SMOOTH",
"132 450 OFFCURVE",
"178 483 OFFCURVE",
"263 483 CURVE SMOOTH",
"352 483 OFFCURVE",
"396 451 OFFCURVE",
"403 379 CURVE",
"458 379 LINE",
"449 483 OFFCURVE",
"383 530 OFFCURVE",
"263 530 CURVE SMOOTH",
"154 530 OFFCURVE",
"81 479 OFFCURVE",
"81 392 CURVE SMOOTH",
"81 299 OFFCURVE",
"146 261 OFFCURVE",
"224 244 CURVE SMOOTH",
"304 227 LINE SMOOTH",
"372 213 OFFCURVE",
"413 194 OFFCURVE",
"413 128 CURVE SMOOTH",
"413 63 OFFCURVE",
"356 31 OFFCURVE",
"267 31 CURVE SMOOTH",
"171 31 OFFCURVE",
"119 65 OFFCURVE",
"115 140 CURVE",
"60 140 LINE",
"60 39 OFFCURVE",
"135 -15 OFFCURVE",
"269 -15 CURVE SMOOTH"
);
}
);
};
layerId = "02C77100-9580-476B-AE62-48C630CBC67D";
name = "Sep 19 17, 14:20";
paths = (
{
closed = 1;
nodes = (
"381 -15 OFFCURVE",
"464 33 OFFCURVE",
"464 133 CURVE SMOOTH",
"464 225 OFFCURVE",
"404 262 OFFCURVE",
"305 280 CURVE SMOOTH",
"238 292 LINE SMOOTH",
"166 305 OFFCURVE",
"133 333 OFFCURVE",
"133 392 CURVE SMOOTH",
"133 452 OFFCURVE",
"179 484 OFFCURVE",
"263 484 CURVE SMOOTH",
"353 484 OFFCURVE",
"399 452 OFFCURVE",
"403 379 CURVE",
"458 379 LINE",
"452 483 OFFCURVE",
"385 530 OFFCURVE",
"263 530 CURVE SMOOTH",
"154 530 OFFCURVE",
"81 482 OFFCURVE",
"81 389 CURVE SMOOTH",
"81 293 OFFCURVE",
"146 260 OFFCURVE",
"222 245 CURVE SMOOTH",
"304 229 LINE SMOOTH",
"371 216 OFFCURVE",
"412 195 OFFCURVE",
"412 128 CURVE SMOOTH",
"412 63 OFFCURVE",
"355 31 OFFCURVE",
"267 31 CURVE SMOOTH",
"171 31 OFFCURVE",
"119 65 OFFCURVE",
"115 140 CURVE",
"60 140 LINE",
"60 39 OFFCURVE",
"135 -15 OFFCURVE",
"269 -15 CURVE SMOOTH"
);
}
);
width = 524;
}
);
unicode = 0073;
userData = {
RMXScaler = {
source = s;
};
};
},
{
glyphname = t;
lastChange = "2017-09-19 13:29:27 +0000";
layers = (
{
anchors = (
{
name = bottom;
position = "{265, 0}";
},
{
name = topright;
position = "{349, 525}";
}
);
background = {
paths = (
{
closed = 1;
nodes = (
"20 410 LINE",
"403 410 LINE",
"403 525 LINE",
"20 525 LINE"
);
},
{
closed = 1;
nodes = (
"398 111 LINE",
"388 109 OFFCURVE",
"350 106 OFFCURVE",
"330 106 CURVE SMOOTH",
"280 106 OFFCURVE",
"255 128 OFFCURVE",
"255 190 CURVE SMOOTH",
"255 685 LINE",
"139 685 LINE",
"115 525 LINE",
"115 167 LINE SMOOTH",
"115 47 OFFCURVE",
"174 -9 OFFCURVE",
"299 -9 CURVE SMOOTH",
"340 -9 OFFCURVE",
"379 -3 OFFCURVE",
"398 1 CURVE"
);
}
);
};
layerId = "C76CAC8E-7AD6-478C-8F7E-02FEF6F1EA84";
paths = (
{
closed = 1;
nodes = (
"20 410 LINE",
"403 410 LINE",
"403 525 LINE",
"20 525 LINE"
);
},
{
closed = 1;
nodes = (
"398 105 LINE",
"388 103 OFFCURVE",
"350 100 OFFCURVE",
"330 100 CURVE SMOOTH",
"280 100 OFFCURVE",
"255 122 OFFCURVE",
"255 184 CURVE SMOOTH",
"255 670 LINE",
"139 670 LINE",
"115 525 LINE",
"115 161 LINE SMOOTH",
"115 41 OFFCURVE",
"174 -15 OFFCURVE",
"299 -15 CURVE SMOOTH",
"340 -15 OFFCURVE",
"379 -9 OFFCURVE",
"398 -5 CURVE"
);
}
);
width = 441;
},
{
anchors = (
{
name = bottom;
position = "{250, 0}";
},
{
name = topright;
position = "{308, 515}";
}
);
background = {
paths = (
{
closed = 1;
nodes = (
"12 465 LINE",
"361 465 LINE",
"361 515 LINE",
"12 515 LINE"
);
},
{
closed = 1;
nodes = (
"361 50 LINE",
"340 44 OFFCURVE",
"314 39 OFFCURVE",
"286 39 CURVE SMOOTH",
"219 39 OFFCURVE",
"183 66 OFFCURVE",
"183 147 CURVE SMOOTH",
"183 665 LINE",
"143 665 LINE",
"128 515 LINE",
"128 146 LINE SMOOTH",
"128 36 OFFCURVE",
"179 -10 OFFCURVE",
"284 -10 CURVE SMOOTH",
"307 -10 OFFCURVE",
"333 -5 OFFCURVE",
"361 3 CURVE"
);
}
);
};
layerId = "0A1AFE58-107D-4787-BDA0-D82FB635C3A6";
paths = (
{
closed = 1;
nodes = (
"12 465 LINE",
"361 465 LINE",
"361 515 LINE",
"12 515 LINE"
);
},
{
closed = 1;
nodes = (
"361 50 LINE",
"340 44 OFFCURVE",
"314 39 OFFCURVE",
"284 39 CURVE SMOOTH",
"219 39 OFFCURVE",
"183 66 OFFCURVE",
"183 147 CURVE SMOOTH",
"183 665 LINE",
"143 665 LINE",
"128 515 LINE",
"128 146 LINE SMOOTH",
"128 45 OFFCURVE",
"172 -10 OFFCURVE",
"279 -10 CURVE SMOOTH",
"303 -10 OFFCURVE",
"335 -5 OFFCURVE",
"361 3 CURVE"
);
}
);
width = 388;
},
{
anchors = (
{
name = bottom;
position = "{259, 0}";
},
{
name = topright;
position = "{389, 535}";
}
);
background = {
paths = (
{
closed = 1;
nodes = (
"11 380 LINE",
"413 380 LINE",
"413 534 LINE",
"11 534 LINE"
);
},
{
closed = 1;
nodes = (
"413 158 LINE",
"396 155 OFFCURVE",
"372 154 OFFCURVE",
"357 154 CURVE SMOOTH",
"309 154 OFFCURVE",
"294 171 OFFCURVE",
"294 222 CURVE SMOOTH",
"294 665 LINE",
"118 665 LINE",
"89 534 LINE",
"89 167 LINE SMOOTH",
"89 47 OFFCURVE",
"147 -9 OFFCURVE",
"288 -9 CURVE SMOOTH",
"336 -9 OFFCURVE",
"390 -1 OFFCURVE",
"413 4 CURVE"
);
}
);
};
layerId = "84435905-EDCB-4949-A8A3-0E53308A2F50";
paths = (
{
closed = 1;
nodes = (
"11 381 LINE",
"413 381 LINE",
"413 535 LINE",
"11 535 LINE"
);
},
{
closed = 1;
nodes = (
"413 152 LINE",
"396 149 OFFCURVE",
"372 148 OFFCURVE",
"357 148 CURVE SMOOTH",
"309 148 OFFCURVE",
"294 165 OFFCURVE",
"294 216 CURVE SMOOTH",
"294 675 LINE",
"118 675 LINE",
"89 535 LINE",
"89 161 LINE SMOOTH",
"89 41 OFFCURVE",
"147 -15 OFFCURVE",
"288 -15 CURVE SMOOTH",
"336 -15 OFFCURVE",
"390 -7 OFFCURVE",
"413 -2 CURVE"
);
}
);
userData = {
RMXScaler = {
height = 100.10000;
};
};
width = 462;
}
);
unicode = 0074;
userData = {
RMXScaler = {
source = t;
};
};
},
{
glyphname = u;
lastChange = "2017-09-19 15:05:32 +0000";
layers = (
{
anchors = (
{
name = ogonek;
position = "{538, 0}";
},
{
name = top;
position = "{313, 525}";
}
);
background = {
components = (
{
name = n;
transform = "{-1, 0, 0, -1, 639, 525}";
}
);
};
layerId = "C76CAC8E-7AD6-478C-8F7E-02FEF6F1EA84";
paths = (
{
closed = 1;
nodes = (
"416 525 LINE",
"416 237 LINE SMOOTH",
"416 157 OFFCURVE",
"370 110 OFFCURVE",
"304 110 CURVE SMOOTH",
"246 110 OFFCURVE",
"218 144 OFFCURVE",
"218 223 CURVE SMOOTH",
"218 525 LINE",
"78 525 LINE",
"78 175 LINE SMOOTH",
"78 54 OFFCURVE",
"135 -15 OFFCURVE",
"247 -15 CURVE SMOOTH",
"336 -15 OFFCURVE",
"382 31 OFFCURVE",
"419 101 CURVE",
"399 88 LINE",
"434 88 LINE",
"416 98 LINE",
"433 0 LINE",
"556 0 LINE",
"556 525 LINE"
);
}
);
width = 639;
},
{
anchors = (
{
name = ogonek;
position = "{488, 0}";
},
{
name = top;
position = "{295, 515}";
}
);
background = {
paths = (
{
closed = 1;
nodes = (
"451 515 LINE",
"451 236 LINE SMOOTH",
"451 123 OFFCURVE",
"371 37 OFFCURVE",
"277 37 CURVE SMOOTH",
"198 37 OFFCURVE",
"152 77 OFFCURVE",
"152 193 CURVE SMOOTH",
"152 515 LINE",
"97 515 LINE",
"97 169 LINE SMOOTH",
"97 41 OFFCURVE",
"170 -15 OFFCURVE",
"271 -15 CURVE SMOOTH",
"367 -15 OFFCURVE",
"429 44 OFFCURVE",
"462 119 CURVE",
"427 94 LINE",
"466 94 LINE",
"450 114 LINE",
"464 0 LINE",
"506 0 LINE",
"506 515 LINE"
);
}
);
};
layerId = "0A1AFE58-107D-4787-BDA0-D82FB635C3A6";
paths = (
{
closed = 1;
nodes = (
"451 515 LINE",
"451 239 LINE SMOOTH",
"451 118 OFFCURVE",
"373 37 OFFCURVE",
"277 37 CURVE SMOOTH",
"193 37 OFFCURVE",
"152 87 OFFCURVE",
"152 185 CURVE SMOOTH",
"152 515 LINE",
"97 515 LINE",
"97 170 LINE SMOOTH",
"97 51 OFFCURVE",
"160 -15 OFFCURVE",
"272 -15 CURVE SMOOTH",
"366 -15 OFFCURVE",
"428 45 OFFCURVE",
"460 120 CURVE",
"427 95 LINE",
"466 95 LINE",
"450 115 LINE",
"463 0 LINE",
"506 0 LINE",
"506 515 LINE"
);
}
);
width = 608;
},
{
anchors = (
{
name = ogonek;
position = "{567, 0}";
},
{
name = top;
position = "{332, 535}";
}
);
layerId = "84435905-EDCB-4949-A8A3-0E53308A2F50";
paths = (
{
closed = 1;
nodes = (
"402 535 LINE",
"402 254 LINE SMOOTH",
"402 199 OFFCURVE",
"365 166 OFFCURVE",
"320 166 CURVE SMOOTH",
"277 166 OFFCURVE",
"262 192 OFFCURVE",
"262 242 CURVE SMOOTH",
"262 535 LINE",
"57 535 LINE",
"57 187 LINE SMOOTH",
"57 64 OFFCURVE",
"103 -15 OFFCURVE",
"228 -15 CURVE SMOOTH",
"332 -15 OFFCURVE",
"377 46 OFFCURVE",
"413 137 CURVE",
"392 106 LINE",
"420 106 LINE",
"402 128 LINE",
"426 0 LINE",
"607 0 LINE",
"607 535 LINE"
);
}
);
userData = {
RMXScaler = {
height = 100.10000;
};
};
width = 669;
}
);
rightMetricsKey = idotless;
unicode = 0075;
userData = {
RMXScaler = {
source = u;
};
};
},
{
glyphname = v;
lastChange = "2017-09-19 12:32:12 +0000";
layers = (
{
background = {
paths = (
{
closed = 1;
nodes = (
"273 79 LINE",
"331 120 LINE",
"234 120 LINE",
"293 79 LINE",
"155 525 LINE",
"5 525 LINE",
"190 0 LINE",
"376 0 LINE",
"561 525 LINE",
"411 525 LINE"
);
}
);
};
layerId = "C76CAC8E-7AD6-478C-8F7E-02FEF6F1EA84";
paths = (
{
closed = 1;
nodes = (
"288 120 LINE",
"282 120 LINE",
"155 525 LINE",
"5 525 LINE",
"190 0 LINE",
"376 0 LINE",
"561 525 LINE",
"414 525 LINE"
);
}
);
width = 566;
},
{
background = {
paths = (
{
closed = 1;
nodes = (
"240 38 LINE",
"267 63 LINE",
"230 63 LINE",
"255 38 LINE",
"67 515 LINE",
"7 515 LINE",
"218 0 LINE",
"276 0 LINE",
"488 515 LINE",
"428 515 LINE"
);
}
);
};
layerId = "0A1AFE58-107D-4787-BDA0-D82FB635C3A6";
paths = (
{
closed = 1;
nodes = (
"251 63 LINE",
"246 63 LINE",
"67 515 LINE",
"7 515 LINE",
"218 0 LINE",
"277 0 LINE",
"488 515 LINE",
"429 515 LINE"
);
}
);
width = 495;
},
{
background = {
paths = (
{
closed = 1;
nodes = (
"303 128 LINE",
"354 163 LINE",
"259 163 LINE",
"313 128 LINE",
"215 535 LINE",
"0 535 LINE",
"172 0 LINE",
"445 0 LINE",
"616 535 LINE",
"402 535 LINE"
);
}
);
};
layerId = "84435905-EDCB-4949-A8A3-0E53308A2F50";
paths = (
{
closed = 1;
nodes = (
"312 163 LINE",
"306 163 LINE",
"215 535 LINE",
"0 535 LINE",
"172 0 LINE",
"444 0 LINE",
"616 535 LINE",
"406 535 LINE"
);
}
);
userData = {
RMXScaler = {
height = 100.10000;
};
};
width = 616;
}
);
unicode = 0076;
userData = {
RMXScaler = {
source = v;
};
};
},
{
glyphname = w;
lastChange = "2017-09-19 12:32:12 +0000";
layers = (
{
anchors = (
{
name = top;
position = "{432, 525}";
}
);
background = {
paths = (
{
closed = 1;
nodes = (
"617 130 LINE",
"608 130 LINE",
"512 525 LINE",
"354 525 LINE",
"261 130 LINE",
"252 130 LINE",
"155 525 LINE",
"5 525 LINE",
"160 0 LINE",
"343 0 LINE",
"431 385 LINE",
"435 385 LINE",
"523 0 LINE",
"706 0 LINE",
"861 525 LINE",
"711 525 LINE"
);
}
);
};
layerId = "C76CAC8E-7AD6-478C-8F7E-02FEF6F1EA84";
paths = (
{
closed = 1;
nodes = (
"619 130 LINE",
"613 130 LINE",
"517 525 LINE",
"354 525 LINE",
"261 130 LINE",
"255 130 LINE",
"155 525 LINE",
"5 525 LINE",
"160 0 LINE",
"343 0 LINE",
"432 385 LINE",
"436 385 LINE",
"523 0 LINE",
"706 0 LINE",
"861 525 LINE",
"716 525 LINE"
);
}
);
width = 866;
},
{
anchors = (
{
name = top;
position = "{395, 515}";
}
);
background = {
paths = (
{
closed = 1;
nodes = (
"560 44 LINE",
"570 60 LINE",
"554 60 LINE",
"566 44 LINE",
"423 515 LINE",
"363 515 LINE",
"216 27 LINE",
"243 60 LINE",
"202 60 LINE",
"234 26 LINE",
"72 515 LINE",
"12 515 LINE",
"190 0 LINE",
"259 0 LINE",
"393 451 LINE",
"388 447 LINE",
"398 447 LINE",
"393 451 LINE",
"527 0 LINE",
"597 0 LINE",
"774 515 LINE",
"714 515 LINE"
);
}
);
};
layerId = "0A1AFE58-107D-4787-BDA0-D82FB635C3A6";
paths = (
{
closed = 1;
nodes = (
"566 60 LINE",
"562 60 LINE",
"423 515 LINE",
"363 515 LINE",
"228 60 LINE",
"224 60 LINE",
"72 515 LINE",
"12 515 LINE",
"190 0 LINE",
"260 0 LINE",
"391 444 LINE",
"393 444 LINE",
"526 0 LINE",
"596 0 LINE",
"774 515 LINE",
"715 515 LINE"
);
}
);
width = 786;
},
{
anchors = (
{
name = top;
position = "{447, 535}";
}
);
background = {
paths = (
{
closed = 1;
nodes = (
"618 165 LINE",
"613 165 LINE",
"545 535 LINE",
"349 535 LINE",
"283 165 LINE",
"279 165 LINE",
"220 535 LINE",
"0 535 LINE",
"131 0 LINE",
"385 0 LINE",
"445 344 LINE",
"449 344 LINE",
"509 0 LINE",
"763 0 LINE",
"894 535 LINE",
"674 535 LINE"
);
}
);
};
layerId = "84435905-EDCB-4949-A8A3-0E53308A2F50";
paths = (
{
closed = 1;
nodes = (
"618 165 LINE",
"613 165 LINE",
"545 535 LINE",
"349 535 LINE",
"284 165 LINE",
"279 165 LINE",
"220 535 LINE",
"0 535 LINE",
"131 0 LINE",
"385 0 LINE",
"445 344 LINE",
"449 344 LINE",
"509 0 LINE",
"763 0 LINE",
"894 535 LINE",
"674 535 LINE"
);
}
);
userData = {
RMXScaler = {
height = 100.10000;
};
};
width = 894;
}
);
unicode = 0077;
userData = {
RMXScaler = {
source = w;
};
};
},
{
glyphname = x;
lastChange = "2017-09-19 12:32:12 +0000";
layers = (
{
background = {
paths = (
{
closed = 1;
nodes = (
"175 0 LINE",
"296 224 LINE",
"369 224 LINE",
"543 525 LINE",
"388 525 LINE",
"272 306 LINE",
"197 306 LINE",
"20 0 LINE"
);
},
{
closed = 1;
nodes = (
"543 0 LINE",
"357 327 LINE",
"278 327 LINE",
"175 525 LINE",
"20 525 LINE",
"207 192 LINE",
"284 192 LINE",
"388 0 LINE"
);
}
);
};
layerId = "C76CAC8E-7AD6-478C-8F7E-02FEF6F1EA84";
paths = (
{
closed = 1;
nodes = (
"175 0 LINE",
"301 224 LINE",
"356 224 LINE",
"543 525 LINE",
"388 525 LINE",
"262 306 LINE",
"207 306 LINE",
"20 0 LINE"
);
},
{
closed = 1;
nodes = (
"543 0 LINE",
"335 341 LINE",
"280 341 LINE",
"175 525 LINE",
"20 525 LINE",
"225 183 LINE",
"280 183 LINE",
"388 0 LINE"
);
}
);
width = 563;
},
{
background = {
paths = (
{
closed = 1;
nodes = (
"107 0 LINE",
"258 221 LINE",
"277 221 LINE",
"481 515 LINE",
"416 515 LINE",
"250 265 LINE",
"231 265 LINE",
"42 0 LINE"
);
},
{
closed = 1;
nodes = (
"481 0 LINE",
"280 285 LINE",
"261 285 LINE",
"107 515 LINE",
"42 515 LINE",
"237 229 LINE",
"256 229 LINE",
"416 0 LINE"
);
}
);
};
layerId = "0A1AFE58-107D-4787-BDA0-D82FB635C3A6";
paths = (
{
closed = 1;
nodes = (
"107 0 LINE",
"263 221 LINE",
"273 221 LINE",
"481 515 LINE",
"416 515 LINE",
"245 265 LINE",
"235 265 LINE",
"42 0 LINE"
);
},
{
closed = 1;
nodes = (
"481 0 LINE",
"272 291 LINE",
"262 291 LINE",
"107 515 LINE",
"42 515 LINE",
"251 215 LINE",
"261 215 LINE",
"416 0 LINE"
);
}
);
width = 523;
},
{
layerId = "84435905-EDCB-4949-A8A3-0E53308A2F50";
paths = (
{
closed = 1;
nodes = (
"222 0 LINE",
"346 247 LINE",
"446 247 LINE",
"613 535 LINE",
"397 535 LINE",
"282 304 LINE",
"183 304 LINE",
"6 0 LINE"
);
},
{
closed = 1;
nodes = (
"614 0 LINE",
"401 364 LINE",
"308 364 LINE",
"224 535 LINE",
"8 535 LINE",
"220 171 LINE",
"314 171 LINE",
"399 0 LINE"
);
}
);
userData = {
RMXScaler = {
height = 100.10000;
};
};
width = 621;
}
);
unicode = 0078;
userData = {
RMXScaler = {
source = x;
};
};
},
{
glyphname = y;
lastChange = "2017-09-19 12:32:12 +0000";
layers = (
{
anchors = (
{
name = top;
position = "{283, 525}";
}
);
background = {
paths = (
{
closed = 1;
nodes = (
"296 124 LINE",
"288 124 LINE",
"155 525 LINE",
"5 525 LINE",
"200 0 LINE",
"305 0 LINE",
"276 43 LINE",
"240 -59 OFFCURVE",
"209 -95 OFFCURVE",
"137 -95 CURVE SMOOTH",
"113 -95 OFFCURVE",
"79 -92 OFFCURVE",
"50 -87 CURVE",
"50 -199 LINE",
"83 -206 OFFCURVE",
"107 -210 OFFCURVE",
"150 -210 CURVE SMOOTH",
"292 -210 OFFCURVE",
"343 -124 OFFCURVE",
"385 0 CURVE SMOOTH",
"561 525 LINE",
"411 525 LINE"
);
}
);
};
guideLines = (
{
angle = 90;
position = "{283, 393}";
}
);
layerId = "C76CAC8E-7AD6-478C-8F7E-02FEF6F1EA84";
paths = (
{
closed = 1;
nodes = (
"297 124 LINE",
"291 124 LINE",
"155 525 LINE",
"5 525 LINE",
"200 0 LINE",
"305 0 LINE",
"276 43 LINE",
"240 -59 OFFCURVE",
"209 -95 OFFCURVE",
"137 -95 CURVE SMOOTH",
"113 -95 OFFCURVE",
"79 -92 OFFCURVE",
"50 -87 CURVE",
"50 -199 LINE",
"83 -206 OFFCURVE",
"107 -210 OFFCURVE",
"150 -210 CURVE SMOOTH",
"292 -210 OFFCURVE",
"343 -124 OFFCURVE",
"385 0 CURVE SMOOTH",
"561 525 LINE",
"414 525 LINE"
);
}
);
width = 566;
},
{
anchors = (
{
name = top;
position = "{248, 515}";
}
);
background = {
paths = (
{
closed = 1;
nodes = (
"248 38 LINE",
"267 53 LINE",
"230 53 LINE",
"255 38 LINE",
"67 515 LINE",
"7 515 LINE",
"215 0 LINE",
"243 0 LINE",
"245 30 LINE",
"192 -117 OFFCURVE",
"145 -161 OFFCURVE",
"81 -161 CURVE SMOOTH",
"67 -161 OFFCURVE",
"40 -159 OFFCURVE",
"19 -155 CURVE",
"19 -204 LINE",
"30 -206 OFFCURVE",
"61 -210 OFFCURVE",
"80 -210 CURVE SMOOTH",
"185 -210 OFFCURVE",
"232 -142 OFFCURVE",
"287 0 CURVE SMOOTH",
"488 515 LINE",
"428 515 LINE"
);
}
);
};
layerId = "0A1AFE58-107D-4787-BDA0-D82FB635C3A6";
paths = (
{
closed = 1;
nodes = (
"254 53 LINE",
"249 53 LINE",
"67 515 LINE",
"7 515 LINE",
"215 0 LINE",
"243 0 LINE",
"245 30 LINE",
"192 -117 OFFCURVE",
"145 -161 OFFCURVE",
"81 -161 CURVE SMOOTH",
"67 -161 OFFCURVE",
"40 -159 OFFCURVE",
"19 -155 CURVE",
"19 -204 LINE",
"30 -206 OFFCURVE",
"61 -210 OFFCURVE",
"80 -210 CURVE SMOOTH",
"185 -210 OFFCURVE",
"232 -142 OFFCURVE",
"287 0 CURVE SMOOTH",
"488 515 LINE",
"429 515 LINE"
);
}
);
width = 495;
},
{
anchors = (
{
name = top;
position = "{311, 535}";
}
);
background = {
paths = (
{
closed = 1;
nodes = (
"310 129 LINE",
"360 164 LINE",
"266 164 LINE",
"320 129 LINE",
"215 535 LINE",
"0 535 LINE",
"178 0 LINE",
"311 0 LINE",
"284 18 LINE",
"260 -43 OFFCURVE",
"229 -56 OFFCURVE",
"159 -56 CURVE SMOOTH",
"135 -56 OFFCURVE",
"102 -53 OFFCURVE",
"76 -50 CURVE",
"76 -196 LINE",
"111 -204 OFFCURVE",
"153 -210 OFFCURVE",
"198 -210 CURVE SMOOTH",
"344 -210 OFFCURVE",
"410 -140 OFFCURVE",
"452 0 CURVE SMOOTH",
"611 535 LINE",
"396 535 LINE"
);
}
);
};
layerId = "84435905-EDCB-4949-A8A3-0E53308A2F50";
paths = (
{
closed = 1;
nodes = (
"317 164 LINE",
"311 164 LINE",
"215 535 LINE",
"0 535 LINE",
"178 0 LINE",
"311 0 LINE",
"284 18 LINE",
"260 -43 OFFCURVE",
"229 -56 OFFCURVE",
"159 -56 CURVE SMOOTH",
"135 -56 OFFCURVE",
"102 -53 OFFCURVE",
"76 -50 CURVE",
"76 -196 LINE",
"111 -204 OFFCURVE",
"153 -210 OFFCURVE",
"198 -210 CURVE SMOOTH",
"344 -210 OFFCURVE",
"410 -140 OFFCURVE",
"452 0 CURVE SMOOTH",
"611 535 LINE",
"396 535 LINE"
);
}
);
userData = {
RMXScaler = {
height = 100.10000;
};
};
width = 611;
}
);
leftMetricsKey = v;
rightMetricsKey = v;
unicode = 0079;
userData = {
RMXScaler = {
source = y;
};
};
},
{
color = 0;
glyphname = z;
lastChange = "2017-09-19 12:33:06 +0000";
layers = (
{
anchors = (
{
name = top;
position = "{268, 525}";
}
);
background = {
paths = (
{
closed = 1;
nodes = (
"234 120 LINE",
"484 415 LINE",
"484 525 LINE",
"68 525 LINE",
"68 410 LINE",
"317 410 LINE",
"306 424 LINE",
"306 403 LINE",
"58 110 LINE",
"58 0 LINE",
"484 0 LINE",
"484 115 LINE",
"215 115 LINE",
"234 101 LINE"
);
}
);
};
layerId = "C76CAC8E-7AD6-478C-8F7E-02FEF6F1EA84";
paths = (
{
closed = 1;
nodes = (
"227 120 LINE",
"484 415 LINE",
"484 525 LINE",
"68 525 LINE",
"68 410 LINE",
"310 410 LINE",
"310 405 LINE",
"53 110 LINE",
"53 0 LINE",
"479 0 LINE",
"479 115 LINE",
"227 115 LINE"
);
}
);
width = 537;
},
{
anchors = (
{
name = top;
position = "{252, 515}";
}
);
background = {
paths = (
{
closed = 1;
nodes = (
"124 53 LINE",
"429 470 LINE",
"429 515 LINE",
"72 515 LINE",
"72 465 LINE",
"378 465 LINE",
"366 482 LINE",
"366 461 LINE",
"62 45 LINE",
"62 0 LINE",
"423 0 LINE",
"423 50 LINE",
"96 50 LINE",
"124 34 LINE"
);
}
);
};
layerId = "0A1AFE58-107D-4787-BDA0-D82FB635C3A6";
paths = (
{
closed = 1;
nodes = (
"121 53 LINE",
"429 470 LINE",
"429 515 LINE",
"72 515 LINE",
"72 465 LINE",
"365 465 LINE",
"365 462 LINE",
"57 45 LINE",
"57 0 LINE",
"419 0 LINE",
"419 50 LINE",
"121 50 LINE"
);
}
);
width = 486;
},
{
anchors = (
{
name = top;
position = "{292, 535}";
}
);
background = {
paths = (
{
closed = 1;
nodes = (
"314 161 LINE",
"529 385 LINE",
"529 535 LINE",
"60 535 LINE",
"60 381 LINE",
"277 381 LINE",
"266 391 LINE",
"266 374 LINE",
"50 149 LINE",
"50 0 LINE",
"529 0 LINE",
"529 154 LINE",
"302 154 LINE",
"314 142 LINE"
);
}
);
};
layerId = "84435905-EDCB-4949-A8A3-0E53308A2F50";
paths = (
{
closed = 1;
nodes = (
"306 161 LINE",
"529 385 LINE",
"529 535 LINE",
"60 535 LINE",
"60 381 LINE",
"268 381 LINE",
"268 374 LINE",
"45 150 LINE",
"45 0 LINE",
"527 0 LINE",
"527 154 LINE",
"306 154 LINE"
);
}
);
userData = {
RMXScaler = {
height = 100.10000;
};
};
width = 574;
}
);
unicode = 007A;
userData = {
RMXScaler = {
source = z;
};
};
},
{
color = 4;
glyphname = quotesingle;
lastChange = "2017-08-30 22:26:44 +0000";
layers = (
{
background = {
paths = (
{
closed = 1;
nodes = (
"56 770 OFFCURVE",
"20 743 OFFCURVE",
"20 692 CURVE SMOOTH",
"20 640 OFFCURVE",
"59 619 OFFCURVE",
"108 619 CURVE",
"96 648 LINE",
"85 605 OFFCURVE",
"55 548 OFFCURVE",
"23 504 CURVE",
"105 504 LINE",
"145 545 OFFCURVE",
"189 612 OFFCURVE",
"189 678 CURVE SMOOTH",
"189 732 OFFCURVE",
"161 770 OFFCURVE",
"102 770 CURVE SMOOTH"
);
}
);
};
layerId = "C76CAC8E-7AD6-478C-8F7E-02FEF6F1EA84";
paths = (
{
closed = 1;
nodes = (
"65 510 LINE",
"164 510 LINE",
"190 770 LINE",
"65 770 LINE"
);
}
);
width = 240;
},
{
background = {
paths = (
{
closed = 1;
nodes = (
"49 770 OFFCURVE",
"29 756 OFFCURVE",
"29 727 CURVE SMOOTH",
"29 691 OFFCURVE",
"57 683 OFFCURVE",
"88 684 CURVE",
"78 708 LINE",
"78 665 OFFCURVE",
"44 609 OFFCURVE",
"20 575 CURVE",
"61 575 LINE",
"80 603 OFFCURVE",
"117 654 OFFCURVE",
"117 715 CURVE SMOOTH",
"117 753 OFFCURVE",
"98 770 OFFCURVE",
"72 770 CURVE SMOOTH"
);
}
);
};
layerId = "0A1AFE58-107D-4787-BDA0-D82FB635C3A6";
paths = (
{
closed = 1;
nodes = (
"60 520 LINE",
"102 520 LINE",
"118 770 LINE",
"60 770 LINE"
);
}
);
width = 178;
},
{
background = {
paths = (
{
closed = 1;
nodes = (
"64 770 OFFCURVE",
"20 730 OFFCURVE",
"20 666 CURVE SMOOTH",
"20 602 OFFCURVE",
"66 567 OFFCURVE",
"132 566 CURVE",
"108 599 LINE",
"99 556 OFFCURVE",
"75 510 OFFCURVE",
"35 446 CURVE",
"150 446 LINE",
"194 505 OFFCURVE",
"245 582 OFFCURVE",
"245 653 CURVE SMOOTH",
"245 734 OFFCURVE",
"198 770 OFFCURVE",
"129 770 CURVE SMOOTH"
);
}
);
};
layerId = "84435905-EDCB-4949-A8A3-0E53308A2F50";
paths = (
{
closed = 1;
nodes = (
"60 500 LINE",
"204 500 LINE",
"235 770 LINE",
"60 770 LINE"
);
}
);
width = 265;
}
);
unicode = 0027;
},
{
color = 4;
glyphname = numbersign;
lastChange = "2017-07-31 16:54:11 +0000";
layers = (
{
background = {
paths = (
{
closed = 1;
nodes = (
"237 0 LINE",
"437 710 LINE",
"317 710 LINE",
"117 0 LINE"
);
},
{
closed = 1;
nodes = (
"545 0 LINE",
"745 710 LINE",
"625 710 LINE",
"425 0 LINE"
);
},
{
closed = 1;
nodes = (
"752 150 LINE",
"752 255 LINE",
"50 255 LINE",
"50 150 LINE"
);
},
{
closed = 1;
nodes = (
"812 455 LINE",
"812 560 LINE",
"110 560 LINE",
"110 455 LINE"
);
}
);
};
layerId = "C76CAC8E-7AD6-478C-8F7E-02FEF6F1EA84";
paths = (
{
closed = 1;
nodes = (
"237 0 LINE",
"407 710 LINE",
"287 710 LINE",
"117 0 LINE"
);
},
{
closed = 1;
nodes = (
"515 0 LINE",
"685 710 LINE",
"565 710 LINE",
"395 0 LINE"
);
},
{
closed = 1;
nodes = (
"702 150 LINE",
"702 255 LINE",
"50 255 LINE",
"50 150 LINE"
);
},
{
closed = 1;
nodes = (
"752 455 LINE",
"752 560 LINE",
"100 560 LINE",
"100 455 LINE"
);
}
);
width = 802;
},
{
layerId = "0A1AFE58-107D-4787-BDA0-D82FB635C3A6";
paths = (
{
closed = 1;
nodes = (
"202 0 LINE",
"372 710 LINE",
"315 710 LINE",
"145 0 LINE"
);
},
{
closed = 1;
nodes = (
"472 0 LINE",
"642 710 LINE",
"585 710 LINE",
"415 0 LINE"
);
},
{
closed = 1;
nodes = (
"667 170 LINE",
"667 223 LINE",
"60 223 LINE",
"60 170 LINE"
);
},
{
closed = 1;
nodes = (
"727 487 LINE",
"727 540 LINE",
"120 540 LINE",
"120 487 LINE"
);
}
);
width = 787;
},
{
background = {
paths = (
{
closed = 1;
nodes = (
"277 0 LINE",
"477 710 LINE",
"307 710 LINE",
"107 0 LINE"
);
},
{
closed = 1;
nodes = (
"585 0 LINE",
"785 710 LINE",
"615 710 LINE",
"415 0 LINE"
);
},
{
closed = 1;
nodes = (
"792 140 LINE",
"792 275 LINE",
"40 275 LINE",
"40 140 LINE"
);
},
{
closed = 1;
nodes = (
"852 435 LINE",
"852 570 LINE",
"100 570 LINE",
"100 435 LINE"
);
}
);
};
layerId = "84435905-EDCB-4949-A8A3-0E53308A2F50";
paths = (
{
closed = 1;
nodes = (
"267 0 LINE",
"437 710 LINE",
"267 710 LINE",
"97 0 LINE"
);
},
{
closed = 1;
nodes = (
"555 0 LINE",
"725 710 LINE",
"555 710 LINE",
"385 0 LINE"
);
},
{
closed = 1;
nodes = (
"732 140 LINE",
"732 275 LINE",
"40 275 LINE",
"40 140 LINE"
);
},
{
closed = 1;
nodes = (
"782 435 LINE",
"782 570 LINE",
"90 570 LINE",
"90 435 LINE"
);
}
);
width = 822;
}
);
unicode = 0023;
},
{
color = 4;
glyphname = ampersand;
lastChange = "2017-09-01 15:12:31 +0000";
layers = (
{
background = {
paths = (
{
closed = 1;
nodes = (
"60 385 OFFCURVE",
"60 174 CURVE SMOOTH",
"60 41 OFFCURVE",
"166 -14 OFFCURVE",
"303 -14 CURVE SMOOTH",
"535 -14 OFFCURVE",
"652 139 OFFCURVE",
"652 400 CURVE",
"595 400 LINE",
"595 161 OFFCURVE",
"500 37 OFFCURVE",
"300 37 CURVE SMOOTH",
"189 37 OFFCURVE",
"119 82 OFFCURVE",
"119 174 CURVE SMOOTH",
"119 356 OFFCURVE",
"507 365 OFFCURVE",
"507 581 CURVE SMOOTH",
"507 670 OFFCURVE",
"442 725 OFFCURVE",
"317 725 CURVE SMOOTH",
"189 725 OFFCURVE",
"122 670 OFFCURVE",
"122 577 CURVE SMOOTH",
"122 492 OFFCURVE",
"200 423 OFFCURVE",
"245 378 CURVE SMOOTH",
"631 0 LINE",
"706 0 LINE",
"292 406 LINE SMOOTH",
"234 462 OFFCURVE",
"178 510 OFFCURVE",
"178 577 CURVE SMOOTH",
"178 649 OFFCURVE",
"230 679 OFFCURVE",
"317 679 CURVE SMOOTH",
"402 679 OFFCURVE",
"453 646 OFFCURVE",
"453 583 CURVE SMOOTH",
"453 392 OFFCURVE"
);
}
);
};
layerId = "0A1AFE58-107D-4787-BDA0-D82FB635C3A6";
paths = (
{
closed = 1;
nodes = (
"60 405 OFFCURVE",
"60 174 CURVE SMOOTH",
"60 41 OFFCURVE",
"166 -14 OFFCURVE",
"303 -14 CURVE SMOOTH",
"535 -14 OFFCURVE",
"652 139 OFFCURVE",
"652 400 CURVE",
"595 400 LINE",
"595 161 OFFCURVE",
"500 37 OFFCURVE",
"300 37 CURVE SMOOTH",
"189 37 OFFCURVE",
"119 82 OFFCURVE",
"119 174 CURVE SMOOTH",
"119 376 OFFCURVE",
"487 380 OFFCURVE",
"487 586 CURVE SMOOTH",
"487 675 OFFCURVE",
"422 725 OFFCURVE",
"317 725 CURVE SMOOTH",
"189 725 OFFCURVE",
"137 660 OFFCURVE",
"137 587 CURVE SMOOTH",
"137 502 OFFCURVE",
"201 444 OFFCURVE",
"245 398 CURVE SMOOTH",
"631 0 LINE",
"706 0 LINE",
"292 426 LINE SMOOTH",
"236 484 OFFCURVE",
"192 520 OFFCURVE",
"192 587 CURVE SMOOTH",
"192 639 OFFCURVE",
"230 679 OFFCURVE",
"317 679 CURVE SMOOTH",
"382 679 OFFCURVE",
"433 651 OFFCURVE",
"433 588 CURVE SMOOTH",
"433 407 OFFCURVE"
);
}
);
width = 736;
},
{
background = {
paths = (
{
closed = 1;
nodes = (
"30 405 OFFCURVE",
"30 174 CURVE SMOOTH",
"30 41 OFFCURVE",
"146 -14 OFFCURVE",
"333 -14 CURVE SMOOTH",
"605 -14 OFFCURVE",
"742 169 OFFCURVE",
"742 400 CURVE",
"565 400 LINE",
"565 221 OFFCURVE",
"480 121 OFFCURVE",
"330 121 CURVE SMOOTH",
"259 121 OFFCURVE",
"222 143 OFFCURVE",
"222 190 CURVE SMOOTH",
"222 302 OFFCURVE",
"588 335 OFFCURVE",
"588 561 CURVE SMOOTH",
"588 660 OFFCURVE",
"511 725 OFFCURVE",
"341 725 CURVE SMOOTH",
"168 725 OFFCURVE",
"82 665 OFFCURVE",
"82 562 CURVE SMOOTH",
"82 457 OFFCURVE",
"178 371 OFFCURVE",
"225 328 CURVE SMOOTH",
"581 0 LINE",
"776 0 LINE",
"372 389 LINE SMOOTH",
"314 445 OFFCURVE",
"257 501 OFFCURVE",
"257 543 CURVE SMOOTH",
"257 578 OFFCURVE",
"285 600 OFFCURVE",
"337 600 CURVE SMOOTH",
"387 600 OFFCURVE",
"418 583 OFFCURVE",
"418 550 CURVE SMOOTH",
"418 404 OFFCURVE"
);
}
);
};
layerId = "84435905-EDCB-4949-A8A3-0E53308A2F50";
paths = (
{
closed = 1;
nodes = (
"30 425 OFFCURVE",
"30 174 CURVE SMOOTH",
"30 41 OFFCURVE",
"146 -14 OFFCURVE",
"333 -14 CURVE SMOOTH",
"605 -14 OFFCURVE",
"742 169 OFFCURVE",
"742 400 CURVE",
"565 400 LINE",
"565 221 OFFCURVE",
"480 121 OFFCURVE",
"330 121 CURVE SMOOTH",
"259 121 OFFCURVE",
"222 143 OFFCURVE",
"222 190 CURVE SMOOTH",
"222 322 OFFCURVE",
"568 355 OFFCURVE",
"568 561 CURVE SMOOTH",
"568 660 OFFCURVE",
"491 725 OFFCURVE",
"341 725 CURVE SMOOTH",
"188 725 OFFCURVE",
"107 665 OFFCURVE",
"107 562 CURVE SMOOTH",
"107 457 OFFCURVE",
"185 393 OFFCURVE",
"230 348 CURVE SMOOTH",
"581 0 LINE",
"776 0 LINE",
"372 409 LINE SMOOTH",
"315 466 OFFCURVE",
"277 506 OFFCURVE",
"277 548 CURVE SMOOTH",
"277 583 OFFCURVE",
"300 600 OFFCURVE",
"337 600 CURVE SMOOTH",
"377 600 OFFCURVE",
"398 583 OFFCURVE",
"398 550 CURVE SMOOTH",
"398 424 OFFCURVE"
);
}
);
width = 786;
},
{
background = {
paths = (
{
closed = 1;
nodes = (
"40 405 OFFCURVE",
"40 174 CURVE SMOOTH",
"40 41 OFFCURVE",
"156 -14 OFFCURVE",
"313 -14 CURVE SMOOTH",
"565 -14 OFFCURVE",
"692 189 OFFCURVE",
"692 400 CURVE",
"565 400 LINE",
"565 231 OFFCURVE",
"480 101 OFFCURVE",
"310 101 CURVE SMOOTH",
"219 101 OFFCURVE",
"182 138 OFFCURVE",
"182 190 CURVE SMOOTH",
"182 332 OFFCURVE",
"548 335 OFFCURVE",
"548 571 CURVE SMOOTH",
"548 670 OFFCURVE",
"471 725 OFFCURVE",
"321 725 CURVE SMOOTH",
"168 725 OFFCURVE",
"92 665 OFFCURVE",
"92 562 CURVE SMOOTH",
"92 487 OFFCURVE",
"160 413 OFFCURVE",
"205 368 CURVE SMOOTH",
"581 0 LINE",
"736 0 LINE",
"342 399 LINE SMOOTH",
"285 456 OFFCURVE",
"227 506 OFFCURVE",
"227 553 CURVE SMOOTH",
"227 595 OFFCURVE",
"255 620 OFFCURVE",
"322 620 CURVE SMOOTH",
"387 620 OFFCURVE",
"423 602 OFFCURVE",
"423 559 CURVE SMOOTH",
"423 413 OFFCURVE"
);
}
);
};
layerId = "C76CAC8E-7AD6-478C-8F7E-02FEF6F1EA84";
paths = (
{
closed = 1;
nodes = (
"40 425 OFFCURVE",
"40 174 CURVE SMOOTH",
"40 41 OFFCURVE",
"156 -14 OFFCURVE",
"313 -14 CURVE SMOOTH",
"565 -14 OFFCURVE",
"692 189 OFFCURVE",
"692 400 CURVE",
"565 400 LINE",
"565 231 OFFCURVE",
"480 101 OFFCURVE",
"310 101 CURVE SMOOTH",
"219 101 OFFCURVE",
"182 138 OFFCURVE",
"182 190 CURVE SMOOTH",
"182 352 OFFCURVE",
"529 355 OFFCURVE",
"529 571 CURVE SMOOTH",
"529 670 OFFCURVE",
"452 725 OFFCURVE",
"326 725 CURVE SMOOTH",
"183 725 OFFCURVE",
"117 662 OFFCURVE",
"117 572 CURVE SMOOTH",
"117 497 OFFCURVE",
"166 434 OFFCURVE",
"210 388 CURVE SMOOTH",
"581 0 LINE",
"736 0 LINE",
"342 419 LINE SMOOTH",
"287 478 OFFCURVE",
"247 516 OFFCURVE",
"247 563 CURVE SMOOTH",
"247 595 OFFCURVE",
"270 620 OFFCURVE",
"327 620 CURVE SMOOTH",
"372 620 OFFCURVE",
"404 602 OFFCURVE",
"404 559 CURVE SMOOTH",
"404 433 OFFCURVE"
);
}
);
width = 746;
}
);
unicode = 0026;
},
{
color = 4;
glyphname = asterisk;
lastChange = "2017-07-31 16:54:11 +0000";
layers = (
{
background = {
paths = (
{
closed = 1;
nodes = (
"371 765 LINE",
"254 729 LINE",
"257 850 LINE",
"168 850 LINE",
"171 729 LINE",
"54 765 LINE",
"30 680 LINE",
"138 649 LINE",
"51 563 LINE",
"123 499 LINE",
"212 601 LINE",
"302 499 LINE",
"374 563 LINE",
"287 649 LINE",
"396 680 LINE"
);
}
);
};
layerId = "C76CAC8E-7AD6-478C-8F7E-02FEF6F1EA84";
paths = (
{
closed = 1;
nodes = (
"371 765 LINE",
"254 729 LINE",
"257 850 LINE",
"168 850 LINE",
"171 729 LINE",
"54 765 LINE",
"30 680 LINE",
"143 649 LINE",
"51 563 LINE",
"123 499 LINE",
"212 591 LINE",
"302 499 LINE",
"374 563 LINE",
"282 649 LINE",
"396 680 LINE"
);
}
);
width = 426;
},
{
background = {
paths = (
{
closed = 1;
nodes = (
"317 756 LINE",
"199 724 LINE",
"199 850 LINE",
"159 850 LINE",
"159 724 LINE",
"41 756 LINE",
"30 717 LINE",
"148 683 LINE",
"66 584 LINE",
"99 557 LINE",
"179 654 LINE",
"259 557 LINE",
"292 584 LINE",
"210 683 LINE",
"328 717 LINE"
);
}
);
};
layerId = "0A1AFE58-107D-4787-BDA0-D82FB635C3A6";
paths = (
{
closed = 1;
nodes = (
"327 756 LINE",
"199 724 LINE",
"199 850 LINE",
"159 850 LINE",
"159 724 LINE",
"31 756 LINE",
"20 717 LINE",
"146 682 LINE",
"46 574 LINE",
"79 545 LINE",
"179 654 LINE",
"279 545 LINE",
"312 574 LINE",
"212 682 LINE",
"338 717 LINE"
);
}
);
width = 358;
},
{
layerId = "84435905-EDCB-4949-A8A3-0E53308A2F50";
paths = (
{
closed = 1;
nodes = (
"398 778 LINE",
"285 741 LINE",
"290 850 LINE",
"161 850 LINE",
"166 741 LINE",
"53 778 LINE",
"20 657 LINE",
"133 626 LINE",
"42 548 LINE",
"125 454 LINE",
"226 551 LINE",
"326 455 LINE",
"409 548 LINE",
"320 626 LINE",
"431 657 LINE"
);
}
);
width = 451;
}
);
unicode = 002A;
},
{
color = 4;
glyphname = comma;
lastChange = "2017-09-19 13:41:33 +0000";
layers = (
{
background = {
paths = (
{
closed = 1;
nodes = (
"62 141 OFFCURVE",
"30 117 OFFCURVE",
"30 66 CURVE SMOOTH",
"30 14 OFFCURVE",
"62 -10 OFFCURVE",
"111 -10 CURVE",
"99 19 LINE",
"98 -34 OFFCURVE",
"58 -111 OFFCURVE",
"26 -165 CURVE",
"118 -165 LINE",
"148 -124 OFFCURVE",
"192 -45 OFFCURVE",
"192 46 CURVE SMOOTH",
"192 97 OFFCURVE",
"170 141 OFFCURVE",
"111 141 CURVE SMOOTH"
);
}
);
};
layerId = "C76CAC8E-7AD6-478C-8F7E-02FEF6F1EA84";
paths = (
{
closed = 1;
nodes = (
"57 141 OFFCURVE",
"23 114 OFFCURVE",
"23 63 CURVE SMOOTH",
"23 11 OFFCURVE",
"62 -10 OFFCURVE",
"111 -10 CURVE",
"99 19 LINE",
"98 -34 OFFCURVE",
"58 -111 OFFCURVE",
"26 -165 CURVE",
"108 -165 LINE",
"138 -124 OFFCURVE",
"192 -38 OFFCURVE",
"192 48 CURVE SMOOTH",
"192 103 OFFCURVE",
"163 141 OFFCURVE",
"106 141 CURVE SMOOTH"
);
}
);
width = 222;
},
{
background = {
paths = (
{
closed = 1;
nodes = (
"62 81 OFFCURVE",
"45 65 OFFCURVE",
"45 38 CURVE SMOOTH",
"45 4 OFFCURVE",
"71 -6 OFFCURVE",
"101 -5 CURVE",
"94 19 LINE",
"94 -44 OFFCURVE",
"58 -110 OFFCURVE",
"31 -154 CURVE",
"72 -154 LINE",
"96 -116 OFFCURVE",
"133 -51 OFFCURVE",
"133 28 CURVE SMOOTH",
"133 64 OFFCURVE",
"114 81 OFFCURVE",
"88 81 CURVE SMOOTH"
);
}
);
};
layerId = "0A1AFE58-107D-4787-BDA0-D82FB635C3A6";
paths = (
{
closed = 1;
nodes = (
"62 81 OFFCURVE",
"45 65 OFFCURVE",
"45 38 CURVE SMOOTH",
"45 4 OFFCURVE",
"71 -6 OFFCURVE",
"101 -5 CURVE",
"94 19 LINE",
"94 -28 OFFCURVE",
"73 -86 OFFCURVE",
"31 -154 CURVE",
"72 -154 LINE",
"110 -91 OFFCURVE",
"133 -27 OFFCURVE",
"133 26 CURVE SMOOTH",
"133 63 OFFCURVE",
"114 81 OFFCURVE",
"88 81 CURVE SMOOTH"
);
}
);
width = 178;
},
{
background = {
paths = (
{
closed = 1;
nodes = (
"82 190 OFFCURVE",
"39 152 OFFCURVE",
"39 88 CURVE SMOOTH",
"39 24 OFFCURVE",
"81 -13 OFFCURVE",
"147 -14 CURVE",
"123 19 LINE",
"114 -34 OFFCURVE",
"80 -120 OFFCURVE",
"50 -174 CURVE",
"180 -174 LINE",
"218 -115 OFFCURVE",
"260 -23 OFFCURVE",
"260 68 CURVE SMOOTH",
"260 149 OFFCURVE",
"218 190 OFFCURVE",
"149 190 CURVE SMOOTH"
);
}
);
};
layerId = "84435905-EDCB-4949-A8A3-0E53308A2F50";
paths = (
{
closed = 1;
nodes = (
"78 190 OFFCURVE",
"35 150 OFFCURVE",
"35 86 CURVE SMOOTH",
"35 22 OFFCURVE",
"81 -13 OFFCURVE",
"147 -14 CURVE",
"123 19 LINE",
"114 -34 OFFCURVE",
"80 -120 OFFCURVE",
"50 -174 CURVE",
"170 -174 LINE",
"208 -115 OFFCURVE",
"260 -21 OFFCURVE",
"260 70 CURVE SMOOTH",
"260 149 OFFCURVE",
"214 190 OFFCURVE",
"145 190 CURVE SMOOTH"
);
}
);
width = 298;
}
);
unicode = 002C;
},
{
color = 4;
glyphname = hyphen;
lastChange = "2017-07-31 16:54:11 +0000";
layers = (
{
layerId = "C76CAC8E-7AD6-478C-8F7E-02FEF6F1EA84";
paths = (
{
closed = 1;
nodes = (
"80 204 LINE",
"440 204 LINE",
"440 324 LINE",
"80 324 LINE"
);
}
);
width = 520;
},
{
layerId = "0A1AFE58-107D-4787-BDA0-D82FB635C3A6";
paths = (
{
closed = 1;
nodes = (
"80 231 LINE",
"400 231 LINE",
"400 278 LINE",
"80 278 LINE"
);
}
);
width = 480;
},
{
layerId = "84435905-EDCB-4949-A8A3-0E53308A2F50";
paths = (
{
closed = 1;
nodes = (
"80 191 LINE",
"475 191 LINE",
"475 346 LINE",
"80 346 LINE"
);
}
);
width = 555;
}
);
unicode = 002D;
},
